  999
Version : ModarisV2025 8.7.2.139
  999
DXF Mode : Rule
  999
Notch Superposition : No
  999
Notch Permutation : Same Tool
  999
Slidding Notch : No
  999
Curve Precision : Smooth
  999
Inter Notch Grading : No
  999
All Sizes Precision : Yes
  999
Export Tolerance : 1.000000
  0
SECTION
  2
HEADER
  9
$ACADVER
  1
AC1009
  0
ENDSEC
  0
SECTION
  2
TABLES
  0
ENDSEC
  0
SECTION
  2
BLOCKS
  0
BLOCK
  8
1
  2
TEST_20X20_CM-S_42
  10
0.0000
  20
0.0000
70
0
  0
POLYLINE
  8
14
  66
1
  70
1
  0
VERTEX
  8
14
  10
164.0330
  20
-81.7660
  42
0.0000
  0
VERTEX
  8
14
  10
-35.9670
  20
-81.7660
  42
0.0000
  0
VERTEX
  8
14
  10
-35.9670
  20
118.2340
  42
0.0000
  0
VERTEX
  8
14
  10
164.0330
  20
118.2340
  42
0.0000
  0
SEQEND
  0
POLYLINE
  8
1
  66
1
  70
1
  0
VERTEX
  8
1
  10
164.0329
  20
-81.7660
  42
0.0000
  0
VERTEX
  8
1
  10
-35.9670
  20
-81.7659
  42
0.0000
  0
VERTEX
  8
1
  10
-35.9669
  20
118.2340
  42
0.0000
  0
VERTEX
  8
1
  10
164.0330
  20
118.2339
  42
0.0000
  0
SEQEND
  0
POINT
  8
2
  10
164.0330
  20
-81.7660
  0
POINT
  8
2
  10
-35.9670
  20
-81.7660
  0
POINT
  8
2
  10
-35.9670
  20
118.2340
  0
POINT
  8
2
  10
164.0330
  20
118.2340
  0
POINT
  8
2
  10
164.0329
  20
-81.7660
  0
POINT
  8
2
  10
-35.9670
  20
-81.7659
  0
POINT
  8
2
  10
-35.9669
  20
118.2340
  0
POINT
  8
2
  10
164.0330
  20
118.2339
  0
TEXT
  8
2
  10
164.0330
  20
-81.7660
  40
8.0000
  1
# 1
  0
TEXT
  8
14
  10
164.0330
  20
-81.7660
  40
8.0000
  1
# 1
  0
TEXT
  8
2
  10
-35.9670
  20
-81.7660
  40
8.0000
  1
# 1
  0
TEXT
  8
14
  10
-35.9670
  20
-81.7660
  40
8.0000
  1
# 1
  0
TEXT
  8
2
  10
-35.9670
  20
118.2340
  40
8.0000
  1
# 1
  0
TEXT
  8
14
  10
-35.9670
  20
118.2340
  40
8.0000
  1
# 1
  0
TEXT
  8
2
  10
164.0330
  20
118.2340
  40
8.0000
  1
# 1
  0
TEXT
  8
14
  10
164.0330
  20
118.2340
  40
8.0000
  1
# 1
  0
TEXT
  8
2
  10
164.0329
  20
-81.7660
  40
8.0000
  1
# 1
  0
TEXT
  8
1
  10
164.0329
  20
-81.7660
  40
8.0000
  1
# 1
  0
TEXT
  8
2
  10
-35.9670
  20
-81.7659
  40
8.0000
  1
# 2
  0
TEXT
  8
1
  10
-35.9670
  20
-81.7659
  40
8.0000
  1
# 2
  0
TEXT
  8
2
  10
-35.9669
  20
118.2340
  40
8.0000
  1
# 3
  0
TEXT
  8
1
  10
-35.9669
  20
118.2340
  40
8.0000
  1
# 3
  0
TEXT
  8
2
  10
164.0330
  20
118.2339
  40
8.0000
  1
# 1
  0
TEXT
  8
1
  10
164.0330
  20
118.2339
  40
8.0000
  1
# 1
  0
TEXT
  8
1
  10
-35.9666
  20
-91.7658
  40
8.0000
  1
Piece Name: TEST 20X20 CM
  0
TEXT
  8
1
  10
-35.9666
  20
-101.7658
  40
8.0000
  1
Size: 42
  0
TEXT
  8
1
  10
-35.9666
  20
-111.7658
  40
8.0000
  1
Quantity: 1
  0
TEXT
  8
1
  10
-35.9666
  20
-121.7658
  40
8.0000
  1
Annotation: 
  0
TEXT
  8
1
  10
-35.9666
  20
-131.7658
  40
8.0000
  1
Category: NO CUT
  0
LINE
  8
7
  10
-13.4920
  20
23.5950
  11
141.0250
  21
23.5950
  0
ENDBLK
  0
BLOCK
  8
1
  2
BACK_1P-S_42
  10
0.0000
  20
0.0000
70
0
  0
POLYLINE
  8
14
  66
1
  70
1
  0
VERTEX
  8
14
  10
-423.8140
  20
161.1910
  42
0.0000
  0
VERTEX
  8
14
  10
-423.2770
  20
224.0460
  42
0.0000
  0
VERTEX
  8
14
  10
-420.8800
  20
303.7180
  42
0.0000
  0
VERTEX
  8
14
  10
-419.5190
  20
337.6430
  42
0.0000
  0
VERTEX
  8
14
  10
-417.4720
  20
371.5330
  42
0.0000
  0
VERTEX
  8
14
  10
-410.1290
  20
456.0660
  42
0.0000
  0
VERTEX
  8
14
  10
-183.7220
  20
441.6700
  42
0.0000
  0
VERTEX
  8
14
  10
-182.9200
  20
435.3860
  42
0.0000
  0
VERTEX
  8
14
  10
-181.4700
  20
429.2190
  42
0.0000
  0
VERTEX
  8
14
  10
-179.2740
  20
422.8390
  42
0.0000
  0
VERTEX
  8
14
  10
-176.4670
  20
416.7020
  42
0.0000
  0
VERTEX
  8
14
  10
-171.6860
  20
408.7540
  42
0.0000
  0
VERTEX
  8
14
  10
-165.7190
  20
401.6500
  42
0.0000
  0
VERTEX
  8
14
  10
-157.9540
  20
394.7920
  42
0.0000
  0
VERTEX
  8
14
  10
-149.3050
  20
389.0860
  42
0.0000
  0
VERTEX
  8
14
  10
-145.5500
  20
387.2550
  42
0.0000
  0
VERTEX
  8
14
  10
-141.6610
  20
385.7240
  42
0.0000
  0
VERTEX
  8
14
  10
-135.3940
  20
383.7090
  42
0.0000
  0
VERTEX
  8
14
  10
-129.0320
  20
382.0080
  42
0.0000
  0
VERTEX
  8
14
  10
-124.6520
  20
380.9050
  42
0.0000
  0
VERTEX
  8
14
  10
-120.2180
  20
380.0380
  42
0.0000
  0
VERTEX
  8
14
  10
-113.5050
  20
379.0350
  42
0.0000
  0
VERTEX
  8
14
  10
-106.7580
  20
378.2710
  42
0.0000
  0
VERTEX
  8
14
  10
-97.6510
  20
377.5360
  42
0.0000
  0
VERTEX
  8
14
  10
-88.5120
  20
377.4060
  42
0.0000
  0
VERTEX
  8
14
  10
-71.0420
  20
378.0400
  42
0.0000
  0
VERTEX
  8
14
  10
-53.6020
  20
379.2790
  42
0.0000
  0
VERTEX
  8
14
  10
-34.4630
  20
381.7880
  42
0.0000
  0
VERTEX
  8
14
  10
-15.5390
  20
385.6040
  42
0.0000
  0
VERTEX
  8
14
  10
4.9150
  20
391.1440
  42
0.0000
  0
VERTEX
  8
14
  10
24.9850
  20
397.9510
  42
0.0000
  0
VERTEX
  8
14
  10
37.6170
  20
404.2790
  42
0.0000
  0
VERTEX
  8
14
  10
50.2500
  20
410.6060
  42
0.0000
  0
VERTEX
  8
14
  10
64.8920
  20
383.4600
  42
0.0000
  0
VERTEX
  8
14
  10
77.3670
  20
355.2490
  42
0.0000
  0
VERTEX
  8
14
  10
96.5220
  20
303.6220
  42
0.0000
  0
VERTEX
  8
14
  10
113.3980
  20
251.2020
  42
0.0000
  0
VERTEX
  8
14
  10
107.2340
  20
246.4180
  42
0.0000
  0
VERTEX
  8
14
  10
101.9410
  20
240.6810
  42
0.0000
  0
VERTEX
  8
14
  10
97.7910
  20
234.3100
  42
0.0000
  0
VERTEX
  8
14
  10
94.7780
  20
227.3250
  42
0.0000
  0
VERTEX
  8
14
  10
92.5830
  20
220.1930
  42
0.0000
  0
VERTEX
  8
14
  10
90.9490
  20
212.9080
  42
0.0000
  0
VERTEX
  8
14
  10
89.2500
  20
202.0600
  42
0.0000
  0
VERTEX
  8
14
  10
88.1270
  20
191.1340
  42
0.0000
  0
VERTEX
  8
14
  10
87.5090
  20
176.1680
  42
0.0000
  0
VERTEX
  8
14
  10
87.2370
  20
161.1910
  42
0.0000
  0
VERTEX
  8
14
  10
87.5090
  20
146.2130
  42
0.0000
  0
VERTEX
  8
14
  10
88.1270
  20
131.2470
  42
0.0000
  0
VERTEX
  8
14
  10
89.0120
  20
120.5750
  42
0.0000
  0
VERTEX
  8
14
  10
90.5960
  20
109.9860
  42
0.0000
  0
VERTEX
  8
14
  10
92.3420
  20
102.4200
  42
0.0000
  0
VERTEX
  8
14
  10
94.7660
  20
95.0470
  42
0.0000
  0
VERTEX
  8
14
  10
97.7810
  20
88.0510
  42
0.0000
  0
VERTEX
  8
14
  10
101.9390
  20
81.6710
  42
0.0000
  0
VERTEX
  8
14
  10
107.2260
  20
75.9540
  42
0.0000
  0
VERTEX
  8
14
  10
113.3870
  20
71.1980
  42
0.0000
  0
VERTEX
  8
14
  10
96.5180
  20
18.7690
  42
0.0000
  0
VERTEX
  8
14
  10
77.3670
  20
-32.8680
  42
0.0000
  0
VERTEX
  8
14
  10
64.8940
  20
-61.0800
  42
0.0000
  0
VERTEX
  8
14
  10
50.2500
  20
-88.2250
  42
0.0000
  0
VERTEX
  8
14
  10
37.6170
  20
-81.8970
  42
0.0000
  0
VERTEX
  8
14
  10
24.9850
  20
-75.5690
  42
0.0000
  0
VERTEX
  8
14
  10
4.9150
  20
-68.7630
  42
0.0000
  0
VERTEX
  8
14
  10
-15.5390
  20
-63.2230
  42
0.0000
  0
VERTEX
  8
14
  10
-34.4630
  20
-59.4070
  42
0.0000
  0
VERTEX
  8
14
  10
-53.6020
  20
-56.8980
  42
0.0000
  0
VERTEX
  8
14
  10
-71.0420
  20
-55.6590
  42
0.0000
  0
VERTEX
  8
14
  10
-88.5120
  20
-55.0250
  42
0.0000
  0
VERTEX
  8
14
  10
-97.6510
  20
-55.1550
  42
0.0000
  0
VERTEX
  8
14
  10
-106.7590
  20
-55.8900
  42
0.0000
  0
VERTEX
  8
14
  10
-113.5050
  20
-56.6530
  42
0.0000
  0
VERTEX
  8
14
  10
-120.2180
  20
-57.6570
  42
0.0000
  0
VERTEX
  8
14
  10
-124.6520
  20
-58.5240
  42
0.0000
  0
VERTEX
  8
14
  10
-129.0320
  20
-59.6270
  42
0.0000
  0
VERTEX
  8
14
  10
-135.3940
  20
-61.3280
  42
0.0000
  0
VERTEX
  8
14
  10
-141.6610
  20
-63.3430
  42
0.0000
  0
VERTEX
  8
14
  10
-145.5500
  20
-64.8740
  42
0.0000
  0
VERTEX
  8
14
  10
-149.3050
  20
-66.7050
  42
0.0000
  0
VERTEX
  8
14
  10
-157.9540
  20
-72.4100
  42
0.0000
  0
VERTEX
  8
14
  10
-165.7190
  20
-79.2690
  42
0.0000
  0
VERTEX
  8
14
  10
-171.6860
  20
-86.3730
  42
0.0000
  0
VERTEX
  8
14
  10
-176.4670
  20
-94.3210
  42
0.0000
  0
VERTEX
  8
14
  10
-179.2740
  20
-100.4580
  42
0.0000
  0
VERTEX
  8
14
  10
-181.4700
  20
-106.8370
  42
0.0000
  0
VERTEX
  8
14
  10
-182.9200
  20
-113.0050
  42
0.0000
  0
VERTEX
  8
14
  10
-183.7220
  20
-119.2880
  42
0.0000
  0
VERTEX
  8
14
  10
-410.1290
  20
-133.6840
  42
0.0000
  0
VERTEX
  8
14
  10
-417.4720
  20
-49.1520
  42
0.0000
  0
VERTEX
  8
14
  10
-419.5190
  20
-15.2620
  42
0.0000
  0
VERTEX
  8
14
  10
-420.8800
  20
18.6630
  42
0.0000
  0
VERTEX
  8
14
  10
-423.2770
  20
98.3360
  42
0.0000
  0
SEQEND
  0
POLYLINE
  8
1
  66
1
  70
1
  0
VERTEX
  8
1
  10
-433.8140
  20
161.2160
  42
0.0000
  0
VERTEX
  8
1
  10
-433.8140
  20
161.2161
  42
0.0000
  0
VERTEX
  8
1
  10
-433.2730
  20
224.3000
  42
0.0000
  0
VERTEX
  8
1
  10
-429.5090
  20
338.0950
  42
0.0000
  0
VERTEX
  8
1
  10
-425.8580
  20
393.5130
  42
0.0000
  0
VERTEX
  8
1
  10
-420.0800
  20
457.0520
  42
0.0000
  0
VERTEX
  8
1
  10
-419.1280
  20
466.6580
  42
0.0000
  0
VERTEX
  8
1
  10
-174.6280
  20
451.1120
  42
0.0000
  0
VERTEX
  8
1
  10
-173.7730
  20
442.6780
  42
0.0000
  0
VERTEX
  8
1
  10
-172.8070
  20
435.8730
  42
0.0000
  0
VERTEX
  8
1
  10
-170.9920
  20
429.2580
  42
0.0000
  0
VERTEX
  8
1
  10
-168.1590
  20
422.5310
  42
0.0000
  0
VERTEX
  8
1
  10
-164.6290
  20
416.1590
  42
0.0000
  0
VERTEX
  8
1
  10
-161.0370
  20
411.4110
  42
0.0000
  0
VERTEX
  8
1
  10
-156.9780
  20
407.0900
  42
0.0000
  0
VERTEX
  8
1
  10
-151.0280
  20
402.1400
  42
0.0000
  0
VERTEX
  8
1
  10
-144.5770
  20
397.9060
  42
0.0000
  0
VERTEX
  8
1
  10
-144.5769
  20
397.9060
  42
0.0000
  0
VERTEX
  8
1
  10
-141.4820
  20
396.4010
  42
0.0000
  0
VERTEX
  8
1
  10
-138.2950
  20
395.1460
  42
0.0000
  0
VERTEX
  8
1
  10
-132.4410
  20
393.2710
  42
0.0000
  0
VERTEX
  8
1
  10
-126.5190
  20
391.6880
  42
0.0000
  0
VERTEX
  8
1
  10
-122.5330
  20
390.6840
  42
0.0000
  0
VERTEX
  8
1
  10
-118.5180
  20
389.8950
  42
0.0000
  0
VERTEX
  8
1
  10
-112.1190
  20
388.9420
  42
0.0000
  0
VERTEX
  8
1
  10
-105.7110
  20
388.2160
  42
0.0000
  0
VERTEX
  8
1
  10
-97.1890
  20
387.5270
  42
0.0000
  0
VERTEX
  8
1
  10
-88.6620
  20
387.4060
  42
0.0000
  0
VERTEX
  8
1
  10
-71.5860
  20
388.0260
  42
0.0000
  0
VERTEX
  8
1
  10
-54.5650
  20
389.2340
  42
0.0000
  0
VERTEX
  8
1
  10
-36.0870
  20
391.6570
  42
0.0000
  0
VERTEX
  8
1
  10
-17.8430
  20
395.3360
  42
0.0000
  0
VERTEX
  8
1
  10
1.8000
  20
400.6540
  42
0.0000
  0
VERTEX
  8
1
  10
21.0510
  20
407.1650
  42
0.0000
  0
VERTEX
  8
1
  10
45.7710
  20
419.5470
  42
0.0000
  0
VERTEX
  8
1
  10
54.1940
  20
423.7670
  42
0.0000
  0
VERTEX
  8
1
  10
58.9080
  20
415.6100
  42
0.0000
  0
VERTEX
  8
1
  10
73.8970
  20
387.8100
  42
0.0000
  0
VERTEX
  8
1
  10
86.6560
  20
358.9530
  42
0.0000
  0
VERTEX
  8
1
  10
105.9650
  20
306.9130
  42
0.0000
  0
VERTEX
  8
1
  10
122.9660
  20
254.1090
  42
0.0000
  0
VERTEX
  8
1
  10
125.0580
  20
247.2260
  42
0.0000
  0
VERTEX
  8
1
  10
119.1970
  20
243.0550
  42
0.0000
  0
VERTEX
  8
1
  10
115.3080
  20
240.1480
  42
0.0000
  0
VERTEX
  8
1
  10
111.8120
  20
236.8570
  42
0.0000
  0
VERTEX
  8
1
  10
108.1330
  20
232.1420
  42
0.0000
  0
VERTEX
  8
1
  10
105.3270
  20
226.9180
  42
0.0000
  0
VERTEX
  8
1
  10
102.6720
  20
219.0970
  42
0.0000
  0
VERTEX
  8
1
  10
100.7810
  20
211.0780
  42
0.0000
  0
VERTEX
  8
1
  10
99.1730
  20
200.8060
  42
0.0000
  0
VERTEX
  8
1
  10
98.1090
  20
190.4820
  42
0.0000
  0
VERTEX
  8
1
  10
97.5060
  20
175.8930
  42
0.0000
  0
VERTEX
  8
1
  10
97.2400
  20
161.2570
  42
0.0000
  0
VERTEX
  8
1
  10
97.2370
  20
161.0090
  42
0.0000
  0
VERTEX
  8
1
  10
97.5060
  20
146.4890
  42
0.0000
  0
VERTEX
  8
1
  10
98.1130
  20
131.7850
  42
0.0000
  0
VERTEX
  8
1
  10
98.9450
  20
121.7440
  42
0.0000
  0
VERTEX
  8
1
  10
100.4300
  20
111.8140
  42
0.0000
  0
VERTEX
  8
1
  10
102.4780
  20
103.4590
  42
0.0000
  0
VERTEX
  8
1
  10
105.3440
  20
95.3880
  42
0.0000
  0
VERTEX
  8
1
  10
108.1570
  20
90.1700
  42
0.0000
  0
VERTEX
  8
1
  10
111.7990
  20
85.5120
  42
0.0000
  0
VERTEX
  8
1
  10
115.3090
  20
82.2230
  42
0.0000
  0
VERTEX
  8
1
  10
119.1620
  20
79.3620
  42
0.0000
  0
VERTEX
  8
1
  10
125.0520
  20
75.1960
  42
0.0000
  0
VERTEX
  8
1
  10
122.9550
  20
68.2930
  42
0.0000
  0
VERTEX
  8
1
  10
105.9500
  20
15.4480
  42
0.0000
  0
VERTEX
  8
1
  10
86.6560
  20
-36.5710
  42
0.0000
  0
VERTEX
  8
1
  10
73.8840
  20
-65.4590
  42
0.0000
  0
VERTEX
  8
1
  10
58.9080
  20
-93.2300
  42
0.0000
  0
VERTEX
  8
1
  10
54.1940
  20
-101.3850
  42
0.0000
  0
VERTEX
  8
1
  10
45.7710
  20
-97.1660
  42
0.0000
  0
VERTEX
  8
1
  10
21.0510
  20
-84.7830
  42
0.0000
  0
VERTEX
  8
1
  10
1.7690
  20
-78.2630
  42
0.0000
  0
VERTEX
  8
1
  10
-17.8430
  20
-72.9550
  42
0.0000
  0
VERTEX
  8
1
  10
-36.1200
  20
-69.2710
  42
0.0000
  0
VERTEX
  8
1
  10
-54.5650
  20
-66.8530
  42
0.0000
  0
VERTEX
  8
1
  10
-71.6190
  20
-65.6430
  42
0.0000
  0
VERTEX
  8
1
  10
-88.6620
  20
-65.0240
  42
0.0000
  0
VERTEX
  8
1
  10
-97.2470
  20
-65.1490
  42
0.0000
  0
VERTEX
  8
1
  10
-105.7590
  20
-65.8530
  42
0.0000
  0
VERTEX
  8
1
  10
-110.6030
  20
-66.3890
  42
0.0000
  0
VERTEX
  8
1
  10
-115.3900
  20
-67.0170
  42
0.0000
  0
VERTEX
  8
1
  10
-120.9780
  20
-67.9810
  42
0.0000
  0
VERTEX
  8
1
  10
-126.4510
  20
-69.2900
  42
0.0000
  0
VERTEX
  8
1
  10
-132.4340
  20
-70.8880
  42
0.0000
  0
VERTEX
  8
1
  10
-138.2950
  20
-72.7640
  42
0.0000
  0
VERTEX
  8
1
  10
-141.4680
  20
-74.0140
  42
0.0000
  0
VERTEX
  8
1
  10
-144.4980
  20
-75.4870
  42
0.0000
  0
VERTEX
  8
1
  10
-144.4981
  20
-75.4871
  42
0.0000
  0
VERTEX
  8
1
  10
-148.2840
  20
-77.8040
  42
0.0000
  0
VERTEX
  8
1
  10
-151.8680
  20
-80.3530
  42
0.0000
  0
VERTEX
  8
1
  10
-153.6150
  20
-81.7890
  42
0.0000
  0
VERTEX
  8
1
  10
-155.3320
  20
-83.2020
  42
0.0000
  0
VERTEX
  8
1
  10
-158.3730
  20
-86.0850
  42
0.0000
  0
VERTEX
  8
1
  10
-161.1790
  20
-89.1400
  42
0.0000
  0
VERTEX
  8
1
  10
-163.5540
  20
-92.2080
  42
0.0000
  0
VERTEX
  8
1
  10
-165.6580
  20
-95.4140
  42
0.0000
  0
VERTEX
  8
1
  10
-168.6200
  20
-101.0460
  42
0.0000
  0
VERTEX
  8
1
  10
-170.9950
  20
-106.8870
  42
0.0000
  0
VERTEX
  8
1
  10
-172.8150
  20
-113.5310
  42
0.0000
  0
VERTEX
  8
1
  10
-173.7730
  20
-120.2970
  42
0.0000
  0
VERTEX
  8
1
  10
-174.6280
  20
-128.7300
  42
0.0000
  0
VERTEX
  8
1
  10
-419.1280
  20
-144.2770
  42
0.0000
  0
VERTEX
  8
1
  10
-420.0800
  20
-134.6710
  42
0.0000
  0
VERTEX
  8
1
  10
-425.8650
  20
-71.0510
  42
0.0000
  0
VERTEX
  8
1
  10
-429.5090
  20
-15.7130
  42
0.0000
  0
VERTEX
  8
1
  10
-433.2730
  20
98.0810
  42
0.0000
  0
SEQEND
  0
POINT
  8
2
  10
-423.8140
  20
161.1910
  0
POINT
  8
3
  10
-423.2770
  20
224.0460
  0
POINT
  8
3
  10
-420.8800
  20
303.7180
  0
POINT
  8
3
  10
-419.5190
  20
337.6430
  0
POINT
  8
3
  10
-417.4720
  20
371.5330
  0
POINT
  8
2
  10
-410.1290
  20
456.0660
  0
POINT
  8
2
  10
-183.7220
  20
441.6700
  0
POINT
  8
3
  10
-182.9200
  20
435.3860
  0
POINT
  8
3
  10
-181.4700
  20
429.2190
  0
POINT
  8
3
  10
-179.2740
  20
422.8390
  0
POINT
  8
3
  10
-176.4670
  20
416.7020
  0
POINT
  8
3
  10
-171.6860
  20
408.7540
  0
POINT
  8
3
  10
-165.7190
  20
401.6500
  0
POINT
  8
3
  10
-157.9540
  20
394.7920
  0
POINT
  8
3
  10
-149.3050
  20
389.0860
  0
POINT
  8
3
  10
-145.5500
  20
387.2550
  0
POINT
  8
3
  10
-141.6610
  20
385.7240
  0
POINT
  8
3
  10
-135.3940
  20
383.7090
  0
POINT
  8
3
  10
-129.0320
  20
382.0080
  0
POINT
  8
3
  10
-124.6520
  20
380.9050
  0
POINT
  8
3
  10
-120.2180
  20
380.0380
  0
POINT
  8
3
  10
-113.5050
  20
379.0350
  0
POINT
  8
3
  10
-106.7580
  20
378.2710
  0
POINT
  8
3
  10
-97.6510
  20
377.5360
  0
POINT
  8
3
  10
-88.5120
  20
377.4060
  0
POINT
  8
3
  10
-71.0420
  20
378.0400
  0
POINT
  8
3
  10
-53.6020
  20
379.2790
  0
POINT
  8
3
  10
-34.4630
  20
381.7880
  0
POINT
  8
3
  10
-15.5390
  20
385.6040
  0
POINT
  8
3
  10
4.9150
  20
391.1440
  0
POINT
  8
3
  10
24.9850
  20
397.9510
  0
POINT
  8
3
  10
37.6170
  20
404.2790
  0
POINT
  8
2
  10
50.2500
  20
410.6060
  0
POINT
  8
3
  10
64.8920
  20
383.4600
  0
POINT
  8
3
  10
77.3670
  20
355.2490
  0
POINT
  8
3
  10
96.5220
  20
303.6220
  0
POINT
  8
2
  10
113.3980
  20
251.2020
  0
POINT
  8
3
  10
107.2340
  20
246.4180
  0
POINT
  8
3
  10
101.9410
  20
240.6810
  0
POINT
  8
3
  10
97.7910
  20
234.3100
  0
POINT
  8
3
  10
94.7780
  20
227.3250
  0
POINT
  8
3
  10
92.5830
  20
220.1930
  0
POINT
  8
3
  10
90.9490
  20
212.9080
  0
POINT
  8
3
  10
89.2500
  20
202.0600
  0
POINT
  8
3
  10
88.1270
  20
191.1340
  0
POINT
  8
3
  10
87.5090
  20
176.1680
  0
POINT
  8
3
  10
87.2370
  20
161.1910
  0
POINT
  8
3
  10
87.5090
  20
146.2130
  0
POINT
  8
3
  10
88.1270
  20
131.2470
  0
POINT
  8
3
  10
89.0120
  20
120.5750
  0
POINT
  8
3
  10
90.5960
  20
109.9860
  0
POINT
  8
3
  10
92.3420
  20
102.4200
  0
POINT
  8
3
  10
94.7660
  20
95.0470
  0
POINT
  8
3
  10
97.7810
  20
88.0510
  0
POINT
  8
3
  10
101.9390
  20
81.6710
  0
POINT
  8
3
  10
107.2260
  20
75.9540
  0
POINT
  8
2
  10
113.3870
  20
71.1980
  0
POINT
  8
3
  10
96.5180
  20
18.7690
  0
POINT
  8
2
  10
77.3670
  20
-32.8680
  0
POINT
  8
3
  10
64.8940
  20
-61.0800
  0
POINT
  8
2
  10
50.2500
  20
-88.2250
  0
POINT
  8
3
  10
37.6170
  20
-81.8970
  0
POINT
  8
3
  10
24.9850
  20
-75.5690
  0
POINT
  8
3
  10
4.9150
  20
-68.7630
  0
POINT
  8
3
  10
-15.5390
  20
-63.2230
  0
POINT
  8
3
  10
-34.4630
  20
-59.4070
  0
POINT
  8
3
  10
-53.6020
  20
-56.8980
  0
POINT
  8
3
  10
-71.0420
  20
-55.6590
  0
POINT
  8
3
  10
-88.5120
  20
-55.0250
  0
POINT
  8
3
  10
-97.6510
  20
-55.1550
  0
POINT
  8
3
  10
-106.7590
  20
-55.8900
  0
POINT
  8
3
  10
-113.5050
  20
-56.6530
  0
POINT
  8
3
  10
-120.2180
  20
-57.6570
  0
POINT
  8
3
  10
-124.6520
  20
-58.5240
  0
POINT
  8
3
  10
-129.0320
  20
-59.6270
  0
POINT
  8
3
  10
-135.3940
  20
-61.3280
  0
POINT
  8
3
  10
-141.6610
  20
-63.3430
  0
POINT
  8
3
  10
-145.5500
  20
-64.8740
  0
POINT
  8
3
  10
-149.3050
  20
-66.7050
  0
POINT
  8
3
  10
-157.9540
  20
-72.4100
  0
POINT
  8
3
  10
-165.7190
  20
-79.2690
  0
POINT
  8
3
  10
-171.6860
  20
-86.3730
  0
POINT
  8
3
  10
-176.4670
  20
-94.3210
  0
POINT
  8
3
  10
-179.2740
  20
-100.4580
  0
POINT
  8
3
  10
-181.4700
  20
-106.8370
  0
POINT
  8
3
  10
-182.9200
  20
-113.0050
  0
POINT
  8
2
  10
-183.7220
  20
-119.2880
  0
POINT
  8
2
  10
-410.1290
  20
-133.6840
  0
POINT
  8
3
  10
-417.4720
  20
-49.1520
  0
POINT
  8
3
  10
-419.5190
  20
-15.2620
  0
POINT
  8
3
  10
-420.8800
  20
18.6630
  0
POINT
  8
3
  10
-423.2770
  20
98.3360
  0
POINT
  8
2
  10
-433.8140
  20
161.2160
  0
POINT
  8
2
  10
-433.8140
  20
161.2161
  0
POINT
  8
3
  10
-433.2730
  20
224.3000
  0
POINT
  8
2
  10
-429.5090
  20
338.0950
  0
POINT
  8
3
  10
-425.8580
  20
393.5130
  0
POINT
  8
3
  10
-420.0800
  20
457.0520
  0
POINT
  8
2
  10
-419.1280
  20
466.6580
  0
POINT
  8
2
  10
-174.6280
  20
451.1120
  0
POINT
  8
3
  10
-173.7730
  20
442.6780
  0
POINT
  8
3
  10
-172.8070
  20
435.8730
  0
POINT
  8
3
  10
-170.9920
  20
429.2580
  0
POINT
  8
3
  10
-168.1590
  20
422.5310
  0
POINT
  8
3
  10
-164.6290
  20
416.1590
  0
POINT
  8
3
  10
-161.0370
  20
411.4110
  0
POINT
  8
3
  10
-156.9780
  20
407.0900
  0
POINT
  8
3
  10
-151.0280
  20
402.1400
  0
POINT
  8
2
  10
-144.5770
  20
397.9060
  0
POINT
  8
2
  10
-144.5769
  20
397.9060
  0
POINT
  8
3
  10
-141.4820
  20
396.4010
  0
POINT
  8
3
  10
-138.2950
  20
395.1460
  0
POINT
  8
3
  10
-132.4410
  20
393.2710
  0
POINT
  8
3
  10
-126.5190
  20
391.6880
  0
POINT
  8
3
  10
-122.5330
  20
390.6840
  0
POINT
  8
3
  10
-118.5180
  20
389.8950
  0
POINT
  8
3
  10
-112.1190
  20
388.9420
  0
POINT
  8
3
  10
-105.7110
  20
388.2160
  0
POINT
  8
3
  10
-97.1890
  20
387.5270
  0
POINT
  8
3
  10
-88.6620
  20
387.4060
  0
POINT
  8
3
  10
-71.5860
  20
388.0260
  0
POINT
  8
3
  10
-54.5650
  20
389.2340
  0
POINT
  8
3
  10
-36.0870
  20
391.6570
  0
POINT
  8
3
  10
-17.8430
  20
395.3360
  0
POINT
  8
3
  10
1.8000
  20
400.6540
  0
POINT
  8
3
  10
21.0510
  20
407.1650
  0
POINT
  8
3
  10
45.7710
  20
419.5470
  0
POINT
  8
2
  10
54.1940
  20
423.7670
  0
POINT
  8
3
  10
58.9080
  20
415.6100
  0
POINT
  8
3
  10
73.8970
  20
387.8100
  0
POINT
  8
3
  10
86.6560
  20
358.9530
  0
POINT
  8
3
  10
105.9650
  20
306.9130
  0
POINT
  8
3
  10
122.9660
  20
254.1090
  0
POINT
  8
2
  10
125.0580
  20
247.2260
  0
POINT
  8
3
  10
119.1970
  20
243.0550
  0
POINT
  8
3
  10
115.3080
  20
240.1480
  0
POINT
  8
3
  10
111.8120
  20
236.8570
  0
POINT
  8
3
  10
108.1330
  20
232.1420
  0
POINT
  8
3
  10
105.3270
  20
226.9180
  0
POINT
  8
3
  10
102.6720
  20
219.0970
  0
POINT
  8
3
  10
100.7810
  20
211.0780
  0
POINT
  8
3
  10
99.1730
  20
200.8060
  0
POINT
  8
3
  10
98.1090
  20
190.4820
  0
POINT
  8
3
  10
97.5060
  20
175.8930
  0
POINT
  8
3
  10
97.2400
  20
161.2570
  0
POINT
  8
3
  10
97.2370
  20
161.0090
  0
POINT
  8
3
  10
97.5060
  20
146.4890
  0
POINT
  8
3
  10
98.1130
  20
131.7850
  0
POINT
  8
3
  10
98.9450
  20
121.7440
  0
POINT
  8
3
  10
100.4300
  20
111.8140
  0
POINT
  8
3
  10
102.4780
  20
103.4590
  0
POINT
  8
3
  10
105.3440
  20
95.3880
  0
POINT
  8
3
  10
108.1570
  20
90.1700
  0
POINT
  8
3
  10
111.7990
  20
85.5120
  0
POINT
  8
3
  10
115.3090
  20
82.2230
  0
POINT
  8
3
  10
119.1620
  20
79.3620
  0
POINT
  8
2
  10
125.0520
  20
75.1960
  0
POINT
  8
3
  10
122.9550
  20
68.2930
  0
POINT
  8
3
  10
105.9500
  20
15.4480
  0
POINT
  8
2
  10
86.6560
  20
-36.5710
  0
POINT
  8
3
  10
73.8840
  20
-65.4590
  0
POINT
  8
3
  10
58.9080
  20
-93.2300
  0
POINT
  8
2
  10
54.1940
  20
-101.3850
  0
POINT
  8
3
  10
45.7710
  20
-97.1660
  0
POINT
  8
2
  10
21.0510
  20
-84.7830
  0
POINT
  8
3
  10
1.7690
  20
-78.2630
  0
POINT
  8
3
  10
-17.8430
  20
-72.9550
  0
POINT
  8
3
  10
-36.1200
  20
-69.2710
  0
POINT
  8
3
  10
-54.5650
  20
-66.8530
  0
POINT
  8
3
  10
-71.6190
  20
-65.6430
  0
POINT
  8
3
  10
-88.6620
  20
-65.0240
  0
POINT
  8
3
  10
-97.2470
  20
-65.1490
  0
POINT
  8
3
  10
-105.7590
  20
-65.8530
  0
POINT
  8
3
  10
-110.6030
  20
-66.3890
  0
POINT
  8
3
  10
-115.3900
  20
-67.0170
  0
POINT
  8
3
  10
-120.9780
  20
-67.9810
  0
POINT
  8
3
  10
-126.4510
  20
-69.2900
  0
POINT
  8
3
  10
-132.4340
  20
-70.8880
  0
POINT
  8
3
  10
-138.2950
  20
-72.7640
  0
POINT
  8
3
  10
-141.4680
  20
-74.0140
  0
POINT
  8
2
  10
-144.4980
  20
-75.4870
  0
POINT
  8
2
  10
-144.4981
  20
-75.4871
  0
POINT
  8
3
  10
-148.2840
  20
-77.8040
  0
POINT
  8
3
  10
-151.8680
  20
-80.3530
  0
POINT
  8
3
  10
-153.6150
  20
-81.7890
  0
POINT
  8
3
  10
-155.3320
  20
-83.2020
  0
POINT
  8
3
  10
-158.3730
  20
-86.0850
  0
POINT
  8
3
  10
-161.1790
  20
-89.1400
  0
POINT
  8
3
  10
-163.5540
  20
-92.2080
  0
POINT
  8
3
  10
-165.6580
  20
-95.4140
  0
POINT
  8
3
  10
-168.6200
  20
-101.0460
  0
POINT
  8
3
  10
-170.9950
  20
-106.8870
  0
POINT
  8
3
  10
-172.8150
  20
-113.5310
  0
POINT
  8
3
  10
-173.7730
  20
-120.2970
  0
POINT
  8
2
  10
-174.6280
  20
-128.7300
  0
POINT
  8
2
  10
-419.1280
  20
-144.2770
  0
POINT
  8
3
  10
-420.0800
  20
-134.6710
  0
POINT
  8
3
  10
-425.8650
  20
-71.0510
  0
POINT
  8
3
  10
-429.5090
  20
-15.7130
  0
POINT
  8
3
  10
-433.2730
  20
98.0810
  0
POINT
  8
4
  10
-144.5769
  20
397.9060
  30
10.0000
  50
-118.1789
  0
POINT
  8
4
  10
97.2400
  20
161.2570
  30
10.0000
  50
-179.6211
  0
POINT
  8
4
  10
-144.4981
  20
-75.4871
  30
10.0000
  50
118.1789
  0
TEXT
  8
2
  10
-423.8140
  20
161.1910
  40
8.0000
  1
# 4
  0
TEXT
  8
14
  10
-423.8140
  20
161.1910
  40
8.0000
  1
# 4
  0
TEXT
  8
2
  10
-410.1290
  20
456.0660
  40
8.0000
  1
# 5
  0
TEXT
  8
14
  10
-410.1290
  20
456.0660
  40
8.0000
  1
# 5
  0
TEXT
  8
2
  10
-183.7220
  20
441.6700
  40
8.0000
  1
# 6
  0
TEXT
  8
14
  10
-183.7220
  20
441.6700
  40
8.0000
  1
# 6
  0
TEXT
  8
3
  10
-149.3050
  20
389.0860
  40
8.0000
  1
# 7
  0
TEXT
  8
14
  10
-149.3050
  20
389.0860
  40
8.0000
  1
# 7
  0
TEXT
  8
3
  10
-106.7580
  20
378.2710
  40
8.0000
  1
# 8
  0
TEXT
  8
14
  10
-106.7580
  20
378.2710
  40
8.0000
  1
# 8
  0
TEXT
  8
2
  10
50.2500
  20
410.6060
  40
8.0000
  1
# 9
  0
TEXT
  8
14
  10
50.2500
  20
410.6060
  40
8.0000
  1
# 9
  0
TEXT
  8
2
  10
113.3980
  20
251.2020
  40
8.0000
  1
# 10
  0
TEXT
  8
14
  10
113.3980
  20
251.2020
  40
8.0000
  1
# 10
  0
TEXT
  8
2
  10
113.3870
  20
71.1980
  40
8.0000
  1
# 10
  0
TEXT
  8
14
  10
113.3870
  20
71.1980
  40
8.0000
  1
# 10
  0
TEXT
  8
2
  10
50.2500
  20
-88.2250
  40
8.0000
  1
# 11
  0
TEXT
  8
14
  10
50.2500
  20
-88.2250
  40
8.0000
  1
# 11
  0
TEXT
  8
3
  10
-106.7590
  20
-55.8900
  40
8.0000
  1
# 12
  0
TEXT
  8
14
  10
-106.7590
  20
-55.8900
  40
8.0000
  1
# 12
  0
TEXT
  8
3
  10
-149.3050
  20
-66.7050
  40
8.0000
  1
# 13
  0
TEXT
  8
14
  10
-149.3050
  20
-66.7050
  40
8.0000
  1
# 13
  0
TEXT
  8
2
  10
-183.7220
  20
-119.2880
  40
8.0000
  1
# 14
  0
TEXT
  8
14
  10
-183.7220
  20
-119.2880
  40
8.0000
  1
# 14
  0
TEXT
  8
2
  10
-410.1290
  20
-133.6840
  40
8.0000
  1
# 15
  0
TEXT
  8
14
  10
-410.1290
  20
-133.6840
  40
8.0000
  1
# 15
  0
TEXT
  8
2
  10
-433.8140
  20
161.2160
  40
8.0000
  1
# 16
  0
TEXT
  8
1
  10
-433.8140
  20
161.2160
  40
8.0000
  1
# 16
  0
TEXT
  8
2
  10
-433.8140
  20
161.2161
  40
8.0000
  1
# 17
  0
TEXT
  8
1
  10
-433.8140
  20
161.2161
  40
8.0000
  1
# 17
  0
TEXT
  8
3
  10
-420.0800
  20
457.0520
  40
8.0000
  1
# 18
  0
TEXT
  8
1
  10
-420.0800
  20
457.0520
  40
8.0000
  1
# 18
  0
TEXT
  8
2
  10
-419.1280
  20
466.6580
  40
8.0000
  1
# 19
  0
TEXT
  8
1
  10
-419.1280
  20
466.6580
  40
8.0000
  1
# 19
  0
TEXT
  8
2
  10
-174.6280
  20
451.1120
  40
8.0000
  1
# 20
  0
TEXT
  8
1
  10
-174.6280
  20
451.1120
  40
8.0000
  1
# 20
  0
TEXT
  8
3
  10
-173.7730
  20
442.6780
  40
8.0000
  1
# 21
  0
TEXT
  8
1
  10
-173.7730
  20
442.6780
  40
8.0000
  1
# 21
  0
TEXT
  8
2
  10
-144.5770
  20
397.9060
  40
8.0000
  1
# 22
  0
TEXT
  8
1
  10
-144.5770
  20
397.9060
  40
8.0000
  1
# 22
  0
TEXT
  8
2
  10
-144.5769
  20
397.9060
  40
8.0000
  1
# 22
  0
TEXT
  8
1
  10
-144.5769
  20
397.9060
  40
8.0000
  1
# 22
  0
TEXT
  8
3
  10
-126.5190
  20
391.6880
  40
8.0000
  1
# 23
  0
TEXT
  8
1
  10
-126.5190
  20
391.6880
  40
8.0000
  1
# 23
  0
TEXT
  8
3
  10
-105.7110
  20
388.2160
  40
8.0000
  1
# 24
  0
TEXT
  8
1
  10
-105.7110
  20
388.2160
  40
8.0000
  1
# 24
  0
TEXT
  8
3
  10
-54.5650
  20
389.2340
  40
8.0000
  1
# 25
  0
TEXT
  8
1
  10
-54.5650
  20
389.2340
  40
8.0000
  1
# 25
  0
TEXT
  8
3
  10
45.7710
  20
419.5470
  40
8.0000
  1
# 26
  0
TEXT
  8
1
  10
45.7710
  20
419.5470
  40
8.0000
  1
# 26
  0
TEXT
  8
2
  10
54.1940
  20
423.7670
  40
8.0000
  1
# 27
  0
TEXT
  8
1
  10
54.1940
  20
423.7670
  40
8.0000
  1
# 27
  0
TEXT
  8
3
  10
58.9080
  20
415.6100
  40
8.0000
  1
# 28
  0
TEXT
  8
1
  10
58.9080
  20
415.6100
  40
8.0000
  1
# 28
  0
TEXT
  8
3
  10
122.9660
  20
254.1090
  40
8.0000
  1
# 29
  0
TEXT
  8
1
  10
122.9660
  20
254.1090
  40
8.0000
  1
# 29
  0
TEXT
  8
2
  10
125.0580
  20
247.2260
  40
8.0000
  1
# 30
  0
TEXT
  8
1
  10
125.0580
  20
247.2260
  40
8.0000
  1
# 30
  0
TEXT
  8
3
  10
119.1970
  20
243.0550
  40
8.0000
  1
# 10
  0
TEXT
  8
1
  10
119.1970
  20
243.0550
  40
8.0000
  1
# 10
  0
TEXT
  8
3
  10
97.2400
  20
161.2570
  40
8.0000
  1
# 10
  0
TEXT
  8
1
  10
97.2400
  20
161.2570
  40
8.0000
  1
# 10
  0
TEXT
  8
3
  10
119.1620
  20
79.3620
  40
8.0000
  1
# 10
  0
TEXT
  8
1
  10
119.1620
  20
79.3620
  40
8.0000
  1
# 10
  0
TEXT
  8
2
  10
125.0520
  20
75.1960
  40
8.0000
  1
# 31
  0
TEXT
  8
1
  10
125.0520
  20
75.1960
  40
8.0000
  1
# 31
  0
TEXT
  8
3
  10
122.9550
  20
68.2930
  40
8.0000
  1
# 32
  0
TEXT
  8
1
  10
122.9550
  20
68.2930
  40
8.0000
  1
# 32
  0
TEXT
  8
3
  10
58.9080
  20
-93.2300
  40
8.0000
  1
# 33
  0
TEXT
  8
1
  10
58.9080
  20
-93.2300
  40
8.0000
  1
# 33
  0
TEXT
  8
2
  10
54.1940
  20
-101.3850
  40
8.0000
  1
# 34
  0
TEXT
  8
1
  10
54.1940
  20
-101.3850
  40
8.0000
  1
# 34
  0
TEXT
  8
3
  10
45.7710
  20
-97.1660
  40
8.0000
  1
# 35
  0
TEXT
  8
1
  10
45.7710
  20
-97.1660
  40
8.0000
  1
# 35
  0
TEXT
  8
3
  10
-54.5650
  20
-66.8530
  40
8.0000
  1
# 36
  0
TEXT
  8
1
  10
-54.5650
  20
-66.8530
  40
8.0000
  1
# 36
  0
TEXT
  8
3
  10
-105.7590
  20
-65.8530
  40
8.0000
  1
# 37
  0
TEXT
  8
1
  10
-105.7590
  20
-65.8530
  40
8.0000
  1
# 37
  0
TEXT
  8
3
  10
-126.4510
  20
-69.2900
  40
8.0000
  1
# 38
  0
TEXT
  8
1
  10
-126.4510
  20
-69.2900
  40
8.0000
  1
# 38
  0
TEXT
  8
2
  10
-144.4980
  20
-75.4870
  40
8.0000
  1
# 39
  0
TEXT
  8
1
  10
-144.4980
  20
-75.4870
  40
8.0000
  1
# 39
  0
TEXT
  8
2
  10
-144.4981
  20
-75.4871
  40
8.0000
  1
# 40
  0
TEXT
  8
1
  10
-144.4981
  20
-75.4871
  40
8.0000
  1
# 40
  0
TEXT
  8
3
  10
-173.7730
  20
-120.2970
  40
8.0000
  1
# 41
  0
TEXT
  8
1
  10
-173.7730
  20
-120.2970
  40
8.0000
  1
# 41
  0
TEXT
  8
2
  10
-174.6280
  20
-128.7300
  40
8.0000
  1
# 42
  0
TEXT
  8
1
  10
-174.6280
  20
-128.7300
  40
8.0000
  1
# 42
  0
TEXT
  8
2
  10
-419.1280
  20
-144.2770
  40
8.0000
  1
# 43
  0
TEXT
  8
1
  10
-419.1280
  20
-144.2770
  40
8.0000
  1
# 43
  0
TEXT
  8
3
  10
-420.0800
  20
-134.6710
  40
8.0000
  1
# 44
  0
TEXT
  8
1
  10
-420.0800
  20
-134.6710
  40
8.0000
  1
# 44
  0
TEXT
  8
4
  10
-144.5769
  20
397.9060
  40
8.0000
  1
# 22
  0
TEXT
  8
4
  10
97.2400
  20
161.2570
  40
8.0000
  1
# 10
  0
TEXT
  8
4
  10
-144.4981
  20
-75.4871
  40
8.0000
  1
# 40
  0
TEXT
  8
1
  10
-424.6556
  20
-174.9035
  40
8.0000
  1
Piece Name: BACK 1P
  0
TEXT
  8
1
  10
-424.6556
  20
-184.9035
  40
8.0000
  1
Size: 42
  0
TEXT
  8
1
  10
-424.6556
  20
-194.9035
  40
8.0000
  1
Quantity: 1
  0
TEXT
  8
1
  10
-424.6556
  20
-204.9035
  40
8.0000
  1
Annotation: 
  0
TEXT
  8
1
  10
-424.6556
  20
-214.9035
  40
8.0000
  1
Category: FABRIC
  0
LINE
  8
7
  10
-383.1530
  20
161.1910
  11
54.6000
  21
161.1910
  0
ENDBLK
  0
BLOCK
  8
1
  2
SLEEVE_2P-S_42
  10
0.0000
  20
0.0000
70
0
  0
POLYLINE
  8
14
  66
1
  70
1
  0
VERTEX
  8
14
  10
498.2900
  20
-849.2550
  42
0.0000
  0
VERTEX
  8
14
  10
338.7250
  20
-824.8360
  42
0.0000
  0
VERTEX
  8
14
  10
172.1350
  20
-805.7800
  42
0.0000
  0
VERTEX
  8
14
  10
172.1090
  20
-430.8280
  42
0.0000
  0
VERTEX
  8
14
  10
338.6660
  20
-410.6730
  42
0.0000
  0
VERTEX
  8
14
  10
498.2350
  20
-386.9700
  42
0.0000
  0
VERTEX
  8
14
  10
498.6040
  20
-391.0320
  42
0.0000
  0
VERTEX
  8
14
  10
499.2950
  20
-395.0520
  42
0.0000
  0
VERTEX
  8
14
  10
501.3510
  20
-403.9290
  42
0.0000
  0
VERTEX
  8
14
  10
503.7220
  20
-412.7280
  42
0.0000
  0
VERTEX
  8
14
  10
507.2720
  20
-421.1940
  42
0.0000
  0
VERTEX
  8
14
  10
511.2790
  20
-429.4520
  42
0.0000
  0
VERTEX
  8
14
  10
515.6410
  20
-437.3010
  42
0.0000
  0
VERTEX
  8
14
  10
520.4350
  20
-444.8930
  42
0.0000
  0
VERTEX
  8
14
  10
526.0830
  20
-452.8470
  42
0.0000
  0
VERTEX
  8
14
  10
532.0040
  20
-460.6000
  42
0.0000
  0
VERTEX
  8
14
  10
538.5680
  20
-468.6150
  42
0.0000
  0
VERTEX
  8
14
  10
545.3910
  20
-476.4100
  42
0.0000
  0
VERTEX
  8
14
  10
555.2540
  20
-486.8300
  42
0.0000
  0
VERTEX
  8
14
  10
585.0830
  20
-517.5530
  42
0.0000
  0
VERTEX
  8
14
  10
595.9370
  20
-533.2920
  42
0.0000
  0
VERTEX
  8
14
  10
605.0010
  20
-550.1250
  42
0.0000
  0
VERTEX
  8
14
  10
610.8500
  20
-565.0500
  42
0.0000
  0
VERTEX
  8
14
  10
614.6960
  20
-580.6120
  42
0.0000
  0
VERTEX
  8
14
  10
616.1370
  20
-587.5880
  42
0.0000
  0
VERTEX
  8
14
  10
617.1760
  20
-594.6360
  42
0.0000
  0
VERTEX
  8
14
  10
617.9220
  20
-602.6880
  42
0.0000
  0
VERTEX
  8
14
  10
618.2590
  20
-610.7680
  42
0.0000
  0
VERTEX
  8
14
  10
618.3680
  20
-615.8190
  42
0.0000
  0
VERTEX
  8
14
  10
618.2730
  20
-620.8710
  42
0.0000
  0
VERTEX
  8
14
  10
617.9740
  20
-625.8790
  42
0.0000
  0
VERTEX
  8
14
  10
617.4700
  20
-630.8700
  42
0.0000
  0
VERTEX
  8
14
  10
613.7690
  20
-650.9420
  42
0.0000
  0
VERTEX
  8
14
  10
608.6550
  20
-670.7010
  42
0.0000
  0
VERTEX
  8
14
  10
603.6180
  20
-685.1130
  42
0.0000
  0
VERTEX
  8
14
  10
597.2370
  20
-698.9830
  42
0.0000
  0
VERTEX
  8
14
  10
583.0730
  20
-720.6020
  42
0.0000
  0
VERTEX
  8
14
  10
578.4210
  20
-727.2590
  42
0.0000
  0
VERTEX
  8
14
  10
573.5930
  20
-733.7890
  42
0.0000
  0
VERTEX
  8
14
  10
544.8520
  20
-766.8620
  42
0.0000
  0
VERTEX
  8
14
  10
535.5310
  20
-778.2300
  42
0.0000
  0
VERTEX
  8
14
  10
526.4920
  20
-789.8230
  42
0.0000
  0
VERTEX
  8
14
  10
517.5170
  20
-802.0400
  42
0.0000
  0
VERTEX
  8
14
  10
510.1620
  20
-815.2960
  42
0.0000
  0
VERTEX
  8
14
  10
503.3190
  20
-831.9580
  42
0.0000
  0
SEQEND
  0
POLYLINE
  8
1
  66
1
  70
1
  0
VERTEX
  8
1
  10
505.7680
  20
-860.6510
  42
0.0000
  0
VERTEX
  8
1
  10
496.6340
  20
-859.1170
  42
0.0000
  0
VERTEX
  8
1
  10
337.4500
  20
-834.7540
  42
0.0000
  0
VERTEX
  8
1
  10
171.1380
  20
-815.7300
  42
0.0000
  0
VERTEX
  8
1
  10
162.1360
  20
-814.8270
  42
0.0000
  0
VERTEX
  8
1
  10
162.1080
  20
-421.8770
  42
0.0000
  0
VERTEX
  8
1
  10
171.0060
  20
-420.8900
  42
0.0000
  0
VERTEX
  8
1
  10
337.2990
  20
-400.7670
  42
0.0000
  0
VERTEX
  8
1
  10
496.6630
  20
-377.0940
  42
0.0000
  0
VERTEX
  8
1
  10
507.2260
  20
-375.4130
  42
0.0000
  0
VERTEX
  8
1
  10
508.1940
  20
-386.0650
  42
0.0000
  0
VERTEX
  8
1
  10
508.5130
  20
-389.5810
  42
0.0000
  0
VERTEX
  8
1
  10
509.1020
  20
-393.0770
  42
0.0000
  0
VERTEX
  8
1
  10
511.0170
  20
-401.3420
  42
0.0000
  0
VERTEX
  8
1
  10
513.2220
  20
-409.5470
  42
0.0000
  0
VERTEX
  8
1
  10
516.4810
  20
-417.2810
  42
0.0000
  0
VERTEX
  8
1
  10
520.1540
  20
-424.8410
  42
0.0000
  0
VERTEX
  8
1
  10
524.2250
  20
-432.1680
  42
0.0000
  0
VERTEX
  8
1
  10
528.7050
  20
-439.2670
  42
0.0000
  0
VERTEX
  8
1
  10
528.7051
  20
-439.2671
  42
0.0000
  0
VERTEX
  8
1
  10
534.1420
  20
-446.9240
  42
0.0000
  0
VERTEX
  8
1
  10
539.8490
  20
-454.3960
  42
0.0000
  0
VERTEX
  8
1
  10
546.1890
  20
-462.1390
  42
0.0000
  0
VERTEX
  8
1
  10
552.7880
  20
-469.6780
  42
0.0000
  0
VERTEX
  8
1
  10
562.4290
  20
-479.8650
  42
0.0000
  0
VERTEX
  8
1
  10
592.6810
  20
-511.0510
  42
0.0000
  0
VERTEX
  8
1
  10
592.9770
  20
-511.4430
  42
0.0000
  0
VERTEX
  8
1
  10
604.4670
  20
-528.0740
  42
0.0000
  0
VERTEX
  8
1
  10
614.0580
  20
-545.8860
  42
0.0000
  0
VERTEX
  8
1
  10
618.4770
  20
-556.5090
  42
0.0000
  0
VERTEX
  8
1
  10
621.9730
  20
-567.4790
  42
0.0000
  0
VERTEX
  8
1
  10
624.5040
  20
-578.7210
  42
0.0000
  0
VERTEX
  8
1
  10
625.9190
  20
-586.0620
  42
0.0000
  0
VERTEX
  8
1
  10
627.1060
  20
-593.4560
  42
0.0000
  0
VERTEX
  8
1
  10
627.8890
  20
-601.8820
  42
0.0000
  0
VERTEX
  8
1
  10
628.2340
  20
-610.3490
  42
0.0000
  0
VERTEX
  8
1
  10
628.2390
  20
-610.5180
  42
0.0000
  0
VERTEX
  8
1
  10
628.3680
  20
-615.8840
  42
0.0000
  0
VERTEX
  8
1
  10
628.2650
  20
-621.2640
  42
0.0000
  0
VERTEX
  8
1
  10
627.9370
  20
-626.7310
  42
0.0000
  0
VERTEX
  8
1
  10
627.3820
  20
-632.1920
  42
0.0000
  0
VERTEX
  8
1
  10
623.5450
  20
-653.0440
  42
0.0000
  0
VERTEX
  8
1
  10
618.2320
  20
-673.5780
  42
0.0000
  0
VERTEX
  8
1
  10
612.8190
  20
-689.0280
  42
0.0000
  0
VERTEX
  8
1
  10
605.9480
  20
-703.8930
  42
0.0000
  0
VERTEX
  8
1
  10
591.3310
  20
-726.2420
  42
0.0000
  0
VERTEX
  8
1
  10
586.4460
  20
-733.2250
  42
0.0000
  0
VERTEX
  8
1
  10
581.3680
  20
-740.0780
  42
0.0000
  0
VERTEX
  8
1
  10
552.5210
  20
-773.2810
  42
0.0000
  0
VERTEX
  8
1
  10
543.3010
  20
-784.5280
  42
0.0000
  0
VERTEX
  8
1
  10
534.3090
  20
-795.9680
  42
0.0000
  0
VERTEX
  8
1
  10
534.1160
  20
-796.2060
  42
0.0000
  0
VERTEX
  8
1
  10
525.9330
  20
-807.4440
  42
0.0000
  0
VERTEX
  8
1
  10
519.1900
  20
-819.5990
  42
0.0000
  0
VERTEX
  8
1
  10
512.7350
  20
-835.3310
  42
0.0000
  0
VERTEX
  8
1
  10
507.9960
  20
-851.6610
  42
0.0000
  0
SEQEND
  0
POINT
  8
2
  10
498.2900
  20
-849.2550
  0
POINT
  8
2
  10
338.7250
  20
-824.8360
  0
POINT
  8
2
  10
172.1350
  20
-805.7800
  0
POINT
  8
2
  10
172.1090
  20
-430.8280
  0
POINT
  8
2
  10
338.6660
  20
-410.6730
  0
POINT
  8
2
  10
498.2350
  20
-386.9700
  0
POINT
  8
3
  10
498.6040
  20
-391.0320
  0
POINT
  8
3
  10
499.2950
  20
-395.0520
  0
POINT
  8
3
  10
501.3510
  20
-403.9290
  0
POINT
  8
3
  10
503.7220
  20
-412.7280
  0
POINT
  8
3
  10
507.2720
  20
-421.1940
  0
POINT
  8
3
  10
511.2790
  20
-429.4520
  0
POINT
  8
3
  10
515.6410
  20
-437.3010
  0
POINT
  8
3
  10
520.4350
  20
-444.8930
  0
POINT
  8
3
  10
526.0830
  20
-452.8470
  0
POINT
  8
3
  10
532.0040
  20
-460.6000
  0
POINT
  8
3
  10
538.5680
  20
-468.6150
  0
POINT
  8
3
  10
545.3910
  20
-476.4100
  0
POINT
  8
3
  10
555.2540
  20
-486.8300
  0
POINT
  8
2
  10
585.0830
  20
-517.5530
  0
POINT
  8
3
  10
595.9370
  20
-533.2920
  0
POINT
  8
3
  10
605.0010
  20
-550.1250
  0
POINT
  8
3
  10
610.8500
  20
-565.0500
  0
POINT
  8
3
  10
614.6960
  20
-580.6120
  0
POINT
  8
3
  10
616.1370
  20
-587.5880
  0
POINT
  8
3
  10
617.1760
  20
-594.6360
  0
POINT
  8
3
  10
617.9220
  20
-602.6880
  0
POINT
  8
3
  10
618.2590
  20
-610.7680
  0
POINT
  8
3
  10
618.3680
  20
-615.8190
  0
POINT
  8
3
  10
618.2730
  20
-620.8710
  0
POINT
  8
3
  10
617.9740
  20
-625.8790
  0
POINT
  8
3
  10
617.4700
  20
-630.8700
  0
POINT
  8
3
  10
613.7690
  20
-650.9420
  0
POINT
  8
3
  10
608.6550
  20
-670.7010
  0
POINT
  8
3
  10
603.6180
  20
-685.1130
  0
POINT
  8
3
  10
597.2370
  20
-698.9830
  0
POINT
  8
3
  10
583.0730
  20
-720.6020
  0
POINT
  8
3
  10
578.4210
  20
-727.2590
  0
POINT
  8
2
  10
573.5930
  20
-733.7890
  0
POINT
  8
3
  10
544.8520
  20
-766.8620
  0
POINT
  8
3
  10
535.5310
  20
-778.2300
  0
POINT
  8
3
  10
526.4920
  20
-789.8230
  0
POINT
  8
3
  10
517.5170
  20
-802.0400
  0
POINT
  8
3
  10
510.1620
  20
-815.2960
  0
POINT
  8
3
  10
503.3190
  20
-831.9580
  0
POINT
  8
2
  10
505.7680
  20
-860.6510
  0
POINT
  8
2
  10
496.6340
  20
-859.1170
  0
POINT
  8
2
  10
337.4500
  20
-834.7540
  0
POINT
  8
2
  10
171.1380
  20
-815.7300
  0
POINT
  8
2
  10
162.1360
  20
-814.8270
  0
POINT
  8
2
  10
162.1080
  20
-421.8770
  0
POINT
  8
3
  10
171.0060
  20
-420.8900
  0
POINT
  8
2
  10
337.2990
  20
-400.7670
  0
POINT
  8
3
  10
496.6630
  20
-377.0940
  0
POINT
  8
2
  10
507.2260
  20
-375.4130
  0
POINT
  8
3
  10
508.1940
  20
-386.0650
  0
POINT
  8
3
  10
508.5130
  20
-389.5810
  0
POINT
  8
3
  10
509.1020
  20
-393.0770
  0
POINT
  8
3
  10
511.0170
  20
-401.3420
  0
POINT
  8
3
  10
513.2220
  20
-409.5470
  0
POINT
  8
3
  10
516.4810
  20
-417.2810
  0
POINT
  8
3
  10
520.1540
  20
-424.8410
  0
POINT
  8
3
  10
524.2250
  20
-432.1680
  0
POINT
  8
2
  10
528.7050
  20
-439.2670
  0
POINT
  8
2
  10
528.7051
  20
-439.2671
  0
POINT
  8
3
  10
534.1420
  20
-446.9240
  0
POINT
  8
3
  10
539.8490
  20
-454.3960
  0
POINT
  8
3
  10
546.1890
  20
-462.1390
  0
POINT
  8
3
  10
552.7880
  20
-469.6780
  0
POINT
  8
3
  10
562.4290
  20
-479.8650
  0
POINT
  8
2
  10
592.6810
  20
-511.0510
  0
POINT
  8
3
  10
592.9770
  20
-511.4430
  0
POINT
  8
3
  10
604.4670
  20
-528.0740
  0
POINT
  8
3
  10
614.0580
  20
-545.8860
  0
POINT
  8
3
  10
618.4770
  20
-556.5090
  0
POINT
  8
3
  10
621.9730
  20
-567.4790
  0
POINT
  8
3
  10
624.5040
  20
-578.7210
  0
POINT
  8
3
  10
625.9190
  20
-586.0620
  0
POINT
  8
3
  10
627.1060
  20
-593.4560
  0
POINT
  8
3
  10
627.8890
  20
-601.8820
  0
POINT
  8
3
  10
628.2340
  20
-610.3490
  0
POINT
  8
3
  10
628.2390
  20
-610.5180
  0
POINT
  8
3
  10
628.3680
  20
-615.8840
  0
POINT
  8
3
  10
628.2650
  20
-621.2640
  0
POINT
  8
3
  10
627.9370
  20
-626.7310
  0
POINT
  8
3
  10
627.3820
  20
-632.1920
  0
POINT
  8
3
  10
623.5450
  20
-653.0440
  0
POINT
  8
3
  10
618.2320
  20
-673.5780
  0
POINT
  8
3
  10
612.8190
  20
-689.0280
  0
POINT
  8
3
  10
605.9480
  20
-703.8930
  0
POINT
  8
3
  10
591.3310
  20
-726.2420
  0
POINT
  8
3
  10
586.4460
  20
-733.2250
  0
POINT
  8
2
  10
581.3680
  20
-740.0780
  0
POINT
  8
3
  10
552.5210
  20
-773.2810
  0
POINT
  8
3
  10
543.3010
  20
-784.5280
  0
POINT
  8
3
  10
534.3090
  20
-795.9680
  0
POINT
  8
3
  10
534.1160
  20
-796.2060
  0
POINT
  8
3
  10
525.9330
  20
-807.4440
  0
POINT
  8
3
  10
519.1900
  20
-819.5990
  0
POINT
  8
3
  10
512.7350
  20
-835.3310
  0
POINT
  8
3
  10
507.9960
  20
-851.6610
  0
POINT
  8
4
  10
528.7051
  20
-439.2671
  30
10.0000
  50
-145.6267
  0
POINT
  8
4
  10
592.9770
  20
-511.4430
  30
10.0000
  50
-142.2624
  0
POINT
  8
4
  10
628.2340
  20
-610.3490
  30
10.0000
  50
-177.5986
  0
POINT
  8
4
  10
534.1160
  20
-796.2060
  30
10.0000
  50
140.0625
  0
TEXT
  8
2
  10
498.2900
  20
-849.2550
  40
8.0000
  1
# 45
  0
TEXT
  8
14
  10
498.2900
  20
-849.2550
  40
8.0000
  1
# 45
  0
TEXT
  8
2
  10
172.1350
  20
-805.7800
  40
8.0000
  1
# 46
  0
TEXT
  8
14
  10
172.1350
  20
-805.7800
  40
8.0000
  1
# 46
  0
TEXT
  8
2
  10
172.1090
  20
-430.8280
  40
8.0000
  1
# 47
  0
TEXT
  8
14
  10
172.1090
  20
-430.8280
  40
8.0000
  1
# 47
  0
TEXT
  8
2
  10
498.2350
  20
-386.9700
  40
8.0000
  1
# 48
  0
TEXT
  8
14
  10
498.2350
  20
-386.9700
  40
8.0000
  1
# 48
  0
TEXT
  8
3
  10
520.4350
  20
-444.8930
  40
8.0000
  1
# 49
  0
TEXT
  8
14
  10
520.4350
  20
-444.8930
  40
8.0000
  1
# 49
  0
TEXT
  8
2
  10
585.0830
  20
-517.5530
  40
8.0000
  1
# 50
  0
TEXT
  8
14
  10
585.0830
  20
-517.5530
  40
8.0000
  1
# 50
  0
TEXT
  8
3
  10
618.2590
  20
-610.7680
  40
8.0000
  1
# 51
  0
TEXT
  8
14
  10
618.2590
  20
-610.7680
  40
8.0000
  1
# 51
  0
TEXT
  8
3
  10
526.4920
  20
-789.8230
  40
8.0000
  1
# 52
  0
TEXT
  8
14
  10
526.4920
  20
-789.8230
  40
8.0000
  1
# 52
  0
TEXT
  8
2
  10
505.7680
  20
-860.6510
  40
8.0000
  1
# 53
  0
TEXT
  8
1
  10
505.7680
  20
-860.6510
  40
8.0000
  1
# 53
  0
TEXT
  8
2
  10
496.6340
  20
-859.1170
  40
8.0000
  1
# 54
  0
TEXT
  8
1
  10
496.6340
  20
-859.1170
  40
8.0000
  1
# 54
  0
TEXT
  8
2
  10
171.1380
  20
-815.7300
  40
8.0000
  1
# 55
  0
TEXT
  8
1
  10
171.1380
  20
-815.7300
  40
8.0000
  1
# 55
  0
TEXT
  8
2
  10
162.1360
  20
-814.8270
  40
8.0000
  1
# 56
  0
TEXT
  8
1
  10
162.1360
  20
-814.8270
  40
8.0000
  1
# 56
  0
TEXT
  8
2
  10
162.1080
  20
-421.8770
  40
8.0000
  1
# 57
  0
TEXT
  8
1
  10
162.1080
  20
-421.8770
  40
8.0000
  1
# 57
  0
TEXT
  8
3
  10
171.0060
  20
-420.8900
  40
8.0000
  1
# 58
  0
TEXT
  8
1
  10
171.0060
  20
-420.8900
  40
8.0000
  1
# 58
  0
TEXT
  8
3
  10
496.6630
  20
-377.0940
  40
8.0000
  1
# 59
  0
TEXT
  8
1
  10
496.6630
  20
-377.0940
  40
8.0000
  1
# 59
  0
TEXT
  8
2
  10
507.2260
  20
-375.4130
  40
8.0000
  1
# 60
  0
TEXT
  8
1
  10
507.2260
  20
-375.4130
  40
8.0000
  1
# 60
  0
TEXT
  8
3
  10
508.1940
  20
-386.0650
  40
8.0000
  1
# 61
  0
TEXT
  8
1
  10
508.1940
  20
-386.0650
  40
8.0000
  1
# 61
  0
TEXT
  8
2
  10
528.7050
  20
-439.2670
  40
8.0000
  1
# 62
  0
TEXT
  8
1
  10
528.7050
  20
-439.2670
  40
8.0000
  1
# 62
  0
TEXT
  8
2
  10
528.7051
  20
-439.2671
  40
8.0000
  1
# 62
  0
TEXT
  8
1
  10
528.7051
  20
-439.2671
  40
8.0000
  1
# 62
  0
TEXT
  8
2
  10
592.6810
  20
-511.0510
  40
8.0000
  1
# 63
  0
TEXT
  8
1
  10
592.6810
  20
-511.0510
  40
8.0000
  1
# 63
  0
TEXT
  8
3
  10
592.9770
  20
-511.4430
  40
8.0000
  1
# 64
  0
TEXT
  8
1
  10
592.9770
  20
-511.4430
  40
8.0000
  1
# 64
  0
TEXT
  8
3
  10
624.5040
  20
-578.7210
  40
8.0000
  1
# 65
  0
TEXT
  8
1
  10
624.5040
  20
-578.7210
  40
8.0000
  1
# 65
  0
TEXT
  8
3
  10
628.2340
  20
-610.3490
  40
8.0000
  1
# 66
  0
TEXT
  8
1
  10
628.2340
  20
-610.3490
  40
8.0000
  1
# 66
  0
TEXT
  8
3
  10
628.2390
  20
-610.5180
  40
8.0000
  1
# 67
  0
TEXT
  8
1
  10
628.2390
  20
-610.5180
  40
8.0000
  1
# 67
  0
TEXT
  8
3
  10
627.3820
  20
-632.1920
  40
8.0000
  1
# 68
  0
TEXT
  8
1
  10
627.3820
  20
-632.1920
  40
8.0000
  1
# 68
  0
TEXT
  8
3
  10
534.3090
  20
-795.9680
  40
8.0000
  1
# 69
  0
TEXT
  8
1
  10
534.3090
  20
-795.9680
  40
8.0000
  1
# 69
  0
TEXT
  8
3
  10
534.1160
  20
-796.2060
  40
8.0000
  1
# 70
  0
TEXT
  8
1
  10
534.1160
  20
-796.2060
  40
8.0000
  1
# 70
  0
TEXT
  8
3
  10
507.9960
  20
-851.6610
  40
8.0000
  1
# 71
  0
TEXT
  8
1
  10
507.9960
  20
-851.6610
  40
8.0000
  1
# 71
  0
TEXT
  8
4
  10
528.7051
  20
-439.2671
  40
8.0000
  1
# 62
  0
TEXT
  8
4
  10
592.9770
  20
-511.4430
  40
8.0000
  1
# 64
  0
TEXT
  8
4
  10
628.2340
  20
-610.3490
  40
8.0000
  1
# 66
  0
TEXT
  8
4
  10
534.1160
  20
-796.2060
  40
8.0000
  1
# 70
  0
TEXT
  8
1
  10
162.1084
  20
-870.6514
  40
8.0000
  1
Piece Name: SLEEVE 2P
  0
TEXT
  8
1
  10
162.1084
  20
-880.6514
  40
8.0000
  1
Size: 42
  0
TEXT
  8
1
  10
162.1084
  20
-890.6514
  40
8.0000
  1
Quantity: 1
  0
TEXT
  8
1
  10
162.1084
  20
-900.6514
  40
8.0000
  1
Annotation: 
  0
TEXT
  8
1
  10
162.1084
  20
-910.6514
  40
8.0000
  1
Category: FABRIC
  0
LINE
  8
7
  10
257.7870
  20
-623.2480
  11
581.5030
  21
-623.2480
  0
ENDBLK
  0
BLOCK
  8
1
  2
BOTTOM_RIB_1P-S_42
  10
0.0000
  20
0.0000
70
0
  0
POLYLINE
  8
14
  66
1
  70
1
  0
VERTEX
  8
14
  10
-74.4140
  20
-59.5560
  42
0.0000
  0
VERTEX
  8
14
  10
-74.4140
  20
335.4440
  42
0.0000
  0
VERTEX
  8
14
  10
5.5860
  20
335.4440
  42
0.0000
  0
VERTEX
  8
14
  10
5.5860
  20
-454.5560
  42
0.0000
  0
VERTEX
  8
14
  10
-74.4140
  20
-454.5560
  42
0.0000
  0
SEQEND
  0
POLYLINE
  8
1
  66
1
  70
1
  0
VERTEX
  8
1
  10
-74.4140
  20
-59.5559
  42
0.0000
  0
VERTEX
  8
1
  10
-74.4140
  20
335.4441
  42
0.0000
  0
VERTEX
  8
1
  10
-74.4140
  20
345.4440
  42
0.0000
  0
VERTEX
  8
1
  10
15.5860
  20
345.4440
  42
0.0000
  0
VERTEX
  8
1
  10
15.5860
  20
175.3990
  42
0.0000
  0
VERTEX
  8
1
  10
15.5860
  20
-59.5560
  42
0.0000
  0
VERTEX
  8
1
  10
15.5860
  20
-294.5100
  42
0.0000
  0
VERTEX
  8
1
  10
15.5860
  20
-464.5560
  42
0.0000
  0
VERTEX
  8
1
  10
-74.4140
  20
-464.5560
  42
0.0000
  0
VERTEX
  8
1
  10
-74.4140
  20
-454.5559
  42
0.0000
  0
SEQEND
  0
POINT
  8
2
  10
-74.4140
  20
-59.5560
  0
POINT
  8
2
  10
-74.4140
  20
335.4440
  0
POINT
  8
2
  10
5.5860
  20
335.4440
  0
POINT
  8
2
  10
5.5860
  20
-454.5560
  0
POINT
  8
2
  10
-74.4140
  20
-454.5560
  0
POINT
  8
2
  10
-74.4140
  20
-59.5559
  0
POINT
  8
3
  10
-74.4140
  20
335.4441
  0
POINT
  8
2
  10
-74.4140
  20
345.4440
  0
POINT
  8
2
  10
15.5860
  20
345.4440
  0
POINT
  8
3
  10
15.5860
  20
175.3990
  0
POINT
  8
3
  10
15.5860
  20
-59.5560
  0
POINT
  8
3
  10
15.5860
  20
-294.5100
  0
POINT
  8
2
  10
15.5860
  20
-464.5560
  0
POINT
  8
2
  10
-74.4140
  20
-464.5560
  0
POINT
  8
3
  10
-74.4140
  20
-454.5559
  0
POINT
  8
4
  10
15.5860
  20
175.3990
  30
10.0000
  50
179.7381
  0
POINT
  8
4
  10
15.5860
  20
-59.5560
  30
10.0000
  50
180.0000
  0
POINT
  8
4
  10
15.5860
  20
-294.5100
  30
10.0000
  50
-179.7381
  0
TEXT
  8
2
  10
-74.4140
  20
-59.5560
  40
8.0000
  1
# 1
  0
TEXT
  8
14
  10
-74.4140
  20
-59.5560
  40
8.0000
  1
# 1
  0
TEXT
  8
2
  10
-74.4140
  20
335.4440
  40
8.0000
  1
# 72
  0
TEXT
  8
14
  10
-74.4140
  20
335.4440
  40
8.0000
  1
# 72
  0
TEXT
  8
2
  10
5.5860
  20
335.4440
  40
8.0000
  1
# 72
  0
TEXT
  8
14
  10
5.5860
  20
335.4440
  40
8.0000
  1
# 72
  0
TEXT
  8
2
  10
5.5860
  20
-454.5560
  40
8.0000
  1
# 73
  0
TEXT
  8
14
  10
5.5860
  20
-454.5560
  40
8.0000
  1
# 73
  0
TEXT
  8
2
  10
-74.4140
  20
-454.5560
  40
8.0000
  1
# 73
  0
TEXT
  8
14
  10
-74.4140
  20
-454.5560
  40
8.0000
  1
# 73
  0
TEXT
  8
2
  10
-74.4140
  20
-59.5559
  40
8.0000
  1
# 2
  0
TEXT
  8
1
  10
-74.4140
  20
-59.5559
  40
8.0000
  1
# 2
  0
TEXT
  8
3
  10
-74.4140
  20
335.4441
  40
8.0000
  1
# 72
  0
TEXT
  8
1
  10
-74.4140
  20
335.4441
  40
8.0000
  1
# 72
  0
TEXT
  8
2
  10
-74.4140
  20
345.4440
  40
8.0000
  1
# 72
  0
TEXT
  8
1
  10
-74.4140
  20
345.4440
  40
8.0000
  1
# 72
  0
TEXT
  8
2
  10
15.5860
  20
345.4440
  40
8.0000
  1
# 72
  0
TEXT
  8
1
  10
15.5860
  20
345.4440
  40
8.0000
  1
# 72
  0
TEXT
  8
3
  10
15.5860
  20
175.3990
  40
8.0000
  1
# 74
  0
TEXT
  8
1
  10
15.5860
  20
175.3990
  40
8.0000
  1
# 74
  0
TEXT
  8
3
  10
15.5860
  20
-59.5560
  40
8.0000
  1
# 1
  0
TEXT
  8
1
  10
15.5860
  20
-59.5560
  40
8.0000
  1
# 1
  0
TEXT
  8
3
  10
15.5860
  20
-294.5100
  40
8.0000
  1
# 75
  0
TEXT
  8
1
  10
15.5860
  20
-294.5100
  40
8.0000
  1
# 75
  0
TEXT
  8
2
  10
15.5860
  20
-464.5560
  40
8.0000
  1
# 73
  0
TEXT
  8
1
  10
15.5860
  20
-464.5560
  40
8.0000
  1
# 73
  0
TEXT
  8
2
  10
-74.4140
  20
-464.5560
  40
8.0000
  1
# 73
  0
TEXT
  8
1
  10
-74.4140
  20
-464.5560
  40
8.0000
  1
# 73
  0
TEXT
  8
3
  10
-74.4140
  20
-454.5559
  40
8.0000
  1
# 73
  0
TEXT
  8
1
  10
-74.4140
  20
-454.5559
  40
8.0000
  1
# 73
  0
TEXT
  8
4
  10
15.5860
  20
175.3990
  40
8.0000
  1
# 74
  0
TEXT
  8
4
  10
15.5860
  20
-59.5560
  40
8.0000
  1
# 1
  0
TEXT
  8
4
  10
15.5860
  20
-294.5100
  40
8.0000
  1
# 75
  0
TEXT
  8
19
  10
-66.3164
  20
101.2706
  40
6.0000
  1
KNIT END
  50
-90.0000
  51
0.00
  0
TEXT
  8
1
  10
-74.4135
  20
-474.5558
  40
8.0000
  1
Piece Name: BOTTOM RIB 1P
  0
TEXT
  8
1
  10
-74.4135
  20
-484.5558
  40
8.0000
  1
Size: 42
  0
TEXT
  8
1
  10
-74.4135
  20
-494.5558
  40
8.0000
  1
Quantity: 1
  0
TEXT
  8
1
  10
-74.4135
  20
-504.5558
  40
8.0000
  1
Annotation: 
  0
TEXT
  8
1
  10
-74.4135
  20
-514.5558
  40
8.0000
  1
Category: 
  0
LINE
  8
7
  10
-70.3370
  20
-59.5960
  11
-4.0470
  21
-59.5960
  0
ENDBLK
  0
BLOCK
  8
1
  2
RIB_COLLAR_1P-S_42
  10
0.0000
  20
0.0000
70
0
  0
POLYLINE
  8
14
  66
1
  70
1
  0
VERTEX
  8
14
  10
-17.8080
  20
-80.4780
  42
0.0000
  0
VERTEX
  8
14
  10
-17.8080
  20
16.5390
  42
0.0000
  0
VERTEX
  8
14
  10
-17.8080
  20
144.5220
  42
0.0000
  0
VERTEX
  8
14
  10
132.1920
  20
144.5220
  42
0.0000
  0
VERTEX
  8
14
  10
132.1920
  20
-305.4780
  42
0.0000
  0
VERTEX
  8
14
  10
-17.8080
  20
-305.4780
  42
0.0000
  0
VERTEX
  8
14
  10
-17.8080
  20
-177.4950
  42
0.0000
  0
SEQEND
  0
POLYLINE
  8
1
  66
1
  70
1
  0
VERTEX
  8
1
  10
-27.8080
  20
-80.4780
  42
0.0000
  0
VERTEX
  8
1
  10
-27.8080
  20
-80.4777
  42
0.0000
  0
VERTEX
  8
1
  10
-27.8080
  20
16.4250
  42
0.0000
  0
VERTEX
  8
1
  10
-27.8080
  20
154.5220
  42
0.0000
  0
VERTEX
  8
1
  10
132.1920
  20
154.5220
  42
0.0000
  0
VERTEX
  8
1
  10
132.1920
  20
-315.4780
  42
0.0000
  0
VERTEX
  8
1
  10
-27.8080
  20
-315.4780
  42
0.0000
  0
VERTEX
  8
1
  10
-27.8080
  20
-177.3810
  42
0.0000
  0
SEQEND
  0
POINT
  8
2
  10
-17.8080
  20
-80.4780
  0
POINT
  8
3
  10
-17.8080
  20
16.5390
  0
POINT
  8
2
  10
-17.8080
  20
144.5220
  0
POINT
  8
2
  10
132.1920
  20
144.5220
  0
POINT
  8
2
  10
132.1920
  20
-305.4780
  0
POINT
  8
2
  10
-17.8080
  20
-305.4780
  0
POINT
  8
3
  10
-17.8080
  20
-177.4950
  0
POINT
  8
2
  10
-27.8080
  20
-80.4780
  0
POINT
  8
2
  10
-27.8080
  20
-80.4777
  0
POINT
  8
3
  10
-27.8080
  20
16.4250
  0
POINT
  8
2
  10
-27.8080
  20
154.5220
  0
POINT
  8
2
  10
132.1920
  20
154.5220
  0
POINT
  8
2
  10
132.1920
  20
-315.4780
  0
POINT
  8
2
  10
-27.8080
  20
-315.4780
  0
POINT
  8
3
  10
-27.8080
  20
-177.3810
  0
POINT
  8
4
  10
-27.8080
  20
-80.4777
  30
10.0000
  50
0.0000
  0
POINT
  8
4
  10
-27.8080
  20
16.4250
  30
10.0000
  50
0.6514
  0
POINT
  8
4
  10
-27.8080
  20
-177.3810
  30
10.0000
  50
-0.6514
  0
TEXT
  8
2
  10
-17.8080
  20
-80.4780
  40
8.0000
  1
# 1
  0
TEXT
  8
14
  10
-17.8080
  20
-80.4780
  40
8.0000
  1
# 1
  0
TEXT
  8
3
  10
-17.8080
  20
16.5390
  40
8.0000
  1
# 76
  0
TEXT
  8
14
  10
-17.8080
  20
16.5390
  40
8.0000
  1
# 76
  0
TEXT
  8
2
  10
-17.8080
  20
144.5220
  40
8.0000
  1
# 77
  0
TEXT
  8
14
  10
-17.8080
  20
144.5220
  40
8.0000
  1
# 77
  0
TEXT
  8
2
  10
132.1920
  20
144.5220
  40
8.0000
  1
# 77
  0
TEXT
  8
14
  10
132.1920
  20
144.5220
  40
8.0000
  1
# 77
  0
TEXT
  8
2
  10
132.1920
  20
-305.4780
  40
8.0000
  1
# 78
  0
TEXT
  8
14
  10
132.1920
  20
-305.4780
  40
8.0000
  1
# 78
  0
TEXT
  8
2
  10
-17.8080
  20
-305.4780
  40
8.0000
  1
# 78
  0
TEXT
  8
14
  10
-17.8080
  20
-305.4780
  40
8.0000
  1
# 78
  0
TEXT
  8
3
  10
-17.8080
  20
-177.4950
  40
8.0000
  1
# 79
  0
TEXT
  8
14
  10
-17.8080
  20
-177.4950
  40
8.0000
  1
# 79
  0
TEXT
  8
2
  10
-27.8080
  20
-80.4780
  40
8.0000
  1
# 1
  0
TEXT
  8
1
  10
-27.8080
  20
-80.4780
  40
8.0000
  1
# 1
  0
TEXT
  8
2
  10
-27.8080
  20
-80.4777
  40
8.0000
  1
# 2
  0
TEXT
  8
1
  10
-27.8080
  20
-80.4777
  40
8.0000
  1
# 2
  0
TEXT
  8
3
  10
-27.8080
  20
16.4250
  40
8.0000
  1
# 76
  0
TEXT
  8
1
  10
-27.8080
  20
16.4250
  40
8.0000
  1
# 76
  0
TEXT
  8
2
  10
-27.8080
  20
154.5220
  40
8.0000
  1
# 77
  0
TEXT
  8
1
  10
-27.8080
  20
154.5220
  40
8.0000
  1
# 77
  0
TEXT
  8
2
  10
132.1920
  20
154.5220
  40
8.0000
  1
# 77
  0
TEXT
  8
1
  10
132.1920
  20
154.5220
  40
8.0000
  1
# 77
  0
TEXT
  8
2
  10
132.1920
  20
-315.4780
  40
8.0000
  1
# 78
  0
TEXT
  8
1
  10
132.1920
  20
-315.4780
  40
8.0000
  1
# 78
  0
TEXT
  8
2
  10
-27.8080
  20
-315.4780
  40
8.0000
  1
# 78
  0
TEXT
  8
1
  10
-27.8080
  20
-315.4780
  40
8.0000
  1
# 78
  0
TEXT
  8
3
  10
-27.8080
  20
-177.3810
  40
8.0000
  1
# 79
  0
TEXT
  8
1
  10
-27.8080
  20
-177.3810
  40
8.0000
  1
# 79
  0
TEXT
  8
4
  10
-27.8080
  20
-80.4777
  40
8.0000
  1
# 2
  0
TEXT
  8
4
  10
-27.8080
  20
16.4250
  40
8.0000
  1
# 76
  0
TEXT
  8
4
  10
-27.8080
  20
-177.3810
  40
8.0000
  1
# 79
  0
TEXT
  8
19
  10
126.4136
  20
-1.9807
  40
6.0000
  1
KNIT END
  50
90.0000
  51
0.00
  0
TEXT
  8
1
  10
-27.8081
  20
-325.4780
  40
8.0000
  1
Piece Name: RIB COLLAR 1P
  0
TEXT
  8
1
  10
-27.8081
  20
-335.4780
  40
8.0000
  1
Size: 42
  0
TEXT
  8
1
  10
-27.8081
  20
-345.4780
  40
8.0000
  1
Quantity: 1
  0
TEXT
  8
1
  10
-27.8081
  20
-355.4780
  40
8.0000
  1
Annotation: 
  0
TEXT
  8
1
  10
-27.8081
  20
-365.4780
  40
8.0000
  1
Category: 
  0
LINE
  8
7
  10
-1.5320
  20
-80.0850
  11
109.4120
  21
-80.0850
  0
ENDBLK
  0
BLOCK
  8
1
  2
FRONT_2P-S_42
  10
0.0000
  20
0.0000
70
0
  0
POLYLINE
  8
14
  66
1
  70
1
  0
VERTEX
  8
14
  10
-497.5850
  20
371.2360
  42
0.0000
  0
VERTEX
  8
14
  10
-417.6100
  20
371.2360
  42
0.0000
  0
VERTEX
  8
14
  10
7.5320
  20
371.2350
  42
0.0000
  0
VERTEX
  8
14
  10
9.0890
  20
363.5580
  42
0.0000
  0
VERTEX
  8
14
  10
11.4900
  20
356.1020
  42
0.0000
  0
VERTEX
  8
14
  10
14.7050
  20
348.9590
  42
0.0000
  0
VERTEX
  8
14
  10
18.9960
  20
341.7300
  42
0.0000
  0
VERTEX
  8
14
  10
24.0120
  20
334.9850
  42
0.0000
  0
VERTEX
  8
14
  10
29.6990
  20
328.7950
  42
0.0000
  0
VERTEX
  8
14
  10
36.4690
  20
322.8850
  42
0.0000
  0
VERTEX
  8
14
  10
43.6330
  20
317.4600
  42
0.0000
  0
VERTEX
  8
14
  10
49.7460
  20
313.5410
  42
0.0000
  0
VERTEX
  8
14
  10
56.1750
  20
310.1630
  42
0.0000
  0
VERTEX
  8
14
  10
50.5300
  20
301.3630
  42
0.0000
  0
VERTEX
  8
14
  10
44.6760
  20
292.7010
  42
0.0000
  0
VERTEX
  8
14
  10
29.2070
  20
271.2680
  42
0.0000
  0
VERTEX
  8
14
  10
23.3800
  20
263.4020
  42
0.0000
  0
VERTEX
  8
14
  10
17.5520
  20
255.5350
  42
0.0000
  0
VERTEX
  8
14
  10
3.6770
  20
237.6280
  42
0.0000
  0
VERTEX
  8
14
  10
-10.6190
  20
220.0540
  42
0.0000
  0
VERTEX
  8
14
  10
-30.1390
  20
197.5080
  42
0.0000
  0
VERTEX
  8
14
  10
-52.0080
  20
174.1110
  42
0.0000
  0
VERTEX
  8
14
  10
-64.7050
  20
175.8790
  42
0.0000
  0
VERTEX
  8
14
  10
-77.4990
  20
176.6800
  42
0.0000
  0
VERTEX
  8
14
  10
-90.3180
  20
176.5070
  42
0.0000
  0
VERTEX
  8
14
  10
-103.0860
  20
175.3620
  42
0.0000
  0
VERTEX
  8
14
  10
-114.2060
  20
173.4460
  42
0.0000
  0
VERTEX
  8
14
  10
-125.1200
  20
170.5780
  42
0.0000
  0
VERTEX
  8
14
  10
-135.7450
  20
166.7770
  42
0.0000
  0
VERTEX
  8
14
  10
-146.0010
  20
162.0740
  42
0.0000
  0
VERTEX
  8
14
  10
-150.9250
  20
157.8990
  42
0.0000
  0
VERTEX
  8
14
  10
-155.4370
  20
153.2820
  42
0.0000
  0
VERTEX
  8
14
  10
-159.4990
  20
148.2650
  42
0.0000
  0
VERTEX
  8
14
  10
-163.0740
  20
142.8900
  42
0.0000
  0
VERTEX
  8
14
  10
-166.1320
  20
137.2050
  42
0.0000
  0
VERTEX
  8
14
  10
-168.4260
  20
131.6890
  42
0.0000
  0
VERTEX
  8
14
  10
-170.1500
  20
125.9700
  42
0.0000
  0
VERTEX
  8
14
  10
-171.2860
  20
120.1070
  42
0.0000
  0
VERTEX
  8
14
  10
-171.8230
  20
114.1580
  42
0.0000
  0
VERTEX
  8
14
  10
-171.7550
  20
108.1850
  42
0.0000
  0
VERTEX
  8
14
  10
-398.0400
  20
92.0960
  42
0.0000
  0
VERTEX
  8
14
  10
-402.6860
  20
135.8590
  42
0.0000
  0
VERTEX
  8
14
  10
-409.3840
  20
192.8720
  42
0.0000
  0
VERTEX
  8
14
  10
-414.4710
  20
261.2940
  42
0.0000
  0
VERTEX
  8
14
  10
-415.6560
  20
286.2550
  42
0.0000
  0
VERTEX
  8
14
  10
-416.2990
  20
311.2360
  42
0.0000
  0
VERTEX
  8
14
  10
-495.9610
  20
311.2360
  42
0.0000
  0
SEQEND
  0
POLYLINE
  8
1
  66
1
  70
1
  0
VERTEX
  8
1
  10
-507.8590
  20
381.2360
  42
0.0000
  0
VERTEX
  8
1
  10
16.0220
  20
381.2350
  42
0.0000
  0
VERTEX
  8
1
  10
17.4000
  20
372.8570
  42
0.0000
  0
VERTEX
  8
1
  10
19.2960
  20
364.1830
  42
0.0000
  0
VERTEX
  8
1
  10
22.4470
  20
355.8580
  42
0.0000
  0
VERTEX
  8
1
  10
26.3720
  20
348.7190
  42
0.0000
  0
VERTEX
  8
1
  10
31.1190
  20
342.0720
  42
0.0000
  0
VERTEX
  8
1
  10
33.7910
  20
338.9720
  42
0.0000
  0
VERTEX
  8
1
  10
36.6220
  20
336.0170
  42
0.0000
  0
VERTEX
  8
1
  10
41.2420
  20
331.9400
  42
0.0000
  0
VERTEX
  8
1
  10
46.0420
  20
328.0830
  42
0.0000
  0
VERTEX
  8
1
  10
49.0130
  20
325.9140
  42
0.0000
  0
VERTEX
  8
1
  10
52.0490
  20
323.8530
  42
0.0000
  0
VERTEX
  8
1
  10
56.2770
  20
321.3560
  42
0.0000
  0
VERTEX
  8
1
  10
60.6350
  20
319.1130
  42
0.0000
  0
VERTEX
  8
1
  10
70.6090
  20
314.1430
  42
0.0000
  0
VERTEX
  8
1
  10
64.5920
  20
304.7630
  42
0.0000
  0
VERTEX
  8
1
  10
58.8500
  20
295.8170
  42
0.0000
  0
VERTEX
  8
1
  10
52.9010
  20
287.0140
  42
0.0000
  0
VERTEX
  8
1
  10
37.2600
  20
265.3390
  42
0.0000
  0
VERTEX
  8
1
  10
37.1760
  20
265.2270
  42
0.0000
  0
VERTEX
  8
1
  10
31.4060
  20
257.4380
  42
0.0000
  0
VERTEX
  8
1
  10
25.5520
  20
249.5360
  42
0.0000
  0
VERTEX
  8
1
  10
25.5519
  20
249.5359
  42
0.0000
  0
VERTEX
  8
1
  10
9.1550
  20
228.4800
  42
0.0000
  0
VERTEX
  8
1
  10
-7.7880
  20
207.8780
  42
0.0000
  0
VERTEX
  8
1
  10
-25.9800
  20
187.2400
  42
0.0000
  0
VERTEX
  8
1
  10
-44.7960
  20
167.1830
  42
0.0000
  0
VERTEX
  8
1
  10
-48.4160
  20
163.4160
  42
0.0000
  0
VERTEX
  8
1
  10
-53.5750
  20
164.2350
  42
0.0000
  0
VERTEX
  8
1
  10
-65.5610
  20
165.9110
  42
0.0000
  0
VERTEX
  8
1
  10
-77.6350
  20
166.6760
  42
0.0000
  0
VERTEX
  8
1
  10
-89.7330
  20
166.5210
  42
0.0000
  0
VERTEX
  8
1
  10
-101.7900
  20
165.4440
  42
0.0000
  0
VERTEX
  8
1
  10
-114.8430
  20
163.0100
  42
0.0000
  0
VERTEX
  8
1
  10
-127.5680
  20
159.1970
  42
0.0000
  0
VERTEX
  8
1
  10
-139.7810
  20
153.9860
  42
0.0000
  0
VERTEX
  8
1
  10
-140.5830
  20
153.5880
  42
0.0000
  0
VERTEX
  8
1
  10
-145.5760
  20
149.1470
  42
0.0000
  0
VERTEX
  8
1
  10
-150.0300
  20
144.1730
  42
0.0000
  0
VERTEX
  8
1
  10
-153.8920
  20
138.7260
  42
0.0000
  0
VERTEX
  8
1
  10
-157.1050
  20
132.8910
  42
0.0000
  0
VERTEX
  8
1
  10
-159.0160
  20
128.2350
  42
0.0000
  0
VERTEX
  8
1
  10
-160.4590
  20
123.4320
  42
0.0000
  0
VERTEX
  8
1
  10
-161.4030
  20
118.5060
  42
0.0000
  0
VERTEX
  8
1
  10
-161.8150
  20
113.5080
  42
0.0000
  0
VERTEX
  8
1
  10
-161.7600
  20
108.4970
  42
0.0000
  0
VERTEX
  8
1
  10
-161.4600
  20
98.8910
  42
0.0000
  0
VERTEX
  8
1
  10
-406.9950
  20
81.4340
  42
0.0000
  0
VERTEX
  8
1
  10
-407.9880
  20
91.0720
  42
0.0000
  0
VERTEX
  8
1
  10
-412.6200
  20
134.7160
  42
0.0000
  0
VERTEX
  8
1
  10
-419.3310
  20
191.8460
  42
0.0000
  0
VERTEX
  8
1
  10
-420.0800
  20
200.5140
  42
0.0000
  0
VERTEX
  8
1
  10
-420.8280
  20
209.1810
  42
0.0000
  0
VERTEX
  8
1
  10
-424.4570
  20
260.7660
  42
0.0000
  0
VERTEX
  8
1
  10
-426.0980
  20
301.2360
  42
0.0000
  0
VERTEX
  8
1
  10
-505.6950
  20
301.2360
  42
0.0000
  0
SEQEND
  0
POLYLINE
  8
8
  66
1
  70
0
  0
VERTEX
  8
8
  10
-202.4820
  20
210.3320
  42
0.0000
  0
VERTEX
  8
8
  10
-359.4670
  20
179.4180
  42
0.0000
  0
SEQEND
  0
POLYLINE
  8
8
  66
1
  70
0
  0
VERTEX
  8
8
  10
-207.3120
  20
234.8610
  42
0.0000
  0
VERTEX
  8
8
  10
-364.2970
  20
203.9460
  42
0.0000
  0
SEQEND
  0
POLYLINE
  8
8
  66
1
  70
0
  0
VERTEX
  8
8
  10
-207.3120
  20
234.8609
  42
0.0000
  0
VERTEX
  8
8
  10
-202.4820
  20
210.3321
  42
0.0000
  0
SEQEND
  0
POLYLINE
  8
8
  66
1
  70
0
  0
VERTEX
  8
8
  10
-364.2970
  20
203.9459
  42
0.0000
  0
VERTEX
  8
8
  10
-359.4670
  20
179.4181
  42
0.0000
  0
SEQEND
  0
POINT
  8
13
  10
-361.4360
  20
201.5540
  0
POINT
  8
13
  10
-204.7730
  20
213.0390
  0
POINT
  8
13
  10
-358.0280
  20
182.8170
  0
POINT
  8
13
  10
-209.8700
  20
231.2810
  0
POINT
  8
2
  10
-497.5850
  20
371.2360
  0
POINT
  8
3
  10
-417.6100
  20
371.2360
  0
POINT
  8
2
  10
7.5320
  20
371.2350
  0
POINT
  8
3
  10
9.0890
  20
363.5580
  0
POINT
  8
3
  10
11.4900
  20
356.1020
  0
POINT
  8
3
  10
14.7050
  20
348.9590
  0
POINT
  8
3
  10
18.9960
  20
341.7300
  0
POINT
  8
3
  10
24.0120
  20
334.9850
  0
POINT
  8
3
  10
29.6990
  20
328.7950
  0
POINT
  8
3
  10
36.4690
  20
322.8850
  0
POINT
  8
3
  10
43.6330
  20
317.4600
  0
POINT
  8
3
  10
49.7460
  20
313.5410
  0
POINT
  8
2
  10
56.1750
  20
310.1630
  0
POINT
  8
3
  10
50.5300
  20
301.3630
  0
POINT
  8
3
  10
44.6760
  20
292.7010
  0
POINT
  8
3
  10
29.2070
  20
271.2680
  0
POINT
  8
3
  10
23.3800
  20
263.4020
  0
POINT
  8
3
  10
17.5520
  20
255.5350
  0
POINT
  8
3
  10
3.6770
  20
237.6280
  0
POINT
  8
3
  10
-10.6190
  20
220.0540
  0
POINT
  8
3
  10
-30.1390
  20
197.5080
  0
POINT
  8
2
  10
-52.0080
  20
174.1110
  0
POINT
  8
3
  10
-64.7050
  20
175.8790
  0
POINT
  8
3
  10
-77.4990
  20
176.6800
  0
POINT
  8
3
  10
-90.3180
  20
176.5070
  0
POINT
  8
3
  10
-103.0860
  20
175.3620
  0
POINT
  8
3
  10
-114.2060
  20
173.4460
  0
POINT
  8
3
  10
-125.1200
  20
170.5780
  0
POINT
  8
3
  10
-135.7450
  20
166.7770
  0
POINT
  8
3
  10
-146.0010
  20
162.0740
  0
POINT
  8
3
  10
-150.9250
  20
157.8990
  0
POINT
  8
3
  10
-155.4370
  20
153.2820
  0
POINT
  8
3
  10
-159.4990
  20
148.2650
  0
POINT
  8
3
  10
-163.0740
  20
142.8900
  0
POINT
  8
3
  10
-166.1320
  20
137.2050
  0
POINT
  8
3
  10
-168.4260
  20
131.6890
  0
POINT
  8
3
  10
-170.1500
  20
125.9700
  0
POINT
  8
3
  10
-171.2860
  20
120.1070
  0
POINT
  8
3
  10
-171.8230
  20
114.1580
  0
POINT
  8
2
  10
-171.7550
  20
108.1850
  0
POINT
  8
2
  10
-398.0400
  20
92.0960
  0
POINT
  8
3
  10
-402.6860
  20
135.8590
  0
POINT
  8
3
  10
-409.3840
  20
192.8720
  0
POINT
  8
3
  10
-414.4710
  20
261.2940
  0
POINT
  8
3
  10
-415.6560
  20
286.2550
  0
POINT
  8
2
  10
-416.2990
  20
311.2360
  0
POINT
  8
2
  10
-495.9610
  20
311.2360
  0
POINT
  8
2
  10
-507.8590
  20
381.2360
  0
POINT
  8
2
  10
16.0220
  20
381.2350
  0
POINT
  8
3
  10
17.4000
  20
372.8570
  0
POINT
  8
3
  10
19.2960
  20
364.1830
  0
POINT
  8
3
  10
22.4470
  20
355.8580
  0
POINT
  8
3
  10
26.3720
  20
348.7190
  0
POINT
  8
3
  10
31.1190
  20
342.0720
  0
POINT
  8
3
  10
33.7910
  20
338.9720
  0
POINT
  8
3
  10
36.6220
  20
336.0170
  0
POINT
  8
3
  10
41.2420
  20
331.9400
  0
POINT
  8
3
  10
46.0420
  20
328.0830
  0
POINT
  8
3
  10
49.0130
  20
325.9140
  0
POINT
  8
3
  10
52.0490
  20
323.8530
  0
POINT
  8
3
  10
56.2770
  20
321.3560
  0
POINT
  8
3
  10
60.6350
  20
319.1130
  0
POINT
  8
2
  10
70.6090
  20
314.1430
  0
POINT
  8
3
  10
64.5920
  20
304.7630
  0
POINT
  8
3
  10
58.8500
  20
295.8170
  0
POINT
  8
3
  10
52.9010
  20
287.0140
  0
POINT
  8
3
  10
37.2600
  20
265.3390
  0
POINT
  8
3
  10
37.1760
  20
265.2270
  0
POINT
  8
3
  10
31.4060
  20
257.4380
  0
POINT
  8
2
  10
25.5520
  20
249.5360
  0
POINT
  8
2
  10
25.5519
  20
249.5359
  0
POINT
  8
3
  10
9.1550
  20
228.4800
  0
POINT
  8
3
  10
-7.7880
  20
207.8780
  0
POINT
  8
3
  10
-25.9800
  20
187.2400
  0
POINT
  8
3
  10
-44.7960
  20
167.1830
  0
POINT
  8
2
  10
-48.4160
  20
163.4160
  0
POINT
  8
3
  10
-53.5750
  20
164.2350
  0
POINT
  8
3
  10
-65.5610
  20
165.9110
  0
POINT
  8
3
  10
-77.6350
  20
166.6760
  0
POINT
  8
3
  10
-89.7330
  20
166.5210
  0
POINT
  8
3
  10
-101.7900
  20
165.4440
  0
POINT
  8
3
  10
-114.8430
  20
163.0100
  0
POINT
  8
3
  10
-127.5680
  20
159.1970
  0
POINT
  8
3
  10
-139.7810
  20
153.9860
  0
POINT
  8
2
  10
-140.5830
  20
153.5880
  0
POINT
  8
3
  10
-145.5760
  20
149.1470
  0
POINT
  8
3
  10
-150.0300
  20
144.1730
  0
POINT
  8
3
  10
-153.8920
  20
138.7260
  0
POINT
  8
3
  10
-157.1050
  20
132.8910
  0
POINT
  8
3
  10
-159.0160
  20
128.2350
  0
POINT
  8
3
  10
-160.4590
  20
123.4320
  0
POINT
  8
3
  10
-161.4030
  20
118.5060
  0
POINT
  8
3
  10
-161.8150
  20
113.5080
  0
POINT
  8
3
  10
-161.7600
  20
108.4970
  0
POINT
  8
2
  10
-161.4600
  20
98.8910
  0
POINT
  8
2
  10
-406.9950
  20
81.4340
  0
POINT
  8
3
  10
-407.9880
  20
91.0720
  0
POINT
  8
3
  10
-412.6200
  20
134.7160
  0
POINT
  8
3
  10
-419.3310
  20
191.8460
  0
POINT
  8
3
  10
-420.0800
  20
200.5140
  0
POINT
  8
3
  10
-420.8280
  20
209.1810
  0
POINT
  8
3
  10
-424.4570
  20
260.7660
  0
POINT
  8
2
  10
-426.0980
  20
301.2360
  0
POINT
  8
2
  10
-505.6950
  20
301.2360
  0
POINT
  8
4
  10
37.1760
  20
265.2270
  30
10.0000
  50
142.8346
  0
POINT
  8
4
  10
25.5519
  20
249.5359
  30
10.0000
  50
143.1836
  0
POINT
  8
4
  10
-139.7810
  20
153.9860
  30
10.0000
  50
127.5657
  0
POINT
  8
2
  10
-202.4820
  20
210.3320
  0
POINT
  8
2
  10
-359.4670
  20
179.4180
  0
POINT
  8
2
  10
-207.3120
  20
234.8610
  0
POINT
  8
2
  10
-364.2970
  20
203.9460
  0
POINT
  8
2
  10
-207.3120
  20
234.8609
  0
POINT
  8
2
  10
-202.4820
  20
210.3321
  0
POINT
  8
2
  10
-364.2970
  20
203.9459
  0
POINT
  8
2
  10
-359.4670
  20
179.4181
  0
TEXT
  8
13
  10
-361.4360
  20
201.5540
  40
8.0000
  1
# 80
  0
TEXT
  8
13
  10
-204.7730
  20
213.0390
  40
8.0000
  1
# 81
  0
TEXT
  8
13
  10
-358.0280
  20
182.8170
  40
8.0000
  1
# 80
  0
TEXT
  8
13
  10
-209.8700
  20
231.2810
  40
8.0000
  1
# 82
  0
TEXT
  8
2
  10
-497.5850
  20
371.2360
  40
8.0000
  1
# 4
  0
TEXT
  8
14
  10
-497.5850
  20
371.2360
  40
8.0000
  1
# 4
  0
TEXT
  8
3
  10
-417.6100
  20
371.2360
  40
8.0000
  1
# 1
  0
TEXT
  8
14
  10
-417.6100
  20
371.2360
  40
8.0000
  1
# 1
  0
TEXT
  8
2
  10
7.5320
  20
371.2350
  40
8.0000
  1
# 51
  0
TEXT
  8
14
  10
7.5320
  20
371.2350
  40
8.0000
  1
# 51
  0
TEXT
  8
2
  10
56.1750
  20
310.1630
  40
8.0000
  1
# 83
  0
TEXT
  8
14
  10
56.1750
  20
310.1630
  40
8.0000
  1
# 83
  0
TEXT
  8
2
  10
-52.0080
  20
174.1110
  40
8.0000
  1
# 84
  0
TEXT
  8
14
  10
-52.0080
  20
174.1110
  40
8.0000
  1
# 84
  0
TEXT
  8
3
  10
-146.0010
  20
162.0740
  40
8.0000
  1
# 85
  0
TEXT
  8
14
  10
-146.0010
  20
162.0740
  40
8.0000
  1
# 85
  0
TEXT
  8
2
  10
-171.7550
  20
108.1850
  40
8.0000
  1
# 14
  0
TEXT
  8
14
  10
-171.7550
  20
108.1850
  40
8.0000
  1
# 14
  0
TEXT
  8
2
  10
-398.0400
  20
92.0960
  40
8.0000
  1
# 86
  0
TEXT
  8
14
  10
-398.0400
  20
92.0960
  40
8.0000
  1
# 86
  0
TEXT
  8
2
  10
-416.2990
  20
311.2360
  40
8.0000
  1
# 4
  0
TEXT
  8
14
  10
-416.2990
  20
311.2360
  40
8.0000
  1
# 4
  0
TEXT
  8
2
  10
-495.9610
  20
311.2360
  40
8.0000
  1
# 87
  0
TEXT
  8
14
  10
-495.9610
  20
311.2360
  40
8.0000
  1
# 87
  0
TEXT
  8
2
  10
-507.8590
  20
381.2360
  40
8.0000
  1
# 4
  0
TEXT
  8
1
  10
-507.8590
  20
381.2360
  40
8.0000
  1
# 4
  0
TEXT
  8
2
  10
16.0220
  20
381.2350
  40
8.0000
  1
# 88
  0
TEXT
  8
1
  10
16.0220
  20
381.2350
  40
8.0000
  1
# 88
  0
TEXT
  8
3
  10
17.4000
  20
372.8570
  40
8.0000
  1
# 89
  0
TEXT
  8
1
  10
17.4000
  20
372.8570
  40
8.0000
  1
# 89
  0
TEXT
  8
3
  10
60.6350
  20
319.1130
  40
8.0000
  1
# 90
  0
TEXT
  8
1
  10
60.6350
  20
319.1130
  40
8.0000
  1
# 90
  0
TEXT
  8
2
  10
70.6090
  20
314.1430
  40
8.0000
  1
# 91
  0
TEXT
  8
1
  10
70.6090
  20
314.1430
  40
8.0000
  1
# 91
  0
TEXT
  8
3
  10
64.5920
  20
304.7630
  40
8.0000
  1
# 92
  0
TEXT
  8
1
  10
64.5920
  20
304.7630
  40
8.0000
  1
# 92
  0
TEXT
  8
3
  10
37.1760
  20
265.2270
  40
8.0000
  1
# 93
  0
TEXT
  8
1
  10
37.1760
  20
265.2270
  40
8.0000
  1
# 93
  0
TEXT
  8
2
  10
25.5519
  20
249.5359
  40
8.0000
  1
# 94
  0
TEXT
  8
1
  10
25.5519
  20
249.5359
  40
8.0000
  1
# 94
  0
TEXT
  8
3
  10
-44.7960
  20
167.1830
  40
8.0000
  1
# 95
  0
TEXT
  8
1
  10
-44.7960
  20
167.1830
  40
8.0000
  1
# 95
  0
TEXT
  8
2
  10
-48.4160
  20
163.4160
  40
8.0000
  1
# 96
  0
TEXT
  8
1
  10
-48.4160
  20
163.4160
  40
8.0000
  1
# 96
  0
TEXT
  8
3
  10
-53.5750
  20
164.2350
  40
8.0000
  1
# 97
  0
TEXT
  8
1
  10
-53.5750
  20
164.2350
  40
8.0000
  1
# 97
  0
TEXT
  8
3
  10
-139.7810
  20
153.9860
  40
8.0000
  1
# 98
  0
TEXT
  8
1
  10
-139.7810
  20
153.9860
  40
8.0000
  1
# 98
  0
TEXT
  8
2
  10
-140.5830
  20
153.5880
  40
8.0000
  1
# 99
  0
TEXT
  8
1
  10
-140.5830
  20
153.5880
  40
8.0000
  1
# 99
  0
TEXT
  8
3
  10
-161.7600
  20
108.4970
  40
8.0000
  1
# 100
  0
TEXT
  8
1
  10
-161.7600
  20
108.4970
  40
8.0000
  1
# 100
  0
TEXT
  8
2
  10
-161.4600
  20
98.8910
  40
8.0000
  1
# 101
  0
TEXT
  8
1
  10
-161.4600
  20
98.8910
  40
8.0000
  1
# 101
  0
TEXT
  8
2
  10
-406.9950
  20
81.4340
  40
8.0000
  1
# 102
  0
TEXT
  8
1
  10
-406.9950
  20
81.4340
  40
8.0000
  1
# 102
  0
TEXT
  8
3
  10
-407.9880
  20
91.0720
  40
8.0000
  1
# 103
  0
TEXT
  8
1
  10
-407.9880
  20
91.0720
  40
8.0000
  1
# 103
  0
TEXT
  8
2
  10
-426.0980
  20
301.2360
  40
8.0000
  1
# 104
  0
TEXT
  8
1
  10
-426.0980
  20
301.2360
  40
8.0000
  1
# 104
  0
TEXT
  8
2
  10
-505.6950
  20
301.2360
  40
8.0000
  1
# 4
  0
TEXT
  8
1
  10
-505.6950
  20
301.2360
  40
8.0000
  1
# 4
  0
TEXT
  8
4
  10
37.1760
  20
265.2270
  40
8.0000
  1
# 93
  0
TEXT
  8
4
  10
25.5519
  20
249.5359
  40
8.0000
  1
# 94
  0
TEXT
  8
4
  10
-139.7810
  20
153.9860
  40
8.0000
  1
# 98
  0
TEXT
  8
2
  10
-202.4820
  20
210.3320
  40
8.0000
  1
# 105
  0
TEXT
  8
8
  10
-202.4820
  20
210.3320
  40
8.0000
  1
# 105
  0
TEXT
  8
2
  10
-359.4670
  20
179.4180
  40
8.0000
  1
# 106
  0
TEXT
  8
8
  10
-359.4670
  20
179.4180
  40
8.0000
  1
# 106
  0
TEXT
  8
2
  10
-207.3120
  20
234.8610
  40
8.0000
  1
# 107
  0
TEXT
  8
8
  10
-207.3120
  20
234.8610
  40
8.0000
  1
# 107
  0
TEXT
  8
2
  10
-364.2970
  20
203.9460
  40
8.0000
  1
# 108
  0
TEXT
  8
8
  10
-364.2970
  20
203.9460
  40
8.0000
  1
# 108
  0
TEXT
  8
2
  10
-207.3120
  20
234.8609
  40
8.0000
  1
# 107
  0
TEXT
  8
8
  10
-207.3120
  20
234.8609
  40
8.0000
  1
# 107
  0
TEXT
  8
2
  10
-202.4820
  20
210.3321
  40
8.0000
  1
# 105
  0
TEXT
  8
8
  10
-202.4820
  20
210.3321
  40
8.0000
  1
# 105
  0
TEXT
  8
2
  10
-364.2970
  20
203.9459
  40
8.0000
  1
# 108
  0
TEXT
  8
8
  10
-364.2970
  20
203.9459
  40
8.0000
  1
# 108
  0
TEXT
  8
2
  10
-359.4670
  20
179.4181
  40
8.0000
  1
# 106
  0
TEXT
  8
8
  10
-359.4670
  20
179.4181
  40
8.0000
  1
# 106
  0
TEXT
  8
19
  10
-199.3074
  20
366.9897
  40
6.0000
  1
ZIP+PIPING
  50
179.9996
  51
0.00
  0
TEXT
  8
1
  10
-507.8587
  20
71.4306
  40
8.0000
  1
Piece Name: FRONT 2P
  0
TEXT
  8
1
  10
-507.8587
  20
61.4306
  40
8.0000
  1
Size: 42
  0
TEXT
  8
1
  10
-507.8587
  20
51.4306
  40
8.0000
  1
Quantity: 1
  0
TEXT
  8
1
  10
-507.8587
  20
41.4306
  40
8.0000
  1
Annotation: 
  0
TEXT
  8
1
  10
-507.8587
  20
31.4306
  40
8.0000
  1
Category: 
  0
LINE
  8
7
  10
-468.4110
  20
378.2360
  11
-56.2950
  21
378.2360
  0
ENDBLK
  0
BLOCK
  8
1
  2
SHOULDER_FR_2P-S_42
  10
0.0000
  20
0.0000
70
0
  0
POLYLINE
  8
14
  66
1
  70
1
  0
VERTEX
  8
14
  10
42.8090
  20
141.0200
  42
0.0000
  0
VERTEX
  8
14
  10
31.1770
  20
148.5070
  42
0.0000
  0
VERTEX
  8
14
  10
18.8970
  20
154.8740
  42
0.0000
  0
VERTEX
  8
14
  10
6.0760
  20
160.0670
  42
0.0000
  0
VERTEX
  8
14
  10
-12.9690
  20
165.9990
  42
0.0000
  0
VERTEX
  8
14
  10
-32.3560
  20
170.6880
  42
0.0000
  0
VERTEX
  8
14
  10
-52.0060
  20
174.1140
  42
0.0000
  0
VERTEX
  8
14
  10
-30.1380
  20
197.5120
  42
0.0000
  0
VERTEX
  8
14
  10
-10.6170
  20
220.0580
  42
0.0000
  0
VERTEX
  8
14
  10
3.6780
  20
237.6320
  42
0.0000
  0
VERTEX
  8
14
  10
17.5530
  20
255.5390
  42
0.0000
  0
VERTEX
  8
14
  10
23.3800
  20
263.4050
  42
0.0000
  0
VERTEX
  8
14
  10
29.2080
  20
271.2720
  42
0.0000
  0
VERTEX
  8
14
  10
44.6770
  20
292.7050
  42
0.0000
  0
VERTEX
  8
14
  10
50.5300
  20
301.3680
  42
0.0000
  0
VERTEX
  8
14
  10
56.1740
  20
310.1680
  42
0.0000
  0
VERTEX
  8
14
  10
66.1300
  20
305.8070
  42
0.0000
  0
VERTEX
  8
14
  10
76.5220
  20
302.6220
  42
0.0000
  0
VERTEX
  8
14
  10
88.4140
  20
300.3620
  42
0.0000
  0
VERTEX
  8
14
  10
100.4760
  20
299.3440
  42
0.0000
  0
VERTEX
  8
14
  10
98.0170
  20
288.8570
  42
0.0000
  0
VERTEX
  8
14
  10
94.2210
  20
274.3460
  42
0.0000
  0
VERTEX
  8
14
  10
91.8620
  20
265.6580
  42
0.0000
  0
VERTEX
  8
14
  10
89.5030
  20
256.9690
  42
0.0000
  0
VERTEX
  8
14
  10
86.7210
  20
247.0360
  42
0.0000
  0
VERTEX
  8
14
  10
83.7400
  20
237.1600
  42
0.0000
  0
VERTEX
  8
14
  10
80.5630
  20
227.3450
  42
0.0000
  0
VERTEX
  8
14
  10
77.1900
  20
217.5960
  42
0.0000
  0
VERTEX
  8
14
  10
73.1970
  20
205.4020
  42
0.0000
  0
VERTEX
  8
14
  10
68.6960
  20
193.3860
  42
0.0000
  0
VERTEX
  8
14
  10
63.5650
  20
181.2470
  42
0.0000
  0
VERTEX
  8
14
  10
57.9420
  20
169.3280
  42
0.0000
  0
VERTEX
  8
14
  10
54.4750
  20
161.9240
  42
0.0000
  0
VERTEX
  8
14
  10
50.7490
  20
154.6480
  42
0.0000
  0
VERTEX
  8
14
  10
46.9040
  20
147.7610
  42
0.0000
  0
SEQEND
  0
POLYLINE
  8
1
  66
1
  70
1
  0
VERTEX
  8
1
  10
45.7790
  20
126.8330
  42
0.0000
  0
VERTEX
  8
1
  10
37.1380
  20
132.7840
  42
0.0000
  0
VERTEX
  8
1
  10
26.2500
  20
139.8030
  42
0.0000
  0
VERTEX
  8
1
  10
14.7540
  20
145.7730
  42
0.0000
  0
VERTEX
  8
1
  10
2.7510
  20
150.6350
  42
0.0000
  0
VERTEX
  8
1
  10
-25.0470
  20
158.8190
  42
0.0000
  0
VERTEX
  8
1
  10
-53.5110
  20
164.2280
  42
0.0000
  0
VERTEX
  8
1
  10
-72.4760
  20
167.1150
  42
0.0000
  0
VERTEX
  8
1
  10
-59.2490
  20
181.0090
  42
0.0000
  0
VERTEX
  8
1
  10
-43.3250
  20
197.9310
  42
0.0000
  0
VERTEX
  8
1
  10
-27.8250
  20
215.2370
  42
0.0000
  0
VERTEX
  8
1
  10
-8.8980
  20
237.9460
  42
0.0000
  0
VERTEX
  8
1
  10
9.3120
  20
261.2260
  42
0.0000
  0
VERTEX
  8
1
  10
9.5610
  20
261.5500
  42
0.0000
  0
VERTEX
  8
1
  10
15.3540
  20
269.3890
  42
0.0000
  0
VERTEX
  8
1
  10
20.7980
  20
276.7560
  42
0.0000
  0
VERTEX
  8
1
  10
21.1470
  20
277.2290
  42
0.0000
  0
VERTEX
  8
1
  10
28.9090
  20
287.7330
  42
0.0000
  0
VERTEX
  8
1
  10
36.4510
  20
298.3930
  42
0.0000
  0
VERTEX
  8
1
  10
42.2070
  20
306.9140
  42
0.0000
  0
VERTEX
  8
1
  10
47.7560
  20
315.5670
  42
0.0000
  0
VERTEX
  8
1
  10
52.5020
  20
322.9670
  42
0.0000
  0
VERTEX
  8
1
  10
60.4490
  20
319.2080
  42
0.0000
  0
VERTEX
  8
1
  10
69.4860
  20
315.2360
  42
0.0000
  0
VERTEX
  8
1
  10
78.9120
  20
312.3360
  42
0.0000
  0
VERTEX
  8
1
  10
89.9130
  20
310.2570
  42
0.0000
  0
VERTEX
  8
1
  10
101.0580
  20
309.3270
  42
0.0000
  0
VERTEX
  8
1
  10
112.9250
  20
308.6350
  42
0.0000
  0
VERTEX
  8
1
  10
110.2120
  20
297.0610
  42
0.0000
  0
VERTEX
  8
1
  10
107.7230
  20
286.4500
  42
0.0000
  0
VERTEX
  8
1
  10
103.8800
  20
271.7560
  42
0.0000
  0
VERTEX
  8
1
  10
93.2830
  20
234.1720
  42
0.0000
  0
VERTEX
  8
1
  10
80.3330
  20
195.7560
  42
0.0000
  0
VERTEX
  8
1
  10
73.1980
  20
178.3230
  42
0.0000
  0
VERTEX
  8
1
  10
65.2480
  20
161.2640
  42
0.0000
  0
VERTEX
  8
1
  10
58.6530
  20
148.2980
  42
0.0000
  0
VERTEX
  8
1
  10
51.3080
  20
135.7510
  42
0.0000
  0
SEQEND
  0
POINT
  8
2
  10
42.8090
  20
141.0200
  0
POINT
  8
3
  10
31.1770
  20
148.5070
  0
POINT
  8
3
  10
18.8970
  20
154.8740
  0
POINT
  8
3
  10
6.0760
  20
160.0670
  0
POINT
  8
3
  10
-12.9690
  20
165.9990
  0
POINT
  8
3
  10
-32.3560
  20
170.6880
  0
POINT
  8
2
  10
-52.0060
  20
174.1140
  0
POINT
  8
3
  10
-30.1380
  20
197.5120
  0
POINT
  8
3
  10
-10.6170
  20
220.0580
  0
POINT
  8
3
  10
3.6780
  20
237.6320
  0
POINT
  8
3
  10
17.5530
  20
255.5390
  0
POINT
  8
3
  10
23.3800
  20
263.4050
  0
POINT
  8
3
  10
29.2080
  20
271.2720
  0
POINT
  8
3
  10
44.6770
  20
292.7050
  0
POINT
  8
3
  10
50.5300
  20
301.3680
  0
POINT
  8
2
  10
56.1740
  20
310.1680
  0
POINT
  8
3
  10
66.1300
  20
305.8070
  0
POINT
  8
3
  10
76.5220
  20
302.6220
  0
POINT
  8
3
  10
88.4140
  20
300.3620
  0
POINT
  8
2
  10
100.4760
  20
299.3440
  0
POINT
  8
3
  10
98.0170
  20
288.8570
  0
POINT
  8
3
  10
94.2210
  20
274.3460
  0
POINT
  8
3
  10
91.8620
  20
265.6580
  0
POINT
  8
3
  10
89.5030
  20
256.9690
  0
POINT
  8
3
  10
86.7210
  20
247.0360
  0
POINT
  8
3
  10
83.7400
  20
237.1600
  0
POINT
  8
3
  10
80.5630
  20
227.3450
  0
POINT
  8
3
  10
77.1900
  20
217.5960
  0
POINT
  8
3
  10
73.1970
  20
205.4020
  0
POINT
  8
3
  10
68.6960
  20
193.3860
  0
POINT
  8
3
  10
63.5650
  20
181.2470
  0
POINT
  8
3
  10
57.9420
  20
169.3280
  0
POINT
  8
3
  10
54.4750
  20
161.9240
  0
POINT
  8
3
  10
50.7490
  20
154.6480
  0
POINT
  8
3
  10
46.9040
  20
147.7610
  0
POINT
  8
2
  10
45.7790
  20
126.8330
  0
POINT
  8
3
  10
37.1380
  20
132.7840
  0
POINT
  8
3
  10
26.2500
  20
139.8030
  0
POINT
  8
3
  10
14.7540
  20
145.7730
  0
POINT
  8
3
  10
2.7510
  20
150.6350
  0
POINT
  8
3
  10
-25.0470
  20
158.8190
  0
POINT
  8
3
  10
-53.5110
  20
164.2280
  0
POINT
  8
2
  10
-72.4760
  20
167.1150
  0
POINT
  8
3
  10
-59.2490
  20
181.0090
  0
POINT
  8
3
  10
-43.3250
  20
197.9310
  0
POINT
  8
3
  10
-27.8250
  20
215.2370
  0
POINT
  8
3
  10
-8.8980
  20
237.9460
  0
POINT
  8
3
  10
9.3120
  20
261.2260
  0
POINT
  8
3
  10
9.5610
  20
261.5500
  0
POINT
  8
3
  10
15.3540
  20
269.3890
  0
POINT
  8
3
  10
20.7980
  20
276.7560
  0
POINT
  8
3
  10
21.1470
  20
277.2290
  0
POINT
  8
3
  10
28.9090
  20
287.7330
  0
POINT
  8
3
  10
36.4510
  20
298.3930
  0
POINT
  8
3
  10
42.2070
  20
306.9140
  0
POINT
  8
3
  10
47.7560
  20
315.5670
  0
POINT
  8
2
  10
52.5020
  20
322.9670
  0
POINT
  8
3
  10
60.4490
  20
319.2080
  0
POINT
  8
3
  10
69.4860
  20
315.2360
  0
POINT
  8
3
  10
78.9120
  20
312.3360
  0
POINT
  8
3
  10
89.9130
  20
310.2570
  0
POINT
  8
3
  10
101.0580
  20
309.3270
  0
POINT
  8
2
  10
112.9250
  20
308.6350
  0
POINT
  8
3
  10
110.2120
  20
297.0610
  0
POINT
  8
3
  10
107.7230
  20
286.4500
  0
POINT
  8
3
  10
103.8800
  20
271.7560
  0
POINT
  8
3
  10
93.2830
  20
234.1720
  0
POINT
  8
3
  10
80.3330
  20
195.7560
  0
POINT
  8
3
  10
73.1980
  20
178.3230
  0
POINT
  8
3
  10
65.2480
  20
161.2640
  0
POINT
  8
3
  10
58.6530
  20
148.2980
  0
POINT
  8
3
  10
51.3080
  20
135.7510
  0
POINT
  8
4
  10
9.3120
  20
261.2260
  30
10.0000
  50
-34.6069
  0
POINT
  8
4
  10
20.7980
  20
276.7560
  30
10.0000
  50
-33.1100
  0
TEXT
  8
2
  10
42.8090
  20
141.0200
  40
8.0000
  1
# 11
  0
TEXT
  8
14
  10
42.8090
  20
141.0200
  40
8.0000
  1
# 11
  0
TEXT
  8
2
  10
-52.0060
  20
174.1140
  40
8.0000
  1
# 109
  0
TEXT
  8
14
  10
-52.0060
  20
174.1140
  40
8.0000
  1
# 109
  0
TEXT
  8
2
  10
56.1740
  20
310.1680
  40
8.0000
  1
# 110
  0
TEXT
  8
14
  10
56.1740
  20
310.1680
  40
8.0000
  1
# 110
  0
TEXT
  8
2
  10
100.4760
  20
299.3440
  40
8.0000
  1
# 110
  0
TEXT
  8
14
  10
100.4760
  20
299.3440
  40
8.0000
  1
# 110
  0
TEXT
  8
2
  10
45.7790
  20
126.8330
  40
8.0000
  1
# 111
  0
TEXT
  8
1
  10
45.7790
  20
126.8330
  40
8.0000
  1
# 111
  0
TEXT
  8
3
  10
37.1380
  20
132.7840
  40
8.0000
  1
# 112
  0
TEXT
  8
1
  10
37.1380
  20
132.7840
  40
8.0000
  1
# 112
  0
TEXT
  8
3
  10
-53.5110
  20
164.2280
  40
8.0000
  1
# 113
  0
TEXT
  8
1
  10
-53.5110
  20
164.2280
  40
8.0000
  1
# 113
  0
TEXT
  8
2
  10
-72.4760
  20
167.1150
  40
8.0000
  1
# 114
  0
TEXT
  8
1
  10
-72.4760
  20
167.1150
  40
8.0000
  1
# 114
  0
TEXT
  8
3
  10
-59.2490
  20
181.0090
  40
8.0000
  1
# 115
  0
TEXT
  8
1
  10
-59.2490
  20
181.0090
  40
8.0000
  1
# 115
  0
TEXT
  8
3
  10
9.3120
  20
261.2260
  40
8.0000
  1
# 116
  0
TEXT
  8
1
  10
9.3120
  20
261.2260
  40
8.0000
  1
# 116
  0
TEXT
  8
3
  10
20.7980
  20
276.7560
  40
8.0000
  1
# 117
  0
TEXT
  8
1
  10
20.7980
  20
276.7560
  40
8.0000
  1
# 117
  0
TEXT
  8
3
  10
47.7560
  20
315.5670
  40
8.0000
  1
# 118
  0
TEXT
  8
1
  10
47.7560
  20
315.5670
  40
8.0000
  1
# 118
  0
TEXT
  8
2
  10
52.5020
  20
322.9670
  40
8.0000
  1
# 119
  0
TEXT
  8
1
  10
52.5020
  20
322.9670
  40
8.0000
  1
# 119
  0
TEXT
  8
3
  10
60.4490
  20
319.2080
  40
8.0000
  1
# 110
  0
TEXT
  8
1
  10
60.4490
  20
319.2080
  40
8.0000
  1
# 110
  0
TEXT
  8
3
  10
101.0580
  20
309.3270
  40
8.0000
  1
# 110
  0
TEXT
  8
1
  10
101.0580
  20
309.3270
  40
8.0000
  1
# 110
  0
TEXT
  8
2
  10
112.9250
  20
308.6350
  40
8.0000
  1
# 120
  0
TEXT
  8
1
  10
112.9250
  20
308.6350
  40
8.0000
  1
# 120
  0
TEXT
  8
3
  10
110.2120
  20
297.0610
  40
8.0000
  1
# 121
  0
TEXT
  8
1
  10
110.2120
  20
297.0610
  40
8.0000
  1
# 121
  0
TEXT
  8
3
  10
51.3080
  20
135.7510
  40
8.0000
  1
# 122
  0
TEXT
  8
1
  10
51.3080
  20
135.7510
  40
8.0000
  1
# 122
  0
TEXT
  8
4
  10
9.3120
  20
261.2260
  40
8.0000
  1
# 116
  0
TEXT
  8
4
  10
20.7980
  20
276.7560
  40
8.0000
  1
# 117
  0
TEXT
  8
1
  10
-72.4755
  20
116.8331
  40
8.0000
  1
Piece Name: SHOULDER FR 2P
  0
TEXT
  8
1
  10
-72.4755
  20
106.8331
  40
8.0000
  1
Size: 42
  0
TEXT
  8
1
  10
-72.4755
  20
96.8331
  40
8.0000
  1
Quantity: 1
  0
TEXT
  8
1
  10
-72.4755
  20
86.8331
  40
8.0000
  1
Annotation: 
  0
TEXT
  8
1
  10
-72.4755
  20
76.8331
  40
8.0000
  1
Category: 
  0
LINE
  8
7
  10
-0.3650
  20
215.8810
  11
60.7000
  21
215.8810
  0
ENDBLK
  0
BLOCK
  8
1
  2
CUFF_RIB_2P-S_42
  10
0.0000
  20
0.0000
70
0
  0
POLYLINE
  8
14
  66
1
  70
1
  0
VERTEX
  8
14
  10
-124.8100
  20
69.7460
  42
0.0000
  0
VERTEX
  8
14
  10
-4.8100
  20
69.7460
  42
0.0000
  0
VERTEX
  8
14
  10
-4.8100
  20
-120.2540
  42
0.0000
  0
VERTEX
  8
14
  10
-124.8100
  20
-120.2540
  42
0.0000
  0
SEQEND
  0
POLYLINE
  8
1
  66
1
  70
1
  0
VERTEX
  8
1
  10
-124.8100
  20
79.7460
  42
0.0000
  0
VERTEX
  8
1
  10
5.1900
  20
79.7460
  42
0.0000
  0
VERTEX
  8
1
  10
5.1900
  20
-130.2540
  42
0.0000
  0
VERTEX
  8
1
  10
-124.8100
  20
-130.2540
  42
0.0000
  0
SEQEND
  0
POINT
  8
2
  10
-124.8100
  20
69.7460
  0
POINT
  8
2
  10
-4.8100
  20
69.7460
  0
POINT
  8
2
  10
-4.8100
  20
-120.2540
  0
POINT
  8
2
  10
-124.8100
  20
-120.2540
  0
POINT
  8
2
  10
-124.8100
  20
79.7460
  0
POINT
  8
2
  10
5.1900
  20
79.7460
  0
POINT
  8
2
  10
5.1900
  20
-130.2540
  0
POINT
  8
2
  10
-124.8100
  20
-130.2540
  0
TEXT
  8
2
  10
-124.8100
  20
69.7460
  40
8.0000
  1
# 123
  0
TEXT
  8
14
  10
-124.8100
  20
69.7460
  40
8.0000
  1
# 123
  0
TEXT
  8
2
  10
-4.8100
  20
69.7460
  40
8.0000
  1
# 123
  0
TEXT
  8
14
  10
-4.8100
  20
69.7460
  40
8.0000
  1
# 123
  0
TEXT
  8
2
  10
-4.8100
  20
-120.2540
  40
8.0000
  1
# 1
  0
TEXT
  8
14
  10
-4.8100
  20
-120.2540
  40
8.0000
  1
# 1
  0
TEXT
  8
2
  10
-124.8100
  20
-120.2540
  40
8.0000
  1
# 1
  0
TEXT
  8
14
  10
-124.8100
  20
-120.2540
  40
8.0000
  1
# 1
  0
TEXT
  8
2
  10
-124.8100
  20
79.7460
  40
8.0000
  1
# 123
  0
TEXT
  8
1
  10
-124.8100
  20
79.7460
  40
8.0000
  1
# 123
  0
TEXT
  8
2
  10
5.1900
  20
79.7460
  40
8.0000
  1
# 123
  0
TEXT
  8
1
  10
5.1900
  20
79.7460
  40
8.0000
  1
# 123
  0
TEXT
  8
2
  10
5.1900
  20
-130.2540
  40
8.0000
  1
# 1
  0
TEXT
  8
1
  10
5.1900
  20
-130.2540
  40
8.0000
  1
# 1
  0
TEXT
  8
2
  10
-124.8100
  20
-130.2540
  40
8.0000
  1
# 1
  0
TEXT
  8
1
  10
-124.8100
  20
-130.2540
  40
8.0000
  1
# 1
  0
TEXT
  8
19
  10
-119.1619
  20
34.4292
  40
6.0000
  1
KNIT END
  50
-90.0000
  51
0.00
  0
TEXT
  8
1
  10
-124.8100
  20
-140.2540
  40
8.0000
  1
Piece Name: CUFF RIB 2P
  0
TEXT
  8
1
  10
-124.8100
  20
-150.2540
  40
8.0000
  1
Size: 42
  0
TEXT
  8
1
  10
-124.8100
  20
-160.2540
  40
8.0000
  1
Quantity: 1
  0
TEXT
  8
1
  10
-124.8100
  20
-170.2540
  40
8.0000
  1
Annotation: 
  0
TEXT
  8
1
  10
-124.8100
  20
-180.2540
  40
8.0000
  1
Category: 
  0
LINE
  8
7
  10
-108.8570
  20
-27.7800
  11
-24.8940
  21
-27.7800
  0
ENDBLK
  0
BLOCK
  8
1
  2
LINING_PCK_4P-S_42
  10
0.0000
  20
0.0000
70
0
  0
POLYLINE
  8
14
  66
1
  70
1
  0
VERTEX
  8
14
  10
-377.1570
  20
165.7420
  42
0.0000
  0
VERTEX
  8
14
  10
-378.9210
  20
175.0050
  42
0.0000
  0
VERTEX
  8
14
  10
-381.0420
  20
184.1910
  42
0.0000
  0
VERTEX
  8
14
  10
-384.6660
  20
197.8630
  42
0.0000
  0
VERTEX
  8
14
  10
-388.6420
  20
211.4370
  42
0.0000
  0
VERTEX
  8
14
  10
-392.7120
  20
224.7970
  42
0.0000
  0
VERTEX
  8
14
  10
-396.4670
  20
238.2480
  42
0.0000
  0
VERTEX
  8
14
  10
-398.8660
  20
247.8850
  42
0.0000
  0
VERTEX
  8
14
  10
-400.9460
  20
257.5960
  42
0.0000
  0
VERTEX
  8
14
  10
-402.6030
  20
269.6210
  42
0.0000
  0
VERTEX
  8
14
  10
-403.0170
  20
281.7520
  42
0.0000
  0
VERTEX
  8
14
  10
-402.2490
  20
290.0930
  42
0.0000
  0
VERTEX
  8
14
  10
-400.2470
  20
298.2270
  42
0.0000
  0
VERTEX
  8
14
  10
-397.7720
  20
304.2300
  42
0.0000
  0
VERTEX
  8
14
  10
-394.5930
  20
309.8910
  42
0.0000
  0
VERTEX
  8
14
  10
-390.7570
  20
315.1290
  42
0.0000
  0
VERTEX
  8
14
  10
-386.3410
  20
319.7840
  42
0.0000
  0
VERTEX
  8
14
  10
-381.3920
  20
323.8660
  42
0.0000
  0
VERTEX
  8
14
  10
-375.9820
  20
327.3170
  42
0.0000
  0
VERTEX
  8
14
  10
-371.0500
  20
330.0530
  42
0.0000
  0
VERTEX
  8
14
  10
-365.9580
  20
332.4800
  42
0.0000
  0
VERTEX
  8
14
  10
-360.0350
  20
334.8900
  42
0.0000
  0
VERTEX
  8
14
  10
-353.9900
  20
336.9750
  42
0.0000
  0
VERTEX
  8
14
  10
-346.9940
  20
338.9670
  42
0.0000
  0
VERTEX
  8
14
  10
-339.9450
  20
340.7600
  42
0.0000
  0
VERTEX
  8
14
  10
-334.6720
  20
341.9160
  42
0.0000
  0
VERTEX
  8
14
  10
-329.3580
  20
342.8690
  42
0.0000
  0
VERTEX
  8
14
  10
-314.3980
  20
344.9020
  42
0.0000
  0
VERTEX
  8
14
  10
-299.3290
  20
345.8230
  42
0.0000
  0
VERTEX
  8
14
  10
-286.5550
  20
345.5730
  42
0.0000
  0
VERTEX
  8
14
  10
-273.8510
  20
344.2090
  42
0.0000
  0
VERTEX
  8
14
  10
-266.4600
  20
342.7760
  42
0.0000
  0
VERTEX
  8
14
  10
-259.1880
  20
340.8280
  42
0.0000
  0
VERTEX
  8
14
  10
-252.6180
  20
338.5430
  42
0.0000
  0
VERTEX
  8
14
  10
-246.2400
  20
335.7670
  42
0.0000
  0
VERTEX
  8
14
  10
-241.8180
  20
333.5240
  42
0.0000
  0
VERTEX
  8
14
  10
-237.5790
  20
330.9510
  42
0.0000
  0
VERTEX
  8
14
  10
-232.3480
  20
327.2720
  42
0.0000
  0
VERTEX
  8
14
  10
-227.3420
  20
323.2900
  42
0.0000
  0
VERTEX
  8
14
  10
-221.7160
  20
317.7820
  42
0.0000
  0
VERTEX
  8
14
  10
-216.4690
  20
311.9130
  42
0.0000
  0
VERTEX
  8
14
  10
-212.5950
  20
306.8710
  42
0.0000
  0
VERTEX
  8
14
  10
-209.1500
  20
301.5280
  42
0.0000
  0
VERTEX
  8
14
  10
-205.9060
  20
295.9240
  42
0.0000
  0
VERTEX
  8
14
  10
-202.9360
  20
290.1690
  42
0.0000
  0
VERTEX
  8
14
  10
-200.1750
  20
284.1310
  42
0.0000
  0
VERTEX
  8
14
  10
-197.7000
  20
277.9700
  42
0.0000
  0
VERTEX
  8
14
  10
-195.3610
  20
271.5710
  42
0.0000
  0
VERTEX
  8
14
  10
-193.3190
  20
265.0710
  42
0.0000
  0
VERTEX
  8
14
  10
-190.5500
  20
254.9350
  42
0.0000
  0
VERTEX
  8
14
  10
-188.0830
  20
244.7220
  42
0.0000
  0
VERTEX
  8
14
  10
-184.0800
  20
223.5870
  42
0.0000
  0
VERTEX
  8
14
  10
-180.9250
  20
204.3860
  42
0.0000
  0
VERTEX
  8
14
  10
-200.5480
  20
200.5220
  42
0.0000
  0
VERTEX
  8
14
  10
-357.5330
  20
169.6070
  42
0.0000
  0
SEQEND
  0
POLYLINE
  8
1
  66
1
  70
1
  0
VERTEX
  8
1
  10
-385.0970
  20
153.9870
  42
0.0000
  0
VERTEX
  8
1
  10
-386.9800
  20
163.8710
  42
0.0000
  0
VERTEX
  8
1
  10
-388.6930
  20
172.8650
  42
0.0000
  0
VERTEX
  8
1
  10
-390.7490
  20
181.7850
  42
0.0000
  0
VERTEX
  8
1
  10
-394.3150
  20
195.2290
  42
0.0000
  0
VERTEX
  8
1
  10
-398.2240
  20
208.5740
  42
0.0000
  0
VERTEX
  8
1
  10
-402.3390
  20
222.0900
  42
0.0000
  0
VERTEX
  8
1
  10
-406.1360
  20
235.6960
  42
0.0000
  0
VERTEX
  8
1
  10
-408.6460
  20
245.7990
  42
0.0000
  0
VERTEX
  8
1
  10
-410.8140
  20
255.9770
  42
0.0000
  0
VERTEX
  8
1
  10
-412.5780
  20
268.9300
  42
0.0000
  0
VERTEX
  8
1
  10
-413.0150
  20
281.9860
  42
0.0000
  0
VERTEX
  8
1
  10
-412.1320
  20
291.6060
  42
0.0000
  0
VERTEX
  8
1
  10
-409.8600
  20
300.9810
  42
0.0000
  0
VERTEX
  8
1
  10
-407.3260
  20
307.4210
  42
0.0000
  0
VERTEX
  8
1
  10
-404.1000
  20
313.5360
  42
0.0000
  0
VERTEX
  8
1
  10
-400.2400
  20
319.2690
  42
0.0000
  0
VERTEX
  8
1
  10
-395.8400
  20
324.4370
  42
0.0000
  0
VERTEX
  8
1
  10
-390.9130
  20
329.1000
  42
0.0000
  0
VERTEX
  8
1
  10
-385.5110
  20
333.1990
  42
0.0000
  0
VERTEX
  8
1
  10
-379.2730
  20
336.9580
  42
0.0000
  0
VERTEX
  8
1
  10
-372.8260
  20
340.3330
  42
0.0000
  0
VERTEX
  8
1
  10
-366.6510
  20
343.0390
  42
0.0000
  0
VERTEX
  8
1
  10
-360.3480
  20
345.4060
  42
0.0000
  0
VERTEX
  8
1
  10
-351.4250
  20
348.1030
  42
0.0000
  0
VERTEX
  8
1
  10
-342.4120
  20
350.4510
  42
0.0000
  0
VERTEX
  8
1
  10
-336.7270
  20
351.7020
  42
0.0000
  0
VERTEX
  8
1
  10
-331.0060
  20
352.7330
  42
0.0000
  0
VERTEX
  8
1
  10
-313.7770
  20
354.9830
  42
0.0000
  0
VERTEX
  8
1
  10
-296.4290
  20
355.8300
  42
0.0000
  0
VERTEX
  8
1
  10
-279.1040
  20
354.9710
  42
0.0000
  0
VERTEX
  8
1
  10
-268.8240
  20
353.4790
  42
0.0000
  0
VERTEX
  8
1
  10
-258.7350
  20
351.1010
  42
0.0000
  0
VERTEX
  8
1
  10
-248.9000
  20
347.8260
  42
0.0000
  0
VERTEX
  8
1
  10
-239.4480
  20
343.5870
  42
0.0000
  0
VERTEX
  8
1
  10
-235.6780
  20
341.4980
  42
0.0000
  0
VERTEX
  8
1
  10
-232.0180
  20
339.2620
  42
0.0000
  0
VERTEX
  8
1
  10
-226.4390
  20
335.3380
  42
0.0000
  0
VERTEX
  8
1
  10
-221.1120
  20
331.1120
  42
0.0000
  0
VERTEX
  8
1
  10
-217.7280
  20
327.9580
  42
0.0000
  0
VERTEX
  8
1
  10
-214.4830
  20
324.6870
  42
0.0000
  0
VERTEX
  8
1
  10
-211.5720
  20
321.5370
  42
0.0000
  0
VERTEX
  8
1
  10
-208.7790
  20
318.3060
  42
0.0000
  0
VERTEX
  8
1
  10
-203.4130
  20
311.1410
  42
0.0000
  0
VERTEX
  8
1
  10
-198.7170
  20
303.5380
  42
0.0000
  0
VERTEX
  8
1
  10
-193.1100
  20
292.7400
  42
0.0000
  0
VERTEX
  8
1
  10
-188.3750
  20
281.5440
  42
0.0000
  0
VERTEX
  8
1
  10
-186.4640
  20
276.3490
  42
0.0000
  0
VERTEX
  8
1
  10
-184.6960
  20
271.1080
  42
0.0000
  0
VERTEX
  8
1
  10
-181.3350
  20
259.0990
  42
0.0000
  0
VERTEX
  8
1
  10
-178.3450
  20
246.9970
  42
0.0000
  0
VERTEX
  8
1
  10
-174.2330
  20
225.3310
  42
0.0000
  0
VERTEX
  8
1
  10
-171.0480
  20
205.9450
  42
0.0000
  0
VERTEX
  8
1
  10
-170.2970
  20
201.1900
  42
0.0000
  0
VERTEX
  8
1
  10
-169.5470
  20
196.4350
  42
0.0000
  0
VERTEX
  8
1
  10
-198.6160
  20
190.7110
  42
0.0000
  0
VERTEX
  8
1
  10
-198.6161
  20
190.7110
  42
0.0000
  0
VERTEX
  8
1
  10
-355.6010
  20
159.7950
  42
0.0000
  0
VERTEX
  8
1
  10
-355.6013
  20
159.7950
  42
0.0000
  0
VERTEX
  8
1
  10
-375.2240
  20
155.9310
  42
0.0000
  0
VERTEX
  8
1
  10
-380.1610
  20
154.9590
  42
0.0000
  0
SEQEND
  0
POINT
  8
2
  10
-377.1570
  20
165.7420
  0
POINT
  8
3
  10
-378.9210
  20
175.0050
  0
POINT
  8
3
  10
-381.0420
  20
184.1910
  0
POINT
  8
3
  10
-384.6660
  20
197.8630
  0
POINT
  8
3
  10
-388.6420
  20
211.4370
  0
POINT
  8
3
  10
-392.7120
  20
224.7970
  0
POINT
  8
3
  10
-396.4670
  20
238.2480
  0
POINT
  8
3
  10
-398.8660
  20
247.8850
  0
POINT
  8
3
  10
-400.9460
  20
257.5960
  0
POINT
  8
3
  10
-402.6030
  20
269.6210
  0
POINT
  8
3
  10
-403.0170
  20
281.7520
  0
POINT
  8
3
  10
-402.2490
  20
290.0930
  0
POINT
  8
3
  10
-400.2470
  20
298.2270
  0
POINT
  8
3
  10
-397.7720
  20
304.2300
  0
POINT
  8
3
  10
-394.5930
  20
309.8910
  0
POINT
  8
3
  10
-390.7570
  20
315.1290
  0
POINT
  8
3
  10
-386.3410
  20
319.7840
  0
POINT
  8
3
  10
-381.3920
  20
323.8660
  0
POINT
  8
3
  10
-375.9820
  20
327.3170
  0
POINT
  8
3
  10
-371.0500
  20
330.0530
  0
POINT
  8
3
  10
-365.9580
  20
332.4800
  0
POINT
  8
3
  10
-360.0350
  20
334.8900
  0
POINT
  8
3
  10
-353.9900
  20
336.9750
  0
POINT
  8
3
  10
-346.9940
  20
338.9670
  0
POINT
  8
3
  10
-339.9450
  20
340.7600
  0
POINT
  8
3
  10
-334.6720
  20
341.9160
  0
POINT
  8
3
  10
-329.3580
  20
342.8690
  0
POINT
  8
3
  10
-314.3980
  20
344.9020
  0
POINT
  8
3
  10
-299.3290
  20
345.8230
  0
POINT
  8
3
  10
-286.5550
  20
345.5730
  0
POINT
  8
3
  10
-273.8510
  20
344.2090
  0
POINT
  8
3
  10
-266.4600
  20
342.7760
  0
POINT
  8
3
  10
-259.1880
  20
340.8280
  0
POINT
  8
3
  10
-252.6180
  20
338.5430
  0
POINT
  8
3
  10
-246.2400
  20
335.7670
  0
POINT
  8
3
  10
-241.8180
  20
333.5240
  0
POINT
  8
3
  10
-237.5790
  20
330.9510
  0
POINT
  8
3
  10
-232.3480
  20
327.2720
  0
POINT
  8
3
  10
-227.3420
  20
323.2900
  0
POINT
  8
3
  10
-221.7160
  20
317.7820
  0
POINT
  8
3
  10
-216.4690
  20
311.9130
  0
POINT
  8
3
  10
-212.5950
  20
306.8710
  0
POINT
  8
3
  10
-209.1500
  20
301.5280
  0
POINT
  8
3
  10
-205.9060
  20
295.9240
  0
POINT
  8
3
  10
-202.9360
  20
290.1690
  0
POINT
  8
3
  10
-200.1750
  20
284.1310
  0
POINT
  8
3
  10
-197.7000
  20
277.9700
  0
POINT
  8
3
  10
-195.3610
  20
271.5710
  0
POINT
  8
3
  10
-193.3190
  20
265.0710
  0
POINT
  8
3
  10
-190.5500
  20
254.9350
  0
POINT
  8
3
  10
-188.0830
  20
244.7220
  0
POINT
  8
3
  10
-184.0800
  20
223.5870
  0
POINT
  8
2
  10
-180.9250
  20
204.3860
  0
POINT
  8
3
  10
-200.5480
  20
200.5220
  0
POINT
  8
3
  10
-357.5330
  20
169.6070
  0
POINT
  8
2
  10
-385.0970
  20
153.9870
  0
POINT
  8
3
  10
-386.9800
  20
163.8710
  0
POINT
  8
3
  10
-388.6930
  20
172.8650
  0
POINT
  8
3
  10
-390.7490
  20
181.7850
  0
POINT
  8
3
  10
-394.3150
  20
195.2290
  0
POINT
  8
3
  10
-398.2240
  20
208.5740
  0
POINT
  8
3
  10
-402.3390
  20
222.0900
  0
POINT
  8
3
  10
-406.1360
  20
235.6960
  0
POINT
  8
3
  10
-408.6460
  20
245.7990
  0
POINT
  8
3
  10
-410.8140
  20
255.9770
  0
POINT
  8
3
  10
-412.5780
  20
268.9300
  0
POINT
  8
3
  10
-413.0150
  20
281.9860
  0
POINT
  8
3
  10
-412.1320
  20
291.6060
  0
POINT
  8
3
  10
-409.8600
  20
300.9810
  0
POINT
  8
3
  10
-407.3260
  20
307.4210
  0
POINT
  8
3
  10
-404.1000
  20
313.5360
  0
POINT
  8
3
  10
-400.2400
  20
319.2690
  0
POINT
  8
3
  10
-395.8400
  20
324.4370
  0
POINT
  8
3
  10
-390.9130
  20
329.1000
  0
POINT
  8
3
  10
-385.5110
  20
333.1990
  0
POINT
  8
3
  10
-379.2730
  20
336.9580
  0
POINT
  8
3
  10
-372.8260
  20
340.3330
  0
POINT
  8
3
  10
-366.6510
  20
343.0390
  0
POINT
  8
3
  10
-360.3480
  20
345.4060
  0
POINT
  8
3
  10
-351.4250
  20
348.1030
  0
POINT
  8
3
  10
-342.4120
  20
350.4510
  0
POINT
  8
3
  10
-336.7270
  20
351.7020
  0
POINT
  8
3
  10
-331.0060
  20
352.7330
  0
POINT
  8
3
  10
-313.7770
  20
354.9830
  0
POINT
  8
3
  10
-296.4290
  20
355.8300
  0
POINT
  8
3
  10
-279.1040
  20
354.9710
  0
POINT
  8
3
  10
-268.8240
  20
353.4790
  0
POINT
  8
3
  10
-258.7350
  20
351.1010
  0
POINT
  8
3
  10
-248.9000
  20
347.8260
  0
POINT
  8
3
  10
-239.4480
  20
343.5870
  0
POINT
  8
3
  10
-235.6780
  20
341.4980
  0
POINT
  8
3
  10
-232.0180
  20
339.2620
  0
POINT
  8
3
  10
-226.4390
  20
335.3380
  0
POINT
  8
3
  10
-221.1120
  20
331.1120
  0
POINT
  8
3
  10
-217.7280
  20
327.9580
  0
POINT
  8
3
  10
-214.4830
  20
324.6870
  0
POINT
  8
3
  10
-211.5720
  20
321.5370
  0
POINT
  8
3
  10
-208.7790
  20
318.3060
  0
POINT
  8
3
  10
-203.4130
  20
311.1410
  0
POINT
  8
3
  10
-198.7170
  20
303.5380
  0
POINT
  8
3
  10
-193.1100
  20
292.7400
  0
POINT
  8
3
  10
-188.3750
  20
281.5440
  0
POINT
  8
3
  10
-186.4640
  20
276.3490
  0
POINT
  8
3
  10
-184.6960
  20
271.1080
  0
POINT
  8
3
  10
-181.3350
  20
259.0990
  0
POINT
  8
3
  10
-178.3450
  20
246.9970
  0
POINT
  8
3
  10
-174.2330
  20
225.3310
  0
POINT
  8
3
  10
-171.0480
  20
205.9450
  0
POINT
  8
3
  10
-170.2970
  20
201.1900
  0
POINT
  8
2
  10
-169.5470
  20
196.4350
  0
POINT
  8
2
  10
-198.6160
  20
190.7110
  0
POINT
  8
2
  10
-198.6161
  20
190.7110
  0
POINT
  8
2
  10
-355.6010
  20
159.7950
  0
POINT
  8
2
  10
-355.6013
  20
159.7950
  0
POINT
  8
3
  10
-375.2240
  20
155.9310
  0
POINT
  8
3
  10
-380.1610
  20
154.9590
  0
POINT
  8
4
  10
-198.6161
  20
190.7110
  30
10.0000
  50
101.1408
  0
POINT
  8
4
  10
-355.6013
  20
159.7950
  30
10.0000
  50
101.1407
  0
TEXT
  8
2
  10
-377.1570
  20
165.7420
  40
8.0000
  1
# 124
  0
TEXT
  8
14
  10
-377.1570
  20
165.7420
  40
8.0000
  1
# 124
  0
TEXT
  8
3
  10
-329.3580
  20
342.8690
  40
8.0000
  1
# 125
  0
TEXT
  8
14
  10
-329.3580
  20
342.8690
  40
8.0000
  1
# 125
  0
TEXT
  8
3
  10
-197.7000
  20
277.9700
  40
8.0000
  1
# 1
  0
TEXT
  8
14
  10
-197.7000
  20
277.9700
  40
8.0000
  1
# 1
  0
TEXT
  8
2
  10
-180.9250
  20
204.3860
  40
8.0000
  1
# 1
  0
TEXT
  8
14
  10
-180.9250
  20
204.3860
  40
8.0000
  1
# 1
  0
TEXT
  8
3
  10
-200.5480
  20
200.5220
  40
8.0000
  1
# 1
  0
TEXT
  8
14
  10
-200.5480
  20
200.5220
  40
8.0000
  1
# 1
  0
TEXT
  8
3
  10
-357.5330
  20
169.6070
  40
8.0000
  1
# 124
  0
TEXT
  8
14
  10
-357.5330
  20
169.6070
  40
8.0000
  1
# 124
  0
TEXT
  8
2
  10
-385.0970
  20
153.9870
  40
8.0000
  1
# 126
  0
TEXT
  8
1
  10
-385.0970
  20
153.9870
  40
8.0000
  1
# 126
  0
TEXT
  8
3
  10
-386.9800
  20
163.8710
  40
8.0000
  1
# 127
  0
TEXT
  8
1
  10
-386.9800
  20
163.8710
  40
8.0000
  1
# 127
  0
TEXT
  8
3
  10
-409.8600
  20
300.9810
  40
8.0000
  1
# 128
  0
TEXT
  8
1
  10
-409.8600
  20
300.9810
  40
8.0000
  1
# 128
  0
TEXT
  8
3
  10
-331.0060
  20
352.7330
  40
8.0000
  1
# 129
  0
TEXT
  8
1
  10
-331.0060
  20
352.7330
  40
8.0000
  1
# 129
  0
TEXT
  8
3
  10
-188.3750
  20
281.5440
  40
8.0000
  1
# 130
  0
TEXT
  8
1
  10
-188.3750
  20
281.5440
  40
8.0000
  1
# 130
  0
TEXT
  8
2
  10
-169.5470
  20
196.4350
  40
8.0000
  1
# 1
  0
TEXT
  8
1
  10
-169.5470
  20
196.4350
  40
8.0000
  1
# 1
  0
TEXT
  8
2
  10
-198.6160
  20
190.7110
  40
8.0000
  1
# 131
  0
TEXT
  8
1
  10
-198.6160
  20
190.7110
  40
8.0000
  1
# 131
  0
TEXT
  8
2
  10
-198.6161
  20
190.7110
  40
8.0000
  1
# 131
  0
TEXT
  8
1
  10
-198.6161
  20
190.7110
  40
8.0000
  1
# 131
  0
TEXT
  8
2
  10
-355.6010
  20
159.7950
  40
8.0000
  1
# 132
  0
TEXT
  8
1
  10
-355.6010
  20
159.7950
  40
8.0000
  1
# 132
  0
TEXT
  8
2
  10
-355.6013
  20
159.7950
  40
8.0000
  1
# 132
  0
TEXT
  8
1
  10
-355.6013
  20
159.7950
  40
8.0000
  1
# 132
  0
TEXT
  8
4
  10
-198.6161
  20
190.7110
  40
8.0000
  1
# 131
  0
TEXT
  8
4
  10
-355.6013
  20
159.7950
  40
8.0000
  1
# 132
  0
TEXT
  8
1
  10
-413.0170
  20
143.9866
  40
8.0000
  1
Piece Name: LINING PCK 4P
  0
TEXT
  8
1
  10
-413.0170
  20
133.9866
  40
8.0000
  1
Size: 42
  0
TEXT
  8
1
  10
-413.0170
  20
123.9866
  40
8.0000
  1
Quantity: 1
  0
TEXT
  8
1
  10
-413.0170
  20
113.9866
  40
8.0000
  1
Annotation: 
  0
TEXT
  8
1
  10
-413.0170
  20
103.9866
  40
8.0000
  1
Category: 
  0
LINE
  8
7
  10
-373.7580
  20
244.9800
  11
-227.1450
  21
244.9800
  0
ENDBLK
  0
BLOCK
  8
1
  2
FACING_PCK_2P-S_42
  10
0.0000
  20
0.0000
70
0
  0
POLYLINE
  8
14
  66
1
  70
1
  0
VERTEX
  8
14
  10
-377.1570
  20
165.7420
  42
0.0000
  0
VERTEX
  8
14
  10
-378.9210
  20
175.0050
  42
0.0000
  0
VERTEX
  8
14
  10
-381.0420
  20
184.1910
  42
0.0000
  0
VERTEX
  8
14
  10
-384.6660
  20
197.8630
  42
0.0000
  0
VERTEX
  8
14
  10
-388.6420
  20
211.4370
  42
0.0000
  0
VERTEX
  8
14
  10
-389.8240
  20
215.2540
  42
0.0000
  0
VERTEX
  8
14
  10
-391.0050
  20
219.0720
  42
0.0000
  0
VERTEX
  8
14
  10
-341.1230
  20
228.8950
  42
0.0000
  0
VERTEX
  8
14
  10
-291.2420
  20
238.7180
  42
0.0000
  0
VERTEX
  8
14
  10
-191.5530
  20
258.3500
  42
0.0000
  0
VERTEX
  8
14
  10
-189.8180
  20
251.5360
  42
0.0000
  0
VERTEX
  8
14
  10
-188.0830
  20
244.7220
  42
0.0000
  0
VERTEX
  8
14
  10
-184.0800
  20
223.5870
  42
0.0000
  0
VERTEX
  8
14
  10
-180.9250
  20
204.3860
  42
0.0000
  0
VERTEX
  8
14
  10
-200.5480
  20
200.5220
  42
0.0000
  0
VERTEX
  8
14
  10
-357.5330
  20
169.6070
  42
0.0000
  0
SEQEND
  0
POLYLINE
  8
1
  66
1
  70
1
  0
VERTEX
  8
1
  10
-385.0970
  20
153.9870
  42
0.0000
  0
VERTEX
  8
1
  10
-386.0390
  20
158.9290
  42
0.0000
  0
VERTEX
  8
1
  10
-386.9800
  20
163.8710
  42
0.0000
  0
VERTEX
  8
1
  10
-388.6930
  20
172.8670
  42
0.0000
  0
VERTEX
  8
1
  10
-390.7500
  20
181.7870
  42
0.0000
  0
VERTEX
  8
1
  10
-395.4250
  20
199.0180
  42
0.0000
  0
VERTEX
  8
1
  10
-400.5580
  20
216.1160
  42
0.0000
  0
VERTEX
  8
1
  10
-403.8440
  20
226.7350
  42
0.0000
  0
VERTEX
  8
1
  10
-392.9370
  20
228.8830
  42
0.0000
  0
VERTEX
  8
1
  10
-293.1750
  20
248.5290
  42
0.0000
  0
VERTEX
  8
1
  10
-243.3300
  20
258.3450
  42
0.0000
  0
VERTEX
  8
1
  10
-193.4850
  20
268.1610
  42
0.0000
  0
VERTEX
  8
1
  10
-184.1970
  20
269.9900
  42
0.0000
  0
VERTEX
  8
1
  10
-183.0290
  20
265.4040
  42
0.0000
  0
VERTEX
  8
1
  10
-181.8620
  20
260.8170
  42
0.0000
  0
VERTEX
  8
1
  10
-178.2680
  20
246.6350
  42
0.0000
  0
VERTEX
  8
1
  10
-174.4160
  20
226.3290
  42
0.0000
  0
VERTEX
  8
1
  10
-171.0480
  20
205.9450
  42
0.0000
  0
VERTEX
  8
1
  10
-170.2970
  20
201.1900
  42
0.0000
  0
VERTEX
  8
1
  10
-169.5470
  20
196.4350
  42
0.0000
  0
VERTEX
  8
1
  10
-198.6160
  20
190.7100
  42
0.0000
  0
VERTEX
  8
1
  10
-198.6161
  20
190.7100
  42
0.0000
  0
VERTEX
  8
1
  10
-355.6010
  20
159.7950
  42
0.0000
  0
VERTEX
  8
1
  10
-355.6013
  20
159.7950
  42
0.0000
  0
VERTEX
  8
1
  10
-375.2240
  20
155.9310
  42
0.0000
  0
VERTEX
  8
1
  10
-380.1610
  20
154.9590
  42
0.0000
  0
SEQEND
  0
POINT
  8
2
  10
-377.1570
  20
165.7420
  0
POINT
  8
3
  10
-378.9210
  20
175.0050
  0
POINT
  8
3
  10
-381.0420
  20
184.1910
  0
POINT
  8
3
  10
-384.6660
  20
197.8630
  0
POINT
  8
3
  10
-388.6420
  20
211.4370
  0
POINT
  8
3
  10
-389.8240
  20
215.2540
  0
POINT
  8
2
  10
-391.0050
  20
219.0720
  0
POINT
  8
3
  10
-341.1230
  20
228.8950
  0
POINT
  8
3
  10
-291.2420
  20
238.7180
  0
POINT
  8
2
  10
-191.5530
  20
258.3500
  0
POINT
  8
3
  10
-189.8180
  20
251.5360
  0
POINT
  8
3
  10
-188.0830
  20
244.7220
  0
POINT
  8
3
  10
-184.0800
  20
223.5870
  0
POINT
  8
2
  10
-180.9250
  20
204.3860
  0
POINT
  8
3
  10
-200.5480
  20
200.5220
  0
POINT
  8
3
  10
-357.5330
  20
169.6070
  0
POINT
  8
2
  10
-385.0970
  20
153.9870
  0
POINT
  8
3
  10
-386.0390
  20
158.9290
  0
POINT
  8
3
  10
-386.9800
  20
163.8710
  0
POINT
  8
3
  10
-388.6930
  20
172.8670
  0
POINT
  8
3
  10
-390.7500
  20
181.7870
  0
POINT
  8
3
  10
-395.4250
  20
199.0180
  0
POINT
  8
3
  10
-400.5580
  20
216.1160
  0
POINT
  8
2
  10
-403.8440
  20
226.7350
  0
POINT
  8
3
  10
-392.9370
  20
228.8830
  0
POINT
  8
3
  10
-293.1750
  20
248.5290
  0
POINT
  8
3
  10
-243.3300
  20
258.3450
  0
POINT
  8
3
  10
-193.4850
  20
268.1610
  0
POINT
  8
2
  10
-184.1970
  20
269.9900
  0
POINT
  8
3
  10
-183.0290
  20
265.4040
  0
POINT
  8
3
  10
-181.8620
  20
260.8170
  0
POINT
  8
3
  10
-178.2680
  20
246.6350
  0
POINT
  8
3
  10
-174.4160
  20
226.3290
  0
POINT
  8
3
  10
-171.0480
  20
205.9450
  0
POINT
  8
3
  10
-170.2970
  20
201.1900
  0
POINT
  8
2
  10
-169.5470
  20
196.4350
  0
POINT
  8
2
  10
-198.6160
  20
190.7100
  0
POINT
  8
2
  10
-198.6161
  20
190.7100
  0
POINT
  8
2
  10
-355.6010
  20
159.7950
  0
POINT
  8
2
  10
-355.6013
  20
159.7950
  0
POINT
  8
3
  10
-375.2240
  20
155.9310
  0
POINT
  8
3
  10
-380.1610
  20
154.9590
  0
POINT
  8
4
  10
-198.6161
  20
190.7100
  30
10.0000
  50
101.1408
  0
POINT
  8
4
  10
-355.6013
  20
159.7950
  30
10.0000
  50
101.1407
  0
TEXT
  8
2
  10
-377.1570
  20
165.7420
  40
8.0000
  1
# 124
  0
TEXT
  8
14
  10
-377.1570
  20
165.7420
  40
8.0000
  1
# 124
  0
TEXT
  8
2
  10
-391.0050
  20
219.0720
  40
8.0000
  1
# 124
  0
TEXT
  8
14
  10
-391.0050
  20
219.0720
  40
8.0000
  1
# 124
  0
TEXT
  8
3
  10
-291.2420
  20
238.7180
  40
8.0000
  1
# 133
  0
TEXT
  8
14
  10
-291.2420
  20
238.7180
  40
8.0000
  1
# 133
  0
TEXT
  8
2
  10
-191.5530
  20
258.3500
  40
8.0000
  1
# 1
  0
TEXT
  8
14
  10
-191.5530
  20
258.3500
  40
8.0000
  1
# 1
  0
TEXT
  8
2
  10
-180.9250
  20
204.3860
  40
8.0000
  1
# 1
  0
TEXT
  8
14
  10
-180.9250
  20
204.3860
  40
8.0000
  1
# 1
  0
TEXT
  8
3
  10
-200.5480
  20
200.5220
  40
8.0000
  1
# 1
  0
TEXT
  8
14
  10
-200.5480
  20
200.5220
  40
8.0000
  1
# 1
  0
TEXT
  8
3
  10
-357.5330
  20
169.6070
  40
8.0000
  1
# 124
  0
TEXT
  8
14
  10
-357.5330
  20
169.6070
  40
8.0000
  1
# 124
  0
TEXT
  8
2
  10
-385.0970
  20
153.9870
  40
8.0000
  1
# 134
  0
TEXT
  8
1
  10
-385.0970
  20
153.9870
  40
8.0000
  1
# 134
  0
TEXT
  8
3
  10
-400.5580
  20
216.1160
  40
8.0000
  1
# 124
  0
TEXT
  8
1
  10
-400.5580
  20
216.1160
  40
8.0000
  1
# 124
  0
TEXT
  8
2
  10
-403.8440
  20
226.7350
  40
8.0000
  1
# 135
  0
TEXT
  8
1
  10
-403.8440
  20
226.7350
  40
8.0000
  1
# 135
  0
TEXT
  8
3
  10
-392.9370
  20
228.8830
  40
8.0000
  1
# 136
  0
TEXT
  8
1
  10
-392.9370
  20
228.8830
  40
8.0000
  1
# 136
  0
TEXT
  8
3
  10
-293.1750
  20
248.5290
  40
8.0000
  1
# 137
  0
TEXT
  8
1
  10
-293.1750
  20
248.5290
  40
8.0000
  1
# 137
  0
TEXT
  8
3
  10
-243.3300
  20
258.3450
  40
8.0000
  1
# 138
  0
TEXT
  8
1
  10
-243.3300
  20
258.3450
  40
8.0000
  1
# 138
  0
TEXT
  8
3
  10
-193.4850
  20
268.1610
  40
8.0000
  1
# 139
  0
TEXT
  8
1
  10
-193.4850
  20
268.1610
  40
8.0000
  1
# 139
  0
TEXT
  8
2
  10
-184.1970
  20
269.9900
  40
8.0000
  1
# 140
  0
TEXT
  8
1
  10
-184.1970
  20
269.9900
  40
8.0000
  1
# 140
  0
TEXT
  8
2
  10
-169.5470
  20
196.4350
  40
8.0000
  1
# 1
  0
TEXT
  8
1
  10
-169.5470
  20
196.4350
  40
8.0000
  1
# 1
  0
TEXT
  8
2
  10
-198.6160
  20
190.7100
  40
8.0000
  1
# 141
  0
TEXT
  8
1
  10
-198.6160
  20
190.7100
  40
8.0000
  1
# 141
  0
TEXT
  8
2
  10
-198.6161
  20
190.7100
  40
8.0000
  1
# 141
  0
TEXT
  8
1
  10
-198.6161
  20
190.7100
  40
8.0000
  1
# 141
  0
TEXT
  8
2
  10
-355.6010
  20
159.7950
  40
8.0000
  1
# 132
  0
TEXT
  8
1
  10
-355.6010
  20
159.7950
  40
8.0000
  1
# 132
  0
TEXT
  8
2
  10
-355.6013
  20
159.7950
  40
8.0000
  1
# 132
  0
TEXT
  8
1
  10
-355.6013
  20
159.7950
  40
8.0000
  1
# 132
  0
TEXT
  8
4
  10
-198.6161
  20
190.7100
  40
8.0000
  1
# 141
  0
TEXT
  8
4
  10
-355.6013
  20
159.7950
  40
8.0000
  1
# 132
  0
TEXT
  8
1
  10
-403.8440
  20
143.9865
  40
8.0000
  1
Piece Name: FACING PCK 2P
  0
TEXT
  8
1
  10
-403.8440
  20
133.9865
  40
8.0000
  1
Size: 42
  0
TEXT
  8
1
  10
-403.8440
  20
123.9865
  40
8.0000
  1
Quantity: 1
  0
TEXT
  8
1
  10
-403.8440
  20
113.9865
  40
8.0000
  1
Annotation: 
  0
TEXT
  8
1
  10
-403.8440
  20
103.9865
  40
8.0000
  1
Category: 
  0
LINE
  8
7
  10
-335.4000
  20
210.7330
  11
-240.1110
  21
210.7330
  0
ENDBLK
  0
BLOCK
  8
1
  2
THIN_PCK_4P-S_42
  10
0.0000
  20
0.0000
70
0
  0
POLYLINE
  8
14
  66
1
  70
1
  0
VERTEX
  8
14
  10
-202.4810
  20
210.3340
  42
0.0000
  0
VERTEX
  8
14
  10
-359.4660
  20
179.4180
  42
0.0000
  0
VERTEX
  8
14
  10
-364.2960
  20
203.9470
  42
0.0000
  0
VERTEX
  8
14
  10
-242.5070
  20
227.9310
  42
0.0000
  0
VERTEX
  8
14
  10
-207.3110
  20
234.8620
  42
0.0000
  0
SEQEND
  0
POLYLINE
  8
1
  66
1
  70
1
  0
VERTEX
  8
1
  10
-202.4811
  20
210.3340
  42
0.0000
  0
VERTEX
  8
1
  10
-359.4660
  20
179.4181
  42
0.0000
  0
VERTEX
  8
1
  10
-364.2959
  20
203.9470
  42
0.0000
  0
VERTEX
  8
1
  10
-242.5069
  20
227.9310
  42
0.0000
  0
VERTEX
  8
1
  10
-207.3110
  20
234.8619
  42
0.0000
  0
SEQEND
  0
POINT
  8
13
  10
-242.0280
  20
224.9700
  0
POINT
  8
2
  10
-202.4810
  20
210.3340
  0
POINT
  8
2
  10
-359.4660
  20
179.4180
  0
POINT
  8
2
  10
-364.2960
  20
203.9470
  0
POINT
  8
3
  10
-242.5070
  20
227.9310
  0
POINT
  8
2
  10
-207.3110
  20
234.8620
  0
POINT
  8
2
  10
-202.4811
  20
210.3340
  0
POINT
  8
2
  10
-359.4660
  20
179.4181
  0
POINT
  8
2
  10
-364.2959
  20
203.9470
  0
POINT
  8
3
  10
-242.5069
  20
227.9310
  0
POINT
  8
2
  10
-207.3110
  20
234.8619
  0
TEXT
  8
2
  10
-202.4810
  20
210.3340
  40
8.0000
  1
# 1
  0
TEXT
  8
14
  10
-202.4810
  20
210.3340
  40
8.0000
  1
# 1
  0
TEXT
  8
2
  10
-359.4660
  20
179.4180
  40
8.0000
  1
# 124
  0
TEXT
  8
14
  10
-359.4660
  20
179.4180
  40
8.0000
  1
# 124
  0
TEXT
  8
2
  10
-364.2960
  20
203.9470
  40
8.0000
  1
# 124
  0
TEXT
  8
14
  10
-364.2960
  20
203.9470
  40
8.0000
  1
# 124
  0
TEXT
  8
3
  10
-242.5070
  20
227.9310
  40
8.0000
  1
# 1
  0
TEXT
  8
14
  10
-242.5070
  20
227.9310
  40
8.0000
  1
# 1
  0
TEXT
  8
2
  10
-207.3110
  20
234.8620
  40
8.0000
  1
# 1
  0
TEXT
  8
14
  10
-207.3110
  20
234.8620
  40
8.0000
  1
# 1
  0
TEXT
  8
2
  10
-202.4811
  20
210.3340
  40
8.0000
  1
# 1
  0
TEXT
  8
1
  10
-202.4811
  20
210.3340
  40
8.0000
  1
# 1
  0
TEXT
  8
2
  10
-359.4660
  20
179.4181
  40
8.0000
  1
# 142
  0
TEXT
  8
1
  10
-359.4660
  20
179.4181
  40
8.0000
  1
# 142
  0
TEXT
  8
2
  10
-364.2959
  20
203.9470
  40
8.0000
  1
# 124
  0
TEXT
  8
1
  10
-364.2959
  20
203.9470
  40
8.0000
  1
# 124
  0
TEXT
  8
3
  10
-242.5069
  20
227.9310
  40
8.0000
  1
# 3
  0
TEXT
  8
1
  10
-242.5069
  20
227.9310
  40
8.0000
  1
# 3
  0
TEXT
  8
2
  10
-207.3110
  20
234.8619
  40
8.0000
  1
# 1
  0
TEXT
  8
1
  10
-207.3110
  20
234.8619
  40
8.0000
  1
# 1
  0
TEXT
  8
19
  10
-268.5664
  20
219.0463
  40
6.0000
  1
ALL RAW CUT
  50
-167.9884
  51
0.00
  0
TEXT
  8
1
  10
-364.2961
  20
169.4184
  40
8.0000
  1
Piece Name: THIN PCK 4P
  0
TEXT
  8
1
  10
-364.2961
  20
159.4184
  40
8.0000
  1
Size: 42
  0
TEXT
  8
1
  10
-364.2961
  20
149.4184
  40
8.0000
  1
Quantity: 1
  0
TEXT
  8
1
  10
-364.2961
  20
139.4184
  40
8.0000
  1
Annotation: 
  0
TEXT
  8
1
  10
-364.2961
  20
129.4184
  40
8.0000
  1
Category: 
  0
LINE
  8
7
  10
-318.5170
  20
203.6280
  11
-263.3510
  21
203.6280
  0
ENDBLK
  0
BLOCK
  8
1
  2
FACING_2P-S_42
  10
0.0000
  20
0.0000
70
0
  0
POLYLINE
  8
14
  66
1
  70
1
  0
VERTEX
  8
14
  10
7.5020
  20
371.2360
  42
0.0000
  0
VERTEX
  8
14
  10
8.7800
  20
364.8310
  42
0.0000
  0
VERTEX
  8
14
  10
10.6400
  20
358.5710
  42
0.0000
  0
VERTEX
  8
14
  10
13.0670
  20
352.5080
  42
0.0000
  0
VERTEX
  8
14
  10
16.0410
  20
346.6930
  42
0.0000
  0
VERTEX
  8
14
  10
19.5370
  20
341.1760
  42
0.0000
  0
VERTEX
  8
14
  10
25.2880
  20
333.7920
  42
0.0000
  0
VERTEX
  8
14
  10
31.7490
  20
327.0200
  42
0.0000
  0
VERTEX
  8
14
  10
38.8560
  20
320.9280
  42
0.0000
  0
VERTEX
  8
14
  10
46.5360
  20
315.5780
  42
0.0000
  0
VERTEX
  8
14
  10
58.7920
  20
308.8660
  42
0.0000
  0
VERTEX
  8
14
  10
71.8600
  20
303.9190
  42
0.0000
  0
VERTEX
  8
14
  10
86.0670
  20
300.6580
  42
0.0000
  0
VERTEX
  8
14
  10
100.5810
  20
299.3140
  42
0.0000
  0
VERTEX
  8
14
  10
94.2150
  20
274.3240
  42
0.0000
  0
VERTEX
  8
14
  10
74.1590
  20
279.9160
  42
0.0000
  0
VERTEX
  8
14
  10
53.9840
  20
285.0640
  42
0.0000
  0
VERTEX
  8
14
  10
-5.0520
  20
298.4840
  42
0.0000
  0
VERTEX
  8
14
  10
-33.8490
  20
302.9930
  42
0.0000
  0
VERTEX
  8
14
  10
-62.7470
  20
306.8020
  42
0.0000
  0
VERTEX
  8
14
  10
-87.2190
  20
309.3710
  42
0.0000
  0
VERTEX
  8
14
  10
-111.7560
  20
311.2360
  42
0.0000
  0
VERTEX
  8
14
  10
-500.9620
  20
311.2370
  42
0.0000
  0
VERTEX
  8
14
  10
-502.5850
  20
371.2370
  42
0.0000
  0
VERTEX
  8
14
  10
-422.6100
  20
371.2360
  42
0.0000
  0
SEQEND
  0
POLYLINE
  8
1
  66
1
  70
1
  0
VERTEX
  8
1
  10
15.8560
  20
381.2360
  42
0.0000
  0
VERTEX
  8
1
  10
17.3420
  20
373.0150
  42
0.0000
  0
VERTEX
  8
1
  10
19.1240
  20
364.9350
  42
0.0000
  0
VERTEX
  8
1
  10
21.9610
  20
357.1630
  42
0.0000
  0
VERTEX
  8
1
  10
25.8000
  20
349.8440
  42
0.0000
  0
VERTEX
  8
1
  10
31.3920
  20
342.1190
  42
0.0000
  0
VERTEX
  8
1
  10
37.8210
  20
335.0870
  42
0.0000
  0
VERTEX
  8
1
  10
44.9840
  20
328.8340
  42
0.0000
  0
VERTEX
  8
1
  10
53.3940
  20
323.0960
  42
0.0000
  0
VERTEX
  8
1
  10
62.3280
  20
318.2620
  42
0.0000
  0
VERTEX
  8
1
  10
71.7360
  20
314.4580
  42
0.0000
  0
VERTEX
  8
1
  10
81.3200
  20
311.7620
  42
0.0000
  0
VERTEX
  8
1
  10
91.1140
  20
310.0430
  42
0.0000
  0
VERTEX
  8
1
  10
101.0040
  20
309.3060
  42
0.0000
  0
VERTEX
  8
1
  10
113.2010
  20
308.7900
  42
0.0000
  0
VERTEX
  8
1
  10
101.3030
  20
261.9070
  42
0.0000
  0
VERTEX
  8
1
  10
91.4760
  20
264.7060
  42
0.0000
  0
VERTEX
  8
1
  10
71.6010
  20
270.2490
  42
0.0000
  0
VERTEX
  8
1
  10
51.6560
  20
275.3390
  42
0.0000
  0
VERTEX
  8
1
  10
-6.9090
  20
288.6550
  42
0.0000
  0
VERTEX
  8
1
  10
-35.3910
  20
293.1110
  42
0.0000
  0
VERTEX
  8
1
  10
-63.9280
  20
296.8720
  42
0.0000
  0
VERTEX
  8
1
  10
-87.8260
  20
299.3830
  42
0.0000
  0
VERTEX
  8
1
  10
-111.7450
  20
301.2120
  42
0.0000
  0
VERTEX
  8
1
  10
-112.0990
  20
301.2360
  42
0.0000
  0
VERTEX
  8
1
  10
-500.9620
  20
301.2370
  42
0.0000
  0
VERTEX
  8
1
  10
-510.6950
  20
301.2370
  42
0.0000
  0
VERTEX
  8
1
  10
-512.8590
  20
381.2370
  42
0.0000
  0
SEQEND
  0
POINT
  8
2
  10
7.5020
  20
371.2360
  0
POINT
  8
3
  10
8.7800
  20
364.8310
  0
POINT
  8
3
  10
10.6400
  20
358.5710
  0
POINT
  8
3
  10
13.0670
  20
352.5080
  0
POINT
  8
3
  10
16.0410
  20
346.6930
  0
POINT
  8
3
  10
19.5370
  20
341.1760
  0
POINT
  8
3
  10
25.2880
  20
333.7920
  0
POINT
  8
3
  10
31.7490
  20
327.0200
  0
POINT
  8
3
  10
38.8560
  20
320.9280
  0
POINT
  8
3
  10
46.5360
  20
315.5780
  0
POINT
  8
3
  10
58.7920
  20
308.8660
  0
POINT
  8
3
  10
71.8600
  20
303.9190
  0
POINT
  8
3
  10
86.0670
  20
300.6580
  0
POINT
  8
2
  10
100.5810
  20
299.3140
  0
POINT
  8
2
  10
94.2150
  20
274.3240
  0
POINT
  8
3
  10
74.1590
  20
279.9160
  0
POINT
  8
3
  10
53.9840
  20
285.0640
  0
POINT
  8
2
  10
-5.0520
  20
298.4840
  0
POINT
  8
3
  10
-33.8490
  20
302.9930
  0
POINT
  8
3
  10
-62.7470
  20
306.8020
  0
POINT
  8
3
  10
-87.2190
  20
309.3710
  0
POINT
  8
2
  10
-111.7560
  20
311.2360
  0
POINT
  8
2
  10
-500.9620
  20
311.2370
  0
POINT
  8
2
  10
-502.5850
  20
371.2370
  0
POINT
  8
3
  10
-422.6100
  20
371.2360
  0
POINT
  8
2
  10
15.8560
  20
381.2360
  0
POINT
  8
3
  10
17.3420
  20
373.0150
  0
POINT
  8
3
  10
19.1240
  20
364.9350
  0
POINT
  8
3
  10
21.9610
  20
357.1630
  0
POINT
  8
3
  10
25.8000
  20
349.8440
  0
POINT
  8
3
  10
31.3920
  20
342.1190
  0
POINT
  8
3
  10
37.8210
  20
335.0870
  0
POINT
  8
3
  10
44.9840
  20
328.8340
  0
POINT
  8
3
  10
53.3940
  20
323.0960
  0
POINT
  8
3
  10
62.3280
  20
318.2620
  0
POINT
  8
3
  10
71.7360
  20
314.4580
  0
POINT
  8
3
  10
81.3200
  20
311.7620
  0
POINT
  8
3
  10
91.1140
  20
310.0430
  0
POINT
  8
3
  10
101.0040
  20
309.3060
  0
POINT
  8
2
  10
113.2010
  20
308.7900
  0
POINT
  8
2
  10
101.3030
  20
261.9070
  0
POINT
  8
3
  10
91.4760
  20
264.7060
  0
POINT
  8
3
  10
71.6010
  20
270.2490
  0
POINT
  8
3
  10
51.6560
  20
275.3390
  0
POINT
  8
2
  10
-6.9090
  20
288.6550
  0
POINT
  8
3
  10
-35.3910
  20
293.1110
  0
POINT
  8
3
  10
-63.9280
  20
296.8720
  0
POINT
  8
3
  10
-87.8260
  20
299.3830
  0
POINT
  8
3
  10
-111.7450
  20
301.2120
  0
POINT
  8
2
  10
-112.0990
  20
301.2360
  0
POINT
  8
3
  10
-500.9620
  20
301.2370
  0
POINT
  8
2
  10
-510.6950
  20
301.2370
  0
POINT
  8
2
  10
-512.8590
  20
381.2370
  0
POINT
  8
4
  10
-111.7450
  20
301.2120
  30
10.0000
  50
90.0609
  0
TEXT
  8
7
  10
-56.5100
  20
378.2360
  40
8.0000
  1
# 1
  0
TEXT
  8
2
  10
7.5020
  20
371.2360
  40
8.0000
  1
# 51
  0
TEXT
  8
14
  10
7.5020
  20
371.2360
  40
8.0000
  1
# 51
  0
TEXT
  8
2
  10
100.5810
  20
299.3140
  40
8.0000
  1
# 110
  0
TEXT
  8
14
  10
100.5810
  20
299.3140
  40
8.0000
  1
# 110
  0
TEXT
  8
2
  10
94.2150
  20
274.3240
  40
8.0000
  1
# 110
  0
TEXT
  8
14
  10
94.2150
  20
274.3240
  40
8.0000
  1
# 110
  0
TEXT
  8
2
  10
-111.7560
  20
311.2360
  40
8.0000
  1
# 1
  0
TEXT
  8
14
  10
-111.7560
  20
311.2360
  40
8.0000
  1
# 1
  0
TEXT
  8
2
  10
-500.9620
  20
311.2370
  40
8.0000
  1
# 4
  0
TEXT
  8
14
  10
-500.9620
  20
311.2370
  40
8.0000
  1
# 4
  0
TEXT
  8
2
  10
-502.5850
  20
371.2370
  40
8.0000
  1
# 143
  0
TEXT
  8
14
  10
-502.5850
  20
371.2370
  40
8.0000
  1
# 143
  0
TEXT
  8
3
  10
-422.6100
  20
371.2360
  40
8.0000
  1
# 1
  0
TEXT
  8
14
  10
-422.6100
  20
371.2360
  40
8.0000
  1
# 1
  0
TEXT
  8
2
  10
15.8560
  20
381.2360
  40
8.0000
  1
# 144
  0
TEXT
  8
1
  10
15.8560
  20
381.2360
  40
8.0000
  1
# 144
  0
TEXT
  8
3
  10
17.3420
  20
373.0150
  40
8.0000
  1
# 145
  0
TEXT
  8
1
  10
17.3420
  20
373.0150
  40
8.0000
  1
# 145
  0
TEXT
  8
3
  10
101.0040
  20
309.3060
  40
8.0000
  1
# 146
  0
TEXT
  8
1
  10
101.0040
  20
309.3060
  40
8.0000
  1
# 146
  0
TEXT
  8
2
  10
113.2010
  20
308.7900
  40
8.0000
  1
# 147
  0
TEXT
  8
1
  10
113.2010
  20
308.7900
  40
8.0000
  1
# 147
  0
TEXT
  8
2
  10
101.3030
  20
261.9070
  40
8.0000
  1
# 148
  0
TEXT
  8
1
  10
101.3030
  20
261.9070
  40
8.0000
  1
# 148
  0
TEXT
  8
3
  10
91.4760
  20
264.7060
  40
8.0000
  1
# 149
  0
TEXT
  8
1
  10
91.4760
  20
264.7060
  40
8.0000
  1
# 149
  0
TEXT
  8
3
  10
-111.7450
  20
301.2120
  40
8.0000
  1
# 150
  0
TEXT
  8
1
  10
-111.7450
  20
301.2120
  40
8.0000
  1
# 150
  0
TEXT
  8
2
  10
-112.0990
  20
301.2360
  40
8.0000
  1
# 151
  0
TEXT
  8
1
  10
-112.0990
  20
301.2360
  40
8.0000
  1
# 151
  0
TEXT
  8
3
  10
-500.9620
  20
301.2370
  40
8.0000
  1
# 4
  0
TEXT
  8
1
  10
-500.9620
  20
301.2370
  40
8.0000
  1
# 4
  0
TEXT
  8
2
  10
-510.6950
  20
301.2370
  40
8.0000
  1
# 4
  0
TEXT
  8
1
  10
-510.6950
  20
301.2370
  40
8.0000
  1
# 4
  0
TEXT
  8
2
  10
-512.8590
  20
381.2370
  40
8.0000
  1
# 4
  0
TEXT
  8
1
  10
-512.8590
  20
381.2370
  40
8.0000
  1
# 4
  0
TEXT
  8
4
  10
-111.7450
  20
301.2120
  40
8.0000
  1
# 150
  0
TEXT
  8
1
  10
-512.8588
  20
251.9073
  40
8.0000
  1
Piece Name: FACING 2P
  0
TEXT
  8
1
  10
-512.8588
  20
241.9073
  40
8.0000
  1
Size: 42
  0
TEXT
  8
1
  10
-512.8588
  20
231.9073
  40
8.0000
  1
Quantity: 1
  0
TEXT
  8
1
  10
-512.8588
  20
221.9073
  40
8.0000
  1
Annotation: 
  0
TEXT
  8
1
  10
-512.8588
  20
211.9073
  40
8.0000
  1
Category: 
  0
LINE
  8
7
  10
-388.7330
  20
378.2360
  11
-56.5100
  21
378.2360
  0
ENDBLK
  0
BLOCK
  8
1
  2
LINING_FRONT_2P-S_42
  10
0.0000
  20
0.0000
70
0
  0
POLYLINE
  8
14
  66
1
  70
1
  0
VERTEX
  8
14
  10
-436.2980
  20
311.2360
  42
0.0000
  0
VERTEX
  8
14
  10
-111.7550
  20
311.2390
  42
0.0000
  0
VERTEX
  8
14
  10
-87.2190
  20
309.3740
  42
0.0000
  0
VERTEX
  8
14
  10
-62.7460
  20
306.8050
  42
0.0000
  0
VERTEX
  8
14
  10
-33.8480
  20
302.9960
  42
0.0000
  0
VERTEX
  8
14
  10
-5.0510
  20
298.4870
  42
0.0000
  0
VERTEX
  8
14
  10
53.9850
  20
285.0680
  42
0.0000
  0
VERTEX
  8
14
  10
74.1560
  20
279.9060
  42
0.0000
  0
VERTEX
  8
14
  10
94.2040
  20
274.2870
  42
0.0000
  0
VERTEX
  8
14
  10
91.8540
  20
265.6280
  42
0.0000
  0
VERTEX
  8
14
  10
89.5030
  20
256.9690
  42
0.0000
  0
VERTEX
  8
14
  10
86.7210
  20
247.0360
  42
0.0000
  0
VERTEX
  8
14
  10
83.7400
  20
237.1600
  42
0.0000
  0
VERTEX
  8
14
  10
80.5630
  20
227.3450
  42
0.0000
  0
VERTEX
  8
14
  10
77.1900
  20
217.5960
  42
0.0000
  0
VERTEX
  8
14
  10
73.1970
  20
205.4020
  42
0.0000
  0
VERTEX
  8
14
  10
68.6960
  20
193.3860
  42
0.0000
  0
VERTEX
  8
14
  10
63.5650
  20
181.2470
  42
0.0000
  0
VERTEX
  8
14
  10
57.9420
  20
169.3280
  42
0.0000
  0
VERTEX
  8
14
  10
54.4750
  20
161.9240
  42
0.0000
  0
VERTEX
  8
14
  10
50.7490
  20
154.6480
  42
0.0000
  0
VERTEX
  8
14
  10
46.9040
  20
147.7610
  42
0.0000
  0
VERTEX
  8
14
  10
42.8090
  20
141.0200
  42
0.0000
  0
VERTEX
  8
14
  10
31.1720
  20
148.4980
  42
0.0000
  0
VERTEX
  8
14
  10
18.8930
  20
154.8650
  42
0.0000
  0
VERTEX
  8
14
  10
6.0760
  20
160.0670
  42
0.0000
  0
VERTEX
  8
14
  10
-12.7590
  20
165.9530
  42
0.0000
  0
VERTEX
  8
14
  10
-31.9350
  20
170.6060
  42
0.0000
  0
VERTEX
  8
14
  10
-51.3730
  20
174.0070
  42
0.0000
  0
VERTEX
  8
14
  10
-64.2250
  20
175.8180
  42
0.0000
  0
VERTEX
  8
14
  10
-77.1770
  20
176.6500
  42
0.0000
  0
VERTEX
  8
14
  10
-90.1550
  20
176.4990
  42
0.0000
  0
VERTEX
  8
14
  10
-103.0850
  20
175.3650
  42
0.0000
  0
VERTEX
  8
14
  10
-114.2090
  20
173.4650
  42
0.0000
  0
VERTEX
  8
14
  10
-125.1250
  20
170.6020
  42
0.0000
  0
VERTEX
  8
14
  10
-135.7490
  20
166.7950
  42
0.0000
  0
VERTEX
  8
14
  10
-146.0000
  20
162.0760
  42
0.0000
  0
VERTEX
  8
14
  10
-150.9230
  20
157.9010
  42
0.0000
  0
VERTEX
  8
14
  10
-155.4360
  20
153.2850
  42
0.0000
  0
VERTEX
  8
14
  10
-159.4970
  20
148.2670
  42
0.0000
  0
VERTEX
  8
14
  10
-163.0720
  20
142.8920
  42
0.0000
  0
VERTEX
  8
14
  10
-166.1300
  20
137.2070
  42
0.0000
  0
VERTEX
  8
14
  10
-168.4240
  20
131.6920
  42
0.0000
  0
VERTEX
  8
14
  10
-170.1480
  20
125.9730
  42
0.0000
  0
VERTEX
  8
14
  10
-171.2840
  20
120.1090
  42
0.0000
  0
VERTEX
  8
14
  10
-171.8210
  20
114.1600
  42
0.0000
  0
VERTEX
  8
14
  10
-171.7530
  20
108.1870
  42
0.0000
  0
VERTEX
  8
14
  10
-418.0380
  20
92.0970
  42
0.0000
  0
VERTEX
  8
14
  10
-422.6840
  20
135.8600
  42
0.0000
  0
VERTEX
  8
14
  10
-429.3830
  20
192.8720
  42
0.0000
  0
VERTEX
  8
14
  10
-434.4700
  20
261.2950
  42
0.0000
  0
VERTEX
  8
14
  10
-435.6560
  20
286.2550
  42
0.0000
  0
SEQEND
  0
POLYLINE
  8
1
  66
1
  70
1
  0
VERTEX
  8
1
  10
-446.5030
  20
321.2360
  42
0.0000
  0
VERTEX
  8
1
  10
-111.4120
  20
321.2330
  42
0.0000
  0
VERTEX
  8
1
  10
-111.0690
  20
321.2100
  42
0.0000
  0
VERTEX
  8
1
  10
-86.2840
  20
319.3300
  42
0.0000
  0
VERTEX
  8
1
  10
-61.5650
  20
316.7350
  42
0.0000
  0
VERTEX
  8
1
  10
-32.3290
  20
312.8800
  42
0.0000
  0
VERTEX
  8
1
  10
-3.1970
  20
308.3140
  42
0.0000
  0
VERTEX
  8
1
  10
11.9250
  20
305.0660
  42
0.0000
  0
VERTEX
  8
1
  10
41.6340
  20
298.3110
  42
0.0000
  0
VERTEX
  8
1
  10
66.6200
  20
292.2180
  42
0.0000
  0
VERTEX
  8
1
  10
96.9580
  20
283.9010
  42
0.0000
  0
VERTEX
  8
1
  10
106.4660
  20
281.1770
  42
0.0000
  0
VERTEX
  8
1
  10
103.8470
  20
271.6390
  42
0.0000
  0
VERTEX
  8
1
  10
93.2830
  20
234.1720
  42
0.0000
  0
VERTEX
  8
1
  10
80.3330
  20
195.7560
  42
0.0000
  0
VERTEX
  8
1
  10
73.2000
  20
178.3280
  42
0.0000
  0
VERTEX
  8
1
  10
65.2480
  20
161.2640
  42
0.0000
  0
VERTEX
  8
1
  10
58.6560
  20
148.3030
  42
0.0000
  0
VERTEX
  8
1
  10
51.3080
  20
135.7510
  42
0.0000
  0
VERTEX
  8
1
  10
45.7850
  20
126.8410
  42
0.0000
  0
VERTEX
  8
1
  10
37.1450
  20
132.7790
  42
0.0000
  0
VERTEX
  8
1
  10
26.2520
  20
139.7910
  42
0.0000
  0
VERTEX
  8
1
  10
14.7510
  20
145.7630
  42
0.0000
  0
VERTEX
  8
1
  10
2.7410
  20
150.6380
  42
0.0000
  0
VERTEX
  8
1
  10
-24.7280
  20
158.7540
  42
0.0000
  0
VERTEX
  8
1
  10
-52.8730
  20
164.1110
  42
0.0000
  0
VERTEX
  8
1
  10
-53.1440
  20
164.1600
  42
0.0000
  0
VERTEX
  8
1
  10
-63.7290
  20
165.6840
  42
0.0000
  0
VERTEX
  8
1
  10
-74.3910
  20
166.5430
  42
0.0000
  0
VERTEX
  8
1
  10
-86.6080
  20
166.6320
  42
0.0000
  0
VERTEX
  8
1
  10
-98.7980
  20
165.7950
  42
0.0000
  0
VERTEX
  8
1
  10
-109.3240
  20
164.2490
  42
0.0000
  0
VERTEX
  8
1
  10
-119.6740
  20
161.7880
  42
0.0000
  0
VERTEX
  8
1
  10
-129.9070
  20
158.3460
  42
0.0000
  0
VERTEX
  8
1
  10
-139.7830
  20
153.9930
  42
0.0000
  0
VERTEX
  8
1
  10
-140.5310
  20
153.6310
  42
0.0000
  0
VERTEX
  8
1
  10
-145.5360
  20
149.1880
  42
0.0000
  0
VERTEX
  8
1
  10
-150.0040
  20
144.2060
  42
0.0000
  0
VERTEX
  8
1
  10
-153.8780
  20
138.7480
  42
0.0000
  0
VERTEX
  8
1
  10
-157.1020
  20
132.8940
  42
0.0000
  0
VERTEX
  8
1
  10
-159.0110
  20
128.2440
  42
0.0000
  0
VERTEX
  8
1
  10
-160.4560
  20
123.4420
  42
0.0000
  0
VERTEX
  8
1
  10
-161.4000
  20
118.5150
  42
0.0000
  0
VERTEX
  8
1
  10
-161.8130
  20
113.5170
  42
0.0000
  0
VERTEX
  8
1
  10
-161.7580
  20
108.4990
  42
0.0000
  0
VERTEX
  8
1
  10
-161.4560
  20
98.8380
  42
0.0000
  0
VERTEX
  8
1
  10
-426.9990
  20
81.4900
  42
0.0000
  0
VERTEX
  8
1
  10
-427.9850
  20
91.0730
  42
0.0000
  0
VERTEX
  8
1
  10
-432.6190
  20
134.7170
  42
0.0000
  0
VERTEX
  8
1
  10
-439.3300
  20
191.8470
  42
0.0000
  0
VERTEX
  8
1
  10
-440.0780
  20
200.5140
  42
0.0000
  0
VERTEX
  8
1
  10
-440.8270
  20
209.1810
  42
0.0000
  0
VERTEX
  8
1
  10
-444.4560
  20
260.7670
  42
0.0000
  0
VERTEX
  8
1
  10
-445.6490
  20
285.8910
  42
0.0000
  0
VERTEX
  8
1
  10
-446.2960
  20
311.0330
  42
0.0000
  0
SEQEND
  0
POINT
  8
2
  10
-436.2980
  20
311.2360
  0
POINT
  8
2
  10
-111.7550
  20
311.2390
  0
POINT
  8
3
  10
-87.2190
  20
309.3740
  0
POINT
  8
3
  10
-62.7460
  20
306.8050
  0
POINT
  8
3
  10
-33.8480
  20
302.9960
  0
POINT
  8
2
  10
-5.0510
  20
298.4870
  0
POINT
  8
3
  10
53.9850
  20
285.0680
  0
POINT
  8
3
  10
74.1560
  20
279.9060
  0
POINT
  8
2
  10
94.2040
  20
274.2870
  0
POINT
  8
3
  10
91.8540
  20
265.6280
  0
POINT
  8
3
  10
89.5030
  20
256.9690
  0
POINT
  8
3
  10
86.7210
  20
247.0360
  0
POINT
  8
3
  10
83.7400
  20
237.1600
  0
POINT
  8
3
  10
80.5630
  20
227.3450
  0
POINT
  8
3
  10
77.1900
  20
217.5960
  0
POINT
  8
3
  10
73.1970
  20
205.4020
  0
POINT
  8
3
  10
68.6960
  20
193.3860
  0
POINT
  8
3
  10
63.5650
  20
181.2470
  0
POINT
  8
3
  10
57.9420
  20
169.3280
  0
POINT
  8
3
  10
54.4750
  20
161.9240
  0
POINT
  8
3
  10
50.7490
  20
154.6480
  0
POINT
  8
3
  10
46.9040
  20
147.7610
  0
POINT
  8
2
  10
42.8090
  20
141.0200
  0
POINT
  8
3
  10
31.1720
  20
148.4980
  0
POINT
  8
3
  10
18.8930
  20
154.8650
  0
POINT
  8
3
  10
6.0760
  20
160.0670
  0
POINT
  8
3
  10
-12.7590
  20
165.9530
  0
POINT
  8
3
  10
-31.9350
  20
170.6060
  0
POINT
  8
3
  10
-51.3730
  20
174.0070
  0
POINT
  8
3
  10
-64.2250
  20
175.8180
  0
POINT
  8
3
  10
-77.1770
  20
176.6500
  0
POINT
  8
3
  10
-90.1550
  20
176.4990
  0
POINT
  8
3
  10
-103.0850
  20
175.3650
  0
POINT
  8
3
  10
-114.2090
  20
173.4650
  0
POINT
  8
3
  10
-125.1250
  20
170.6020
  0
POINT
  8
3
  10
-135.7490
  20
166.7950
  0
POINT
  8
3
  10
-146.0000
  20
162.0760
  0
POINT
  8
3
  10
-150.9230
  20
157.9010
  0
POINT
  8
3
  10
-155.4360
  20
153.2850
  0
POINT
  8
3
  10
-159.4970
  20
148.2670
  0
POINT
  8
3
  10
-163.0720
  20
142.8920
  0
POINT
  8
3
  10
-166.1300
  20
137.2070
  0
POINT
  8
3
  10
-168.4240
  20
131.6920
  0
POINT
  8
3
  10
-170.1480
  20
125.9730
  0
POINT
  8
3
  10
-171.2840
  20
120.1090
  0
POINT
  8
3
  10
-171.8210
  20
114.1600
  0
POINT
  8
2
  10
-171.7530
  20
108.1870
  0
POINT
  8
2
  10
-418.0380
  20
92.0970
  0
POINT
  8
3
  10
-422.6840
  20
135.8600
  0
POINT
  8
3
  10
-429.3830
  20
192.8720
  0
POINT
  8
3
  10
-434.4700
  20
261.2950
  0
POINT
  8
3
  10
-435.6560
  20
286.2550
  0
POINT
  8
2
  10
-446.5030
  20
321.2360
  0
POINT
  8
2
  10
-111.4120
  20
321.2330
  0
POINT
  8
3
  10
-111.0690
  20
321.2100
  0
POINT
  8
3
  10
-86.2840
  20
319.3300
  0
POINT
  8
3
  10
-61.5650
  20
316.7350
  0
POINT
  8
3
  10
-32.3290
  20
312.8800
  0
POINT
  8
3
  10
-3.1970
  20
308.3140
  0
POINT
  8
3
  10
11.9250
  20
305.0660
  0
POINT
  8
3
  10
41.6340
  20
298.3110
  0
POINT
  8
3
  10
66.6200
  20
292.2180
  0
POINT
  8
3
  10
96.9580
  20
283.9010
  0
POINT
  8
2
  10
106.4660
  20
281.1770
  0
POINT
  8
3
  10
103.8470
  20
271.6390
  0
POINT
  8
3
  10
93.2830
  20
234.1720
  0
POINT
  8
3
  10
80.3330
  20
195.7560
  0
POINT
  8
3
  10
73.2000
  20
178.3280
  0
POINT
  8
3
  10
65.2480
  20
161.2640
  0
POINT
  8
3
  10
58.6560
  20
148.3030
  0
POINT
  8
3
  10
51.3080
  20
135.7510
  0
POINT
  8
2
  10
45.7850
  20
126.8410
  0
POINT
  8
3
  10
37.1450
  20
132.7790
  0
POINT
  8
3
  10
26.2520
  20
139.7910
  0
POINT
  8
3
  10
14.7510
  20
145.7630
  0
POINT
  8
3
  10
2.7410
  20
150.6380
  0
POINT
  8
3
  10
-24.7280
  20
158.7540
  0
POINT
  8
3
  10
-52.8730
  20
164.1110
  0
POINT
  8
3
  10
-53.1440
  20
164.1600
  0
POINT
  8
3
  10
-63.7290
  20
165.6840
  0
POINT
  8
3
  10
-74.3910
  20
166.5430
  0
POINT
  8
3
  10
-86.6080
  20
166.6320
  0
POINT
  8
3
  10
-98.7980
  20
165.7950
  0
POINT
  8
3
  10
-109.3240
  20
164.2490
  0
POINT
  8
3
  10
-119.6740
  20
161.7880
  0
POINT
  8
3
  10
-129.9070
  20
158.3460
  0
POINT
  8
3
  10
-139.7830
  20
153.9930
  0
POINT
  8
2
  10
-140.5310
  20
153.6310
  0
POINT
  8
3
  10
-145.5360
  20
149.1880
  0
POINT
  8
3
  10
-150.0040
  20
144.2060
  0
POINT
  8
3
  10
-153.8780
  20
138.7480
  0
POINT
  8
3
  10
-157.1020
  20
132.8940
  0
POINT
  8
3
  10
-159.0110
  20
128.2440
  0
POINT
  8
3
  10
-160.4560
  20
123.4420
  0
POINT
  8
3
  10
-161.4000
  20
118.5150
  0
POINT
  8
3
  10
-161.8130
  20
113.5170
  0
POINT
  8
3
  10
-161.7580
  20
108.4990
  0
POINT
  8
2
  10
-161.4560
  20
98.8380
  0
POINT
  8
2
  10
-426.9990
  20
81.4900
  0
POINT
  8
3
  10
-427.9850
  20
91.0730
  0
POINT
  8
3
  10
-432.6190
  20
134.7170
  0
POINT
  8
3
  10
-439.3300
  20
191.8470
  0
POINT
  8
3
  10
-440.0780
  20
200.5140
  0
POINT
  8
3
  10
-440.8270
  20
209.1810
  0
POINT
  8
3
  10
-444.4560
  20
260.7670
  0
POINT
  8
3
  10
-445.6490
  20
285.8910
  0
POINT
  8
3
  10
-446.2960
  20
311.0330
  0
POINT
  8
4
  10
-111.0690
  20
321.2100
  30
10.0000
  50
-93.9358
  0
POINT
  8
4
  10
-53.1440
  20
164.1600
  30
10.0000
  50
79.8047
  0
POINT
  8
4
  10
-139.7830
  20
153.9930
  30
10.0000
  50
127.5662
  0
TEXT
  8
2
  10
-436.2980
  20
311.2360
  40
8.0000
  1
# 4
  0
TEXT
  8
14
  10
-436.2980
  20
311.2360
  40
8.0000
  1
# 4
  0
TEXT
  8
2
  10
-111.7550
  20
311.2390
  40
8.0000
  1
# 1
  0
TEXT
  8
14
  10
-111.7550
  20
311.2390
  40
8.0000
  1
# 1
  0
TEXT
  8
2
  10
94.2040
  20
274.2870
  40
8.0000
  1
# 110
  0
TEXT
  8
14
  10
94.2040
  20
274.2870
  40
8.0000
  1
# 110
  0
TEXT
  8
2
  10
42.8090
  20
141.0200
  40
8.0000
  1
# 11
  0
TEXT
  8
14
  10
42.8090
  20
141.0200
  40
8.0000
  1
# 11
  0
TEXT
  8
3
  10
-51.3730
  20
174.0070
  40
8.0000
  1
# 109
  0
TEXT
  8
14
  10
-51.3730
  20
174.0070
  40
8.0000
  1
# 109
  0
TEXT
  8
3
  10
-146.0000
  20
162.0760
  40
8.0000
  1
# 152
  0
TEXT
  8
14
  10
-146.0000
  20
162.0760
  40
8.0000
  1
# 152
  0
TEXT
  8
2
  10
-171.7530
  20
108.1870
  40
8.0000
  1
# 14
  0
TEXT
  8
14
  10
-171.7530
  20
108.1870
  40
8.0000
  1
# 14
  0
TEXT
  8
2
  10
-418.0380
  20
92.0970
  40
8.0000
  1
# 15
  0
TEXT
  8
14
  10
-418.0380
  20
92.0970
  40
8.0000
  1
# 15
  0
TEXT
  8
2
  10
-446.5030
  20
321.2360
  40
8.0000
  1
# 153
  0
TEXT
  8
1
  10
-446.5030
  20
321.2360
  40
8.0000
  1
# 153
  0
TEXT
  8
2
  10
-111.4120
  20
321.2330
  40
8.0000
  1
# 154
  0
TEXT
  8
1
  10
-111.4120
  20
321.2330
  40
8.0000
  1
# 154
  0
TEXT
  8
3
  10
-111.0690
  20
321.2100
  40
8.0000
  1
# 155
  0
TEXT
  8
1
  10
-111.0690
  20
321.2100
  40
8.0000
  1
# 155
  0
TEXT
  8
3
  10
96.9580
  20
283.9010
  40
8.0000
  1
# 156
  0
TEXT
  8
1
  10
96.9580
  20
283.9010
  40
8.0000
  1
# 156
  0
TEXT
  8
2
  10
106.4660
  20
281.1770
  40
8.0000
  1
# 157
  0
TEXT
  8
1
  10
106.4660
  20
281.1770
  40
8.0000
  1
# 157
  0
TEXT
  8
3
  10
103.8470
  20
271.6390
  40
8.0000
  1
# 158
  0
TEXT
  8
1
  10
103.8470
  20
271.6390
  40
8.0000
  1
# 158
  0
TEXT
  8
3
  10
51.3080
  20
135.7510
  40
8.0000
  1
# 159
  0
TEXT
  8
1
  10
51.3080
  20
135.7510
  40
8.0000
  1
# 159
  0
TEXT
  8
2
  10
45.7850
  20
126.8410
  40
8.0000
  1
# 160
  0
TEXT
  8
1
  10
45.7850
  20
126.8410
  40
8.0000
  1
# 160
  0
TEXT
  8
3
  10
37.1450
  20
132.7790
  40
8.0000
  1
# 161
  0
TEXT
  8
1
  10
37.1450
  20
132.7790
  40
8.0000
  1
# 161
  0
TEXT
  8
3
  10
-52.8730
  20
164.1110
  40
8.0000
  1
# 162
  0
TEXT
  8
1
  10
-52.8730
  20
164.1110
  40
8.0000
  1
# 162
  0
TEXT
  8
3
  10
-53.1440
  20
164.1600
  40
8.0000
  1
# 163
  0
TEXT
  8
1
  10
-53.1440
  20
164.1600
  40
8.0000
  1
# 163
  0
TEXT
  8
3
  10
-139.7830
  20
153.9930
  40
8.0000
  1
# 164
  0
TEXT
  8
1
  10
-139.7830
  20
153.9930
  40
8.0000
  1
# 164
  0
TEXT
  8
2
  10
-140.5310
  20
153.6310
  40
8.0000
  1
# 165
  0
TEXT
  8
1
  10
-140.5310
  20
153.6310
  40
8.0000
  1
# 165
  0
TEXT
  8
3
  10
-161.7580
  20
108.4990
  40
8.0000
  1
# 166
  0
TEXT
  8
1
  10
-161.7580
  20
108.4990
  40
8.0000
  1
# 166
  0
TEXT
  8
2
  10
-161.4560
  20
98.8380
  40
8.0000
  1
# 167
  0
TEXT
  8
1
  10
-161.4560
  20
98.8380
  40
8.0000
  1
# 167
  0
TEXT
  8
2
  10
-426.9990
  20
81.4900
  40
8.0000
  1
# 168
  0
TEXT
  8
1
  10
-426.9990
  20
81.4900
  40
8.0000
  1
# 168
  0
TEXT
  8
3
  10
-427.9850
  20
91.0730
  40
8.0000
  1
# 169
  0
TEXT
  8
1
  10
-427.9850
  20
91.0730
  40
8.0000
  1
# 169
  0
TEXT
  8
3
  10
-446.2960
  20
311.0330
  40
8.0000
  1
# 170
  0
TEXT
  8
1
  10
-446.2960
  20
311.0330
  40
8.0000
  1
# 170
  0
TEXT
  8
4
  10
-111.0690
  20
321.2100
  40
8.0000
  1
# 155
  0
TEXT
  8
4
  10
-53.1440
  20
164.1600
  40
8.0000
  1
# 163
  0
TEXT
  8
4
  10
-139.7830
  20
153.9930
  40
8.0000
  1
# 164
  0
TEXT
  8
1
  10
-446.5030
  20
71.4900
  40
8.0000
  1
Piece Name: LINING FRONT 2P
  0
TEXT
  8
1
  10
-446.5030
  20
61.4900
  40
8.0000
  1
Size: 42
  0
TEXT
  8
1
  10
-446.5030
  20
51.4900
  40
8.0000
  1
Quantity: 1
  0
TEXT
  8
1
  10
-446.5030
  20
41.4900
  40
8.0000
  1
Annotation: 
  0
TEXT
  8
1
  10
-446.5030
  20
31.4900
  40
8.0000
  1
Category: 
  0
LINE
  8
7
  10
-293.0850
  20
234.2060
  11
-44.2690
  21
234.2060
  0
ENDBLK
  0
BLOCK
  8
1
  2
PIPING_FR_2P-S_42
  10
0.0000
  20
0.0000
70
0
  0
POLYLINE
  8
14
  66
1
  70
1
  0
VERTEX
  8
14
  10
594.0630
  20
-62.0690
  42
0.0000
  0
VERTEX
  8
14
  10
594.0630
  20
-69.0690
  42
0.0000
  0
VERTEX
  8
14
  10
-61.9370
  20
-69.0690
  42
0.0000
  0
VERTEX
  8
14
  10
-61.9370
  20
-62.0690
  42
0.0000
  0
SEQEND
  0
POLYLINE
  8
1
  66
1
  70
1
  0
VERTEX
  8
1
  10
604.0630
  20
-52.0690
  42
0.0000
  0
VERTEX
  8
1
  10
604.0630
  20
-65.5690
  42
0.0000
  0
VERTEX
  8
1
  10
604.0630
  20
-79.0690
  42
0.0000
  0
VERTEX
  8
1
  10
-71.9370
  20
-79.0690
  42
0.0000
  0
VERTEX
  8
1
  10
-71.9370
  20
-65.5690
  42
0.0000
  0
VERTEX
  8
1
  10
-71.9370
  20
-52.0690
  42
0.0000
  0
SEQEND
  0
POINT
  8
2
  10
594.0630
  20
-62.0690
  0
POINT
  8
2
  10
594.0630
  20
-69.0690
  0
POINT
  8
2
  10
-61.9370
  20
-69.0690
  0
POINT
  8
2
  10
-61.9370
  20
-62.0690
  0
POINT
  8
2
  10
604.0630
  20
-52.0690
  0
POINT
  8
3
  10
604.0630
  20
-65.5690
  0
POINT
  8
2
  10
604.0630
  20
-79.0690
  0
POINT
  8
2
  10
-71.9370
  20
-79.0690
  0
POINT
  8
3
  10
-71.9370
  20
-65.5690
  0
POINT
  8
2
  10
-71.9370
  20
-52.0690
  0
POINT
  8
4
  10
604.0630
  20
-65.5690
  30
10.0000
  50
180.0000
  0
POINT
  8
4
  10
-71.9370
  20
-65.5690
  30
10.0000
  50
-0.0000
  0
TEXT
  8
2
  10
594.0630
  20
-62.0690
  40
8.0000
  1
# 51
  0
TEXT
  8
14
  10
594.0630
  20
-62.0690
  40
8.0000
  1
# 51
  0
TEXT
  8
2
  10
594.0630
  20
-69.0690
  40
8.0000
  1
# 51
  0
TEXT
  8
14
  10
594.0630
  20
-69.0690
  40
8.0000
  1
# 51
  0
TEXT
  8
2
  10
-61.9370
  20
-69.0690
  40
8.0000
  1
# 4
  0
TEXT
  8
14
  10
-61.9370
  20
-69.0690
  40
8.0000
  1
# 4
  0
TEXT
  8
2
  10
-61.9370
  20
-62.0690
  40
8.0000
  1
# 4
  0
TEXT
  8
14
  10
-61.9370
  20
-62.0690
  40
8.0000
  1
# 4
  0
TEXT
  8
2
  10
604.0630
  20
-52.0690
  40
8.0000
  1
# 51
  0
TEXT
  8
1
  10
604.0630
  20
-52.0690
  40
8.0000
  1
# 51
  0
TEXT
  8
3
  10
604.0630
  20
-65.5690
  40
8.0000
  1
# 51
  0
TEXT
  8
1
  10
604.0630
  20
-65.5690
  40
8.0000
  1
# 51
  0
TEXT
  8
2
  10
604.0630
  20
-79.0690
  40
8.0000
  1
# 51
  0
TEXT
  8
1
  10
604.0630
  20
-79.0690
  40
8.0000
  1
# 51
  0
TEXT
  8
2
  10
-71.9370
  20
-79.0690
  40
8.0000
  1
# 4
  0
TEXT
  8
1
  10
-71.9370
  20
-79.0690
  40
8.0000
  1
# 4
  0
TEXT
  8
3
  10
-71.9370
  20
-65.5690
  40
8.0000
  1
# 4
  0
TEXT
  8
1
  10
-71.9370
  20
-65.5690
  40
8.0000
  1
# 4
  0
TEXT
  8
2
  10
-71.9370
  20
-52.0690
  40
8.0000
  1
# 4
  0
TEXT
  8
1
  10
-71.9370
  20
-52.0690
  40
8.0000
  1
# 4
  0
TEXT
  8
4
  10
604.0630
  20
-65.5690
  40
8.0000
  1
# 51
  0
TEXT
  8
4
  10
-71.9370
  20
-65.5690
  40
8.0000
  1
# 4
  0
TEXT
  8
1
  10
-71.9371
  20
-89.0692
  40
8.0000
  1
Piece Name: PIPING FR 2P
  0
TEXT
  8
1
  10
-71.9371
  20
-99.0692
  40
8.0000
  1
Size: 42
  0
TEXT
  8
1
  10
-71.9371
  20
-109.0692
  40
8.0000
  1
Quantity: 1
  0
TEXT
  8
1
  10
-71.9371
  20
-119.0692
  40
8.0000
  1
Annotation: 
  0
TEXT
  8
1
  10
-71.9371
  20
-129.0692
  40
8.0000
  1
Category: 
  0
LINE
  8
7
  10
29.7140
  20
-65.1880
  11
258.1350
  21
-65.1880
  0
ENDBLK
  0
BLOCK
  8
1
  2
BORDER_FOR_SEAM_8P-S_42
  10
0.0000
  20
0.0000
70
0
  0
POLYLINE
  8
14
  66
1
  70
1
  0
VERTEX
  8
14
  10
-67.1600
  20
61.0830
  42
0.0000
  0
VERTEX
  8
14
  10
639.9470
  20
-646.0230
  42
0.0000
  0
VERTEX
  8
14
  10
613.0770
  20
-672.8940
  42
0.0000
  0
VERTEX
  8
14
  10
-94.0300
  20
34.2130
  42
0.0000
  0
SEQEND
  0
POLYLINE
  8
1
  66
1
  70
1
  0
VERTEX
  8
1
  10
-67.1599
  20
61.0829
  42
0.0000
  0
VERTEX
  8
1
  10
639.9469
  20
-646.0231
  42
0.0000
  0
VERTEX
  8
1
  10
613.0769
  20
-672.8939
  42
0.0000
  0
VERTEX
  8
1
  10
-94.0299
  20
34.2131
  42
0.0000
  0
SEQEND
  0
POINT
  8
2
  10
-67.1600
  20
61.0830
  0
POINT
  8
2
  10
639.9470
  20
-646.0230
  0
POINT
  8
2
  10
613.0770
  20
-672.8940
  0
POINT
  8
2
  10
-94.0300
  20
34.2130
  0
POINT
  8
2
  10
-67.1599
  20
61.0829
  0
POINT
  8
2
  10
639.9469
  20
-646.0231
  0
POINT
  8
2
  10
613.0769
  20
-672.8939
  0
POINT
  8
2
  10
-94.0299
  20
34.2131
  0
TEXT
  8
2
  10
-67.1600
  20
61.0830
  40
8.0000
  1
# 1
  0
TEXT
  8
14
  10
-67.1600
  20
61.0830
  40
8.0000
  1
# 1
  0
TEXT
  8
2
  10
639.9470
  20
-646.0230
  40
8.0000
  1
# 1
  0
TEXT
  8
14
  10
639.9470
  20
-646.0230
  40
8.0000
  1
# 1
  0
TEXT
  8
2
  10
613.0770
  20
-672.8940
  40
8.0000
  1
# 1
  0
TEXT
  8
14
  10
613.0770
  20
-672.8940
  40
8.0000
  1
# 1
  0
TEXT
  8
2
  10
-94.0300
  20
34.2130
  40
8.0000
  1
# 1
  0
TEXT
  8
14
  10
-94.0300
  20
34.2130
  40
8.0000
  1
# 1
  0
TEXT
  8
2
  10
-67.1599
  20
61.0829
  40
8.0000
  1
# 3
  0
TEXT
  8
1
  10
-67.1599
  20
61.0829
  40
8.0000
  1
# 3
  0
TEXT
  8
2
  10
639.9469
  20
-646.0231
  40
8.0000
  1
# 1
  0
TEXT
  8
1
  10
639.9469
  20
-646.0231
  40
8.0000
  1
# 1
  0
TEXT
  8
2
  10
613.0769
  20
-672.8939
  40
8.0000
  1
# 2
  0
TEXT
  8
1
  10
613.0769
  20
-672.8939
  40
8.0000
  1
# 2
  0
TEXT
  8
2
  10
-94.0299
  20
34.2131
  40
8.0000
  1
# 171
  0
TEXT
  8
1
  10
-94.0299
  20
34.2131
  40
8.0000
  1
# 171
  0
TEXT
  8
1
  10
-94.0300
  20
-656.0234
  40
8.0000
  1
Piece Name: BORDER FOR SEAM 8P
  0
TEXT
  8
1
  10
-94.0300
  20
-666.0234
  40
8.0000
  1
Size: 42
  0
TEXT
  8
1
  10
-94.0300
  20
-676.0234
  40
8.0000
  1
Quantity: 1
  0
TEXT
  8
1
  10
-94.0300
  20
-686.0234
  40
8.0000
  1
Annotation: 
  0
TEXT
  8
1
  10
-94.0300
  20
-696.0234
  40
8.0000
  1
Category: FABRIC
  0
LINE
  8
7
  10
207.9480
  20
-256.7620
  11
233.9590
  21
-256.7620
  0
ENDBLK
  0
BLOCK
  8
1
  2
FOR_INS.COLLAR_2P-S_42
  10
0.0000
  20
0.0000
70
0
  0
POLYLINE
  8
14
  66
1
  70
1
  0
VERTEX
  8
14
  10
132.1920
  20
144.5220
  42
0.0000
  0
VERTEX
  8
14
  10
132.1920
  20
124.5220
  42
0.0000
  0
VERTEX
  8
14
  10
-17.8080
  20
124.5220
  42
0.0000
  0
VERTEX
  8
14
  10
-17.8080
  20
144.5220
  42
0.0000
  0
SEQEND
  0
POLYLINE
  8
1
  66
1
  70
1
  0
VERTEX
  8
1
  10
142.1920
  20
154.5220
  42
0.0000
  0
VERTEX
  8
1
  10
142.1920
  20
114.5220
  42
0.0000
  0
VERTEX
  8
1
  10
-27.8080
  20
114.5220
  42
0.0000
  0
VERTEX
  8
1
  10
-27.8080
  20
154.5220
  42
0.0000
  0
SEQEND
  0
POINT
  8
2
  10
132.1920
  20
144.5220
  0
POINT
  8
2
  10
132.1920
  20
124.5220
  0
POINT
  8
2
  10
-17.8080
  20
124.5220
  0
POINT
  8
2
  10
-17.8080
  20
144.5220
  0
POINT
  8
2
  10
142.1920
  20
154.5220
  0
POINT
  8
2
  10
142.1920
  20
114.5220
  0
POINT
  8
2
  10
-27.8080
  20
114.5220
  0
POINT
  8
2
  10
-27.8080
  20
154.5220
  0
TEXT
  8
2
  10
132.1920
  20
144.5220
  40
8.0000
  1
# 1
  0
TEXT
  8
14
  10
132.1920
  20
144.5220
  40
8.0000
  1
# 1
  0
TEXT
  8
2
  10
132.1920
  20
124.5220
  40
8.0000
  1
# 1
  0
TEXT
  8
14
  10
132.1920
  20
124.5220
  40
8.0000
  1
# 1
  0
TEXT
  8
2
  10
-17.8080
  20
124.5220
  40
8.0000
  1
# 1
  0
TEXT
  8
14
  10
-17.8080
  20
124.5220
  40
8.0000
  1
# 1
  0
TEXT
  8
2
  10
-17.8080
  20
144.5220
  40
8.0000
  1
# 1
  0
TEXT
  8
14
  10
-17.8080
  20
144.5220
  40
8.0000
  1
# 1
  0
TEXT
  8
2
  10
142.1920
  20
154.5220
  40
8.0000
  1
# 1
  0
TEXT
  8
1
  10
142.1920
  20
154.5220
  40
8.0000
  1
# 1
  0
TEXT
  8
2
  10
142.1920
  20
114.5220
  40
8.0000
  1
# 1
  0
TEXT
  8
1
  10
142.1920
  20
114.5220
  40
8.0000
  1
# 1
  0
TEXT
  8
2
  10
-27.8080
  20
114.5220
  40
8.0000
  1
# 1
  0
TEXT
  8
1
  10
-27.8080
  20
114.5220
  40
8.0000
  1
# 1
  0
TEXT
  8
2
  10
-27.8080
  20
154.5220
  40
8.0000
  1
# 1
  0
TEXT
  8
1
  10
-27.8080
  20
154.5220
  40
8.0000
  1
# 1
  0
TEXT
  8
1
  10
-27.8081
  20
104.5220
  40
8.0000
  1
Piece Name: FOR INS.COLLAR 2P
  0
TEXT
  8
1
  10
-27.8081
  20
94.5220
  40
8.0000
  1
Size: 42
  0
TEXT
  8
1
  10
-27.8081
  20
84.5220
  40
8.0000
  1
Quantity: 1
  0
TEXT
  8
1
  10
-27.8081
  20
74.5220
  40
8.0000
  1
Annotation: 
  0
TEXT
  8
1
  10
-27.8081
  20
64.5220
  40
8.0000
  1
Category: 
  0
LINE
  8
7
  10
26.4050
  20
134.1910
  11
99.1110
  21
134.1910
  0
ENDBLK
  0
ENDSEC
  0
SECTION
  2
ENTITIES
  0
INSERT
  8
1
  2
TEST_20X20_CM-S_42
  10
35.9666
  20
-18.2342
  0
INSERT
  8
1
  2
BACK_1P-S_42
  10
634.6556
  20
-150.9838
  0
INSERT
  8
1
  2
SLEEVE_2P-S_42
  10
598.3406
  20
618.0322
  0
INSERT
  8
1
  2
BOTTOM_RIB_1P-S_42
  10
1311.1226
  20
59.5559
  0
INSERT
  8
1
  2
RIB_COLLAR_1P-S_42
  10
1364.5171
  20
80.4780
  0
INSERT
  8
1
  2
FRONT_2P-S_42
  10
2014.5676
  20
-231.3348
  0
INSERT
  8
1
  2
SHOULDER_FR_2P-S_42
  10
2167.6499
  20
-224.8998
  0
INSERT
  8
1
  2
CUFF_RIB_2P-S_42
  10
2415.3850
  20
25.2540
  0
INSERT
  8
1
  2
LINING_PCK_4P-S_42
  10
2843.5920
  20
-254.9123
  0
INSERT
  8
1
  2
FACING_PCK_2P-S_42
  10
3087.8887
  20
-211.9885
  0
INSERT
  8
1
  2
THIN_PCK_4P-S_42
  10
3292.6375
  20
-207.1404
  0
INSERT
  8
1
  2
FACING_2P-S_42
  10
3613.0156
  20
-321.5742
  0
INSERT
  8
1
  2
LINING_FRONT_2P-S_42
  10
4182.7188
  20
-201.3644
  0
INSERT
  8
1
  2
PIPING_FR_2P-S_42
  10
4371.1221
  20
65.5692
  0
INSERT
  8
1
  2
BORDER_FOR_SEAM_8P-S_42
  10
5079.2153
  20
305.9050
  0
INSERT
  8
1
  2
FOR_INS.COLLAR_2P-S_42
  10
5756.9702
  20
-134.5220
  0
TEXT
  8
1
  10
-10.0000
  20
12.0000
  40
8.0000
  1
Style Name: REESE-20-04-26-ZZ
  0
TEXT
  8
1
  10
-10.0000
  20
22.0000
  40
8.0000
  1
Creation Date: 20-04-2026
  0
TEXT
  8
1
  10
-10.0000
  20
32.0000
  40
8.0000
  1
Creation Time: 11:58
  0
TEXT
  8
1
  10
-10.0000
  20
42.0000
  40
8.0000
  1
Author: LECTRA
  0
TEXT
  8
1
  10
-10.0000
  20
52.0000
  40
8.0000
  1
Sample Size: 42
  0
TEXT
  8
1
  10
-10.0000
  20
62.0000
  40
8.0000
  1
Grade Rule Table: REESE-20-04-26-ZZ
  0
TEXT
  8
1
  10
-10.0000
  20
72.0000
  40
8.0000
  1
Units: METRIC
  0
ENDSEC
  0
EOF
